<?xml version="1.0" standalone="no"?>
<!DOCTYPE svg PUBLIC "-//W3C//DTD SVG 1.1//EN" "http://www.w3.org/Graphics/SVG/1.1/DTD/svg11.dtd" >
<svg xmlns="http://www.w3.org/2000/svg" xmlns:xlink="http://www.w3.org/1999/xlink" version="1.1">
<metadata>
Created by FontForge 20170731 at Thu Jul 16 17:13:43 2020
 By Aleksey,,,
Copyright (C) 2004, 2020 Hoefler &#38; Co. http://www.typography.com
</metadata>
<defs>
<font id="SentinelPro-Light" horiz-adv-x="445" >
  <font-face 
    font-family="Sentinel Pro"
    font-weight="300"
    font-stretch="normal"
    units-per-em="1000"
    panose-1="2 6 6 3 6 5 6 3 2 3"
    ascent="800"
    descent="-200"
    x-height="443"
    cap-height="648"
    bbox="-179 -274 1496 1049"
    underline-thickness="50"
    underline-position="-225"
    unicode-range="U+000D-FEFF"
  />
<missing-glyph horiz-adv-x="500" 
d="M0 -200v1000h500v-1000h-500zM250 360l179 390h-358zM50 -76l172 376l-172 376v-752zM450 -76v752l-172 -376zM71 -150h358l-179 390z" />
    <glyph glyph-name="f_f" unicode="ff" horiz-adv-x="608" 
d="M36 0v40h76v363h-92v40h92v35q0 60 15 101.5t39.5 66.5t57.5 36t69 11q49 0 86 -17.5t48 -51.5q25 37 62 53t78 16q47 0 85 -22.5t38 -62.5q0 -22 -13.5 -37t-32.5 -15q-22 0 -34 13t-12 31q0 17 9.5 28t13.5 13q-9 10 -25.5 14t-32.5 4q-54 0 -81 -39.5t-27 -138.5v-38
h134v-40h-134v-363h106v-40h-236v40h66v363h-215v-363h86v-40h-226zM176 443h215v35q0 20 1.5 38.5t5.5 34.5q-4 -1 -7 -1.5t-7 -0.5q-22 0 -35 12.5t-13 32.5q0 16 8.5 27t15.5 15q-10 11 -31 17t-40 6q-57 0 -85 -39.5t-28 -138.5v-38z" />
    <glyph glyph-name="uniFB01" unicode="fi" horiz-adv-x="561" 
d="M36 0v40h76v363h-92v40h92v35q0 60 15.5 101.5t41.5 66.5t62.5 36t78.5 11q62 0 103 -29t41 -72q0 -28 -15.5 -41t-32.5 -13q-21 0 -33.5 12.5t-12.5 30.5q0 17 8 28.5t18 17.5q-9 11 -27 21.5t-52 10.5q-63 0 -97 -38.5t-34 -139.5v-38h281v-403h86v-40h-219v40h69v363
h-217v-363h78v-40h-218z" />
    <glyph glyph-name="uniFB02" unicode="fl" horiz-adv-x="566" 
d="M36 0v40h76v363h-92v40h92v35q0 60 14.5 101.5t39 66.5t56.5 36t67 11q29 0 55.5 -6.5t45.5 -19.5l72 23v-650h86v-40h-216v40h66v363h-222v-363h86v-40h-226zM176 443h222v112q-4 -2 -8.5 -3t-8.5 -1q-22 0 -34 13t-12 31q0 17 9.5 28t13.5 13q-19 14 -37.5 18.5
t-32.5 4.5q-57 0 -84.5 -39.5t-27.5 -138.5v-38z" />
    <glyph glyph-name="f_f_i" unicode="ffi" horiz-adv-x="840" 
d="M36 0v40h76v363h-92v40h92v35q0 60 15 101.5t39.5 66.5t57.5 36t69 11q49 0 87 -18.5t48 -52.5q26 39 68 55t93 16q62 0 103 -29t41 -72q0 -28 -15.5 -41t-32.5 -13q-21 0 -33.5 12.5t-12.5 30.5q0 17 8 28.5t18 17.5q-9 11 -27 21.5t-52 10.5q-63 0 -97 -38.5
t-34 -139.5v-38h281v-403h86v-40h-219v40h69v363h-217v-363h78v-40h-208v40h66v363h-215v-363h86v-40h-226zM176 443h215v35q0 20 1.5 38.5t5.5 34.5q-3 -1 -6.5 -1.5t-7.5 -0.5q-22 0 -35 12.5t-13 32.5q0 16 8.5 27t15.5 15q-10 11 -31 17t-40 6q-57 0 -85 -39.5
t-28 -138.5v-38z" />
    <glyph glyph-name="f_f_l" unicode="ffl" horiz-adv-x="845" 
d="M36 0v40h76v363h-92v40h92v35q0 60 15 101.5t39.5 66.5t57.5 36t69 11q49 0 86 -17.5t48 -51.5q25 37 62 53t79 16q29 0 55.5 -6.5t45.5 -19.5l72 23v-650h86v-40h-216v40h66v363h-222v-363h86v-40h-216v40h66v363h-215v-363h86v-40h-226zM455 443h222v112q-4 -2 -8.5 -3
t-8.5 -1q-22 0 -34 13t-12 31q0 17 9.5 28t13.5 13q-19 14 -37.5 18.5t-32.5 4.5q-57 0 -84.5 -39.5t-27.5 -138.5v-38zM176 443h215v35q0 20 1.5 38.5t5.5 34.5q-4 -1 -7 -1.5t-7 -0.5q-22 0 -35 12.5t-13 32.5q0 16 8.5 27t15.5 15q-10 11 -31 17t-40 6q-57 0 -85 -39.5
t-28 -138.5v-38z" />
    <glyph glyph-name="f_b" unicode="fb" horiz-adv-x="814" 
d="M36 0v40h76v363h-92v40h92v35q0 60 14.5 101.5t38.5 66.5t55.5 36t64.5 11q28 0 53.5 -6.5t44.5 -18.5l69 22v-347q27 54 66.5 81.5t85.5 27.5q34 0 59 -11t44 -30q32 -31 48 -78t16 -105t-18 -108t-50 -82q-21 -21 -48 -33.5t-62 -12.5q-47 0 -88 29t-60 80l-26 -106
h-31v408h-212v-363h106v-40h-246zM176 443h212v110q-3 -1 -6 -1.5t-7 -0.5q-22 0 -34 13t-12 31q0 17 9.5 28t13.5 13q-19 14 -37.5 18.5t-31.5 4.5q-51 0 -79 -39t-28 -135v-42zM580 36q54 0 88 50t34 139q0 87 -33.5 135t-84.5 48q-56 0 -95 -55.5t-39 -141.5
q0 -87 40 -131t90 -44z" />
    <glyph glyph-name="f_h" unicode="fh" horiz-adv-x="844" 
d="M36 0v40h76v363h-92v40h92v35q0 60 14.5 101.5t39 66.5t56.5 36t67 11q29 0 55.5 -6.5t45.5 -19.5l72 23v-361q40 71 84.5 97t83.5 26q58 0 90 -36t32 -106v-270h76v-40h-210v40h70v234q0 37 -5.5 62.5t-20.5 40.5q-12 13 -27.5 17.5t-32.5 4.5q-28 0 -53.5 -14.5
t-44.5 -36t-30.5 -47t-11.5 -46.5v-215h70v-40h-200v40h66v363h-222v-363h86v-40h-226zM176 443h222v112q-4 -2 -8.5 -3t-8.5 -1q-22 0 -34 13t-12 31q0 17 9.5 28t13.5 13q-19 14 -37.5 18.5t-32.5 4.5q-57 0 -84.5 -39.5t-27.5 -138.5v-38z" />
    <glyph glyph-name="f_j" unicode="fj" horiz-adv-x="541" 
d="M326 -160q-40 0 -70.5 22.5t-30.5 54.5q0 22 13.5 37t34.5 15t33 -12t12 -30q0 -16 -8 -27t-18 -18q7 -5 15.5 -8t18.5 -3q29 0 48 26.5t19 83.5v422h-217v-363h86v-40h-226v40h76v363h-92v40h92v35q0 60 15.5 101.5t41.5 66.5t62.5 36t78.5 11q62 0 103 -29t41 -72
q0 -28 -15.5 -41t-32.5 -13q-21 0 -33.5 12.5t-12.5 30.5q0 17 8 28.5t18 17.5q-9 11 -27 21.5t-52 10.5q-63 0 -97 -38.5t-34 -139.5v-38h281v-434q0 -88 -37 -128.5t-94 -40.5z" />
    <glyph glyph-name="f_k" unicode="fk" horiz-adv-x="807" 
d="M36 0v40h76v363h-92v40h92v35q0 60 14.5 101.5t39 66.5t56.5 36t67 11q29 0 55.5 -6.5t45.5 -19.5l72 23v-494l196 208h-75v39h194v-40h-67l-124 -128l154 -235h59v-40h-195v39h63l-125 193l-80 -83v-109h67v-40h-197v40h66v363h-222v-363h86v-40h-226zM176 443h222v112
q-4 -2 -8.5 -3t-8.5 -1q-22 0 -34 13t-12 31q0 17 9.5 28t13.5 13q-19 14 -37.5 18.5t-32.5 4.5q-57 0 -84.5 -39.5t-27.5 -138.5v-38z" />
    <glyph glyph-name="f_f_b" unicode="ffb" horiz-adv-x="1100" 
d="M36 0v40h76v363h-92v40h92v35q0 60 15 101.5t39.5 66.5t57.5 36t69 11q49 0 86 -17.5t48 -50.5q25 37 61 52.5t76 15.5q28 0 54.5 -7t45.5 -20l74 24v-347q27 54 66.5 81.5t85.5 27.5q34 0 59 -11t44 -30q32 -31 48 -78t16 -105t-18 -108t-50 -82q-21 -21 -48 -33.5
t-62 -12.5q-47 0 -88 29t-60 80l-26 -106h-31v408h-219v-363h106v-40h-236v40h66v363h-215v-363h86v-40h-226zM455 443h219v113q-4 -2 -9.5 -3.5t-10.5 -1.5q-22 0 -34 13t-12 31q0 17 9.5 28t13.5 13q-19 14 -37.5 18.5t-31.5 4.5q-51 0 -79 -39t-28 -135v-42zM176 443h215
v35q0 20 1.5 38.5t5.5 34.5q-4 -1 -7 -1.5t-7 -0.5q-22 0 -35 12.5t-13 32.5q0 16 8.5 27t15.5 15q-10 11 -31 17t-40 6q-57 0 -85 -39.5t-28 -138.5v-38zM866 36q54 0 88 50t34 139q0 87 -33.5 135t-84.5 48q-56 0 -95 -55.5t-39 -141.5q0 -87 40 -131t90 -44z" />
    <glyph glyph-name="f_f_h" unicode="ffh" horiz-adv-x="1123" 
d="M36 0v40h76v363h-92v40h92v35q0 60 15 101.5t39.5 66.5t57.5 36t69 11q49 0 86 -17.5t48 -51.5q25 37 62 53t79 16q29 0 55.5 -6.5t45.5 -19.5l72 23v-361q40 71 84.5 97t83.5 26q58 0 90 -36t32 -106v-270h76v-40h-210v40h70v234q0 37 -5.5 62.5t-20.5 40.5
q-12 13 -27.5 17.5t-32.5 4.5q-28 0 -53.5 -14.5t-44.5 -36t-30.5 -47t-11.5 -46.5v-215h70v-40h-200v40h66v363h-222v-363h86v-40h-216v40h66v363h-215v-363h86v-40h-226zM455 443h222v112q-4 -2 -8.5 -3t-8.5 -1q-22 0 -34 13t-12 31q0 17 9.5 28t13.5 13
q-19 14 -37.5 18.5t-32.5 4.5q-57 0 -84.5 -39.5t-27.5 -138.5v-38zM176 443h215v35q0 20 1.5 38.5t5.5 34.5q-4 -1 -7 -1.5t-7 -0.5q-22 0 -35 12.5t-13 32.5q0 16 8.5 27t15.5 15q-10 11 -31 17t-40 6q-57 0 -85 -39.5t-28 -138.5v-38z" />
    <glyph glyph-name="f_f_j" unicode="ffj" horiz-adv-x="820" 
d="M605 -160q-40 0 -70.5 22.5t-30.5 54.5q0 22 13.5 37t34.5 15t33 -12t12 -30q0 -16 -8 -27t-18 -18q7 -5 15.5 -8t18.5 -3q29 0 48 26.5t19 83.5v422h-217v-363h86v-40h-216v40h66v363h-215v-363h86v-40h-226v40h76v363h-92v40h92v35q0 60 15 101.5t39.5 66.5t57.5 36
t69 11q49 0 87 -18.5t48 -52.5q26 39 68 55t93 16q62 0 103 -29t41 -72q0 -28 -15.5 -41t-32.5 -13q-21 0 -33.5 12.5t-12.5 30.5q0 17 8 28.5t18 17.5q-9 11 -27 21.5t-52 10.5q-63 0 -97 -38.5t-34 -139.5v-38h281v-434q0 -88 -37 -128.5t-94 -40.5zM176 443h215v35
q0 20 1.5 38.5t5.5 34.5q-3 -1 -6.5 -1.5t-7.5 -0.5q-22 0 -35 12.5t-13 32.5q0 16 8.5 27t15.5 15q-10 11 -31 17t-40 6q-57 0 -85 -39.5t-28 -138.5v-38z" />
    <glyph glyph-name="f_f_k" unicode="ffk" horiz-adv-x="1086" 
d="M36 0v40h76v363h-92v40h92v35q0 60 15 101.5t39.5 66.5t57.5 36t69 11q49 0 86 -17.5t48 -51.5q25 37 62 53t79 16q29 0 55.5 -6.5t45.5 -19.5l72 23v-494l196 208h-75v39h194v-40h-67l-124 -128l154 -235h59v-40h-195v39h63l-125 193l-80 -83v-109h67v-40h-197v40h66
v363h-222v-363h86v-40h-216v40h66v363h-215v-363h86v-40h-226zM455 443h222v112q-4 -2 -8.5 -3t-8.5 -1q-22 0 -34 13t-12 31q0 17 9.5 28t13.5 13q-19 14 -37.5 18.5t-32.5 4.5q-57 0 -84.5 -39.5t-27.5 -138.5v-38zM176 443h215v35q0 20 1.5 38.5t5.5 34.5q-4 -1 -7 -1.5
t-7 -0.5q-22 0 -35 12.5t-13 32.5q0 16 8.5 27t15.5 15q-10 11 -31 17t-40 6q-57 0 -85 -39.5t-28 -138.5v-38z" />
    <glyph glyph-name=".notdef" horiz-adv-x="500" 
d="M0 -200v1000h500v-1000h-500zM250 360l179 390h-358zM50 -76l172 376l-172 376v-752zM450 -76v752l-172 -376zM71 -150h358l-179 390z" />
    <glyph glyph-name=".null" horiz-adv-x="0" 
 />
    <glyph glyph-name="uni000D" unicode="&#xd;" horiz-adv-x="174" 
 />
    <glyph glyph-name="space" unicode=" " horiz-adv-x="174" 
 />
    <glyph glyph-name="exclam" unicode="!" horiz-adv-x="256" 
d="M117 190q-3 71 -8 131.5t-9 114.5q-4 52 -9 106t-5 80t11.5 39t30.5 13t30.5 -13t11.5 -39q0 -27 -5 -80t-9 -106q-4 -54 -9 -114.5t-8 -131.5h-22zM128 -14q-21 0 -35.5 14.5t-14.5 35.5t14.5 35.5t35.5 14.5t35.5 -14.5t14.5 -35.5t-14.5 -35.5t-35.5 -14.5z" />
    <glyph glyph-name="quotedbl" unicode="&#x22;" horiz-adv-x="399" 
d="M82 413l-22 10l28 103q12 45 17.5 65.5t12.5 35.5t15.5 20t17.5 5q14 0 26 -9t12 -24q0 -7 -3 -16t-5 -14q-7 -16 -20.5 -39.5t-26.5 -46.5zM232 413l-22 10l28 103q12 45 17.5 65.5t12.5 35.5t15.5 20t17.5 5q14 0 26 -9t12 -24q0 -7 -3 -16t-5 -14q-7 -16 -20.5 -39.5
t-26.5 -46.5z" />
    <glyph glyph-name="numbersign" unicode="#" horiz-adv-x="663" 
d="M124 -40l40 202h-133v44h141l41 208h-142v44h151l38 195h50l-38 -195h172l39 195h50l-38 -195h133v-44h-142l-41 -208h142v-44h-150l-40 -202h-51l40 202h-172l-39 -202h-51zM223 206h172l41 208h-173z" />
    <glyph glyph-name="dollar" unicode="$" horiz-adv-x="511" 
d="M243 -78v78q-90 4 -147 43.5t-57 83.5q0 24 15 41t40 17q23 0 36.5 -15.5t13.5 -34.5q0 -17 -8.5 -30.5t-22.5 -22.5q16 -16 49 -29.5t81 -16.5v251q-98 28 -140 63.5t-42 105.5q0 30 12.5 58.5t36 51t57 38t76.5 19.5v68h38v-67q36 -1 69 -11.5t58 -27t39.5 -38.5
t14.5 -46q0 -25 -14.5 -39.5t-35.5 -14.5q-22 0 -35.5 13.5t-13.5 31.5t10 30.5t24 18.5q-13 15 -41.5 29.5t-74.5 17.5v-243q107 -31 146 -69t39 -103q0 -31 -13 -60.5t-37 -53t-58.5 -39.5t-76.5 -19v-79h-38zM120 470q0 -40 28.5 -67t94.5 -48v232q-63 -7 -93 -42.5
t-30 -74.5zM406 159q0 41 -28 67.5t-97 48.5v-238q57 5 91 39.5t34 82.5z" />
    <glyph glyph-name="percent" unicode="%" horiz-adv-x="755" 
d="M131 -26l393 580l-3 3q-21 -16 -51 -30.5t-73 -14.5q-15 0 -31.5 2.5t-34.5 8.5q1 -6 1.5 -12.5t0.5 -13.5q0 -38 -11.5 -78.5t-33.5 -74t-54 -55.5t-72 -22q-54 0 -86.5 35t-32.5 95q0 44 15.5 83.5t41 69t59.5 47t71 17.5q27 0 49 -10t35 -32q27 -16 50 -21t44 -5
q45 0 86.5 19.5t77.5 62.5h36l-420 -654h-57zM170 305q27 0 50 17.5t39.5 45t26 61.5t9.5 68q0 12 -1.5 22.5t-5.5 18.5q-12 7 -24.5 16t-25.5 20h-1.5h-5.5q-27 -1 -50 -18t-40 -43.5t-26.5 -59t-9.5 -63.5q0 -40 17.5 -62.5t47.5 -22.5zM541 -14q-54 0 -86.5 35t-32.5 95
q0 44 15.5 83.5t41 69t59.5 47t71 17.5q45 0 74 -28.5t29 -88.5q0 -38 -11.5 -78.5t-33.5 -74t-54 -55.5t-72 -22zM549 24q27 0 50 17.5t39.5 45t26 61.5t9.5 68q0 37 -16.5 57.5t-47.5 19.5q-27 -1 -50 -18t-40 -43.5t-26.5 -59t-9.5 -63.5q0 -40 17.5 -62.5t47.5 -22.5z
" />
    <glyph glyph-name="ampersand" unicode="&#x26;" horiz-adv-x="710" 
d="M235 -16q-41 0 -75 13t-58 35t-37 52t-13 63q0 61 40.5 106t126.5 80q-32 32 -49.5 66.5t-17.5 74.5q0 30 12.5 56.5t34 46.5t50 31.5t59.5 11.5q32 0 58 -11t44 -28.5t27.5 -39.5t9.5 -44q0 -46 -27.5 -86t-104.5 -77q48 -45 82 -88.5t62 -90.5q30 37 57.5 87.5
t43.5 92.5h-80v40h203v-40h-78q-22 -51 -52.5 -107.5t-70.5 -105.5q29 -47 50 -66t43 -19q20 0 35.5 16.5t30.5 50.5l30 -13q-17 -48 -44 -77.5t-70 -29.5q-34 0 -64 20t-60 70q-42 -44 -91.5 -67t-106.5 -23zM213 491q0 -34 16 -63.5t61 -70.5q51 28 73.5 62.5t22.5 74.5
q0 38 -22 63.5t-59 25.5q-43 0 -67.5 -28t-24.5 -64zM123 155q0 -46 36 -83.5t97 -37.5q41 0 80 19t75 54q-28 51 -65.5 97.5t-99.5 103.5q-60 -28 -91.5 -64.5t-31.5 -88.5z" />
    <glyph glyph-name="quotesingle" unicode="'" horiz-adv-x="249" 
d="M82 413l-22 10l28 103q12 45 17.5 65.5t12.5 35.5t15.5 20t17.5 5q14 0 26 -9t12 -24q0 -7 -3 -16t-5 -14q-7 -16 -20.5 -39.5t-26.5 -46.5z" />
    <glyph glyph-name="parenleft" unicode="(" horiz-adv-x="361" 
d="M337 -157q-124 69 -195.5 178t-71.5 264t71.5 264t195.5 178l19 -30q-109 -71 -163 -173t-54 -239t54 -239t163 -173z" />
    <glyph glyph-name="parenright" unicode=")" horiz-adv-x="361" 
d="M24 727q124 -69 195.5 -178t71.5 -264t-71.5 -264t-195.5 -178l-19 30q109 71 163 173t54 239t-54 239t-163 173z" />
    <glyph glyph-name="asterisk" unicode="*" horiz-adv-x="385" 
d="M246 393q-13 -4 -23.5 1.5t-15.5 21.5q-6 19 -7 53.5t-3 54.5l-12 3q-13 -16 -34.5 -43.5t-36.5 -38.5q-13 -10 -24 -9.5t-21 13.5q-9 12 -6.5 23.5t15.5 20.5q7 5 20.5 11.5t28 12.5t28.5 11.5t23 9.5v11q-9 4 -23 9t-28.5 10.5t-28 11.5t-20.5 11q-13 10 -16.5 21
t5.5 24t21.5 13.5t25.5 -9.5q14 -10 36 -38t35 -43l11 3q1 10 1.5 25t1.5 30.5t2 29.5t4 23q5 16 15 22t26 1q14 -4 17.5 -15t-1.5 -27t-24.5 -45.5t-29.5 -46.5l7 -10q9 3 23.5 7t29.5 8t29.5 7t23.5 3q16 0 24.5 -7t8.5 -23q0 -15 -8 -22.5t-26 -7.5q-9 0 -23 3t-29 6.5
t-29.5 7.5t-24.5 6l-6 -10q11 -16 30.5 -45.5t24.5 -47.5q5 -16 1.5 -26t-18.5 -15z" />
    <glyph glyph-name="plus" unicode="+" horiz-adv-x="523" 
d="M241 103v189h-184v38h184v189h42v-189h184v-38h-184v-189h-42z" />
    <glyph glyph-name="comma" unicode="," horiz-adv-x="200" 
d="M30 -132l-13 27q51 25 72 49.5t25 52.5l-2 2q-6 -3 -10.5 -4t-9.5 -1q-18 0 -30 12.5t-12 31.5t13 33.5t34 14.5q26 0 40 -19t14 -47q0 -46 -28 -84.5t-93 -67.5z" />
    <glyph glyph-name="hyphen" unicode="-" horiz-adv-x="366" 
d="M55 210v55h256v-55h-256z" />
    <glyph glyph-name="period" unicode="." horiz-adv-x="200" 
d="M100 -14q-21 0 -35.5 14.5t-14.5 35.5t14.5 35.5t35.5 14.5t35.5 -14.5t14.5 -35.5t-14.5 -35.5t-35.5 -14.5z" />
    <glyph glyph-name="slash" unicode="/" horiz-adv-x="408" 
d="M-48 -203l386 897h51l-386 -897h-51z" />
    <glyph glyph-name="zero" unicode="0" horiz-adv-x="549" 
d="M276 -16q-54 0 -97 25t-72 68.5t-44.5 103t-15.5 128.5q0 70 16 130.5t45.5 104.5t71.5 69t93 25q54 0 97 -24.5t72 -68t44.5 -103t15.5 -128.5q0 -70 -16 -130.5t-45.5 -104.5t-71.5 -69.5t-93 -25.5zM278 24q39 0 67.5 21.5t47 59.5t27.5 91t9 115t-10 115t-29.5 91
t-49.5 59.5t-69 21.5t-67.5 -21.5t-47 -59.5t-27.5 -91t-9 -115t10.5 -114.5t30 -91t49.5 -60t68 -21.5z" />
    <glyph glyph-name="one" unicode="1" horiz-adv-x="427" 
d="M48 0v40h148v488q-18 -9 -43.5 -13t-51.5 -4q-15 0 -29 1.5t-24 4.5v33q58 0 106.5 20.5t70.5 60.5h38v-591h138v-40h-353z" />
    <glyph glyph-name="two" unicode="2" horiz-adv-x="526" 
d="M97 -16q-25 0 -38 20.5t-13 48.5q0 54 48.5 109t157.5 124q63 40 100.5 82.5t37.5 98.5q0 54 -36 93t-99 39q-53 0 -88.5 -24t-49.5 -52q20 -4 33 -18t13 -36q0 -20 -14.5 -36t-36.5 -16t-38.5 17.5t-16.5 49.5q0 27 15.5 54.5t43 49.5t65.5 36t83 14q49 0 86 -14.5
t61.5 -38.5t37 -55t12.5 -65q0 -68 -47 -117.5t-138 -96.5q-89 -46 -132 -89.5t-48 -79.5l2 -1q17 9 38 14.5t45 5.5q25 0 46.5 -8.5t41.5 -18.5t39 -18.5t40 -8.5q40 0 63.5 35.5t41.5 119.5l30 -2q-10 -120 -47.5 -168t-93.5 -48q-28 0 -52 13t-46 28t-43.5 28t-43.5 13
q-7 0 -15.5 -1.5t-15.5 -3.5q4 -7 7 -15t3 -17q0 -19 -10 -32t-29 -13z" />
    <glyph glyph-name="three" unicode="3" horiz-adv-x="505" 
d="M238 -16q-42 0 -79 11.5t-63.5 30t-42 42.5t-15.5 50q0 25 15 42.5t39 17.5q22 0 36 -15t14 -34t-10 -34t-23 -22q12 -15 42.5 -32.5t82.5 -17.5q66 0 107 40t41 97q0 64 -45.5 102t-132.5 38h-29v42h24q84 0 129 36t45 100q0 51 -35 86t-98 35q-56 0 -85.5 -20
t-40.5 -39q19 -6 31 -20t12 -34q0 -19 -13 -35t-37 -16q-22 0 -38 16.5t-16 43.5q0 25 14 50.5t39 46t61.5 33.5t80.5 13q90 0 143 -47t53 -113t-44.5 -103t-110.5 -53v-2q78 -14 121 -51t43 -97q0 -38 -15 -72.5t-43 -60t-68 -40.5t-89 -15z" />
    <glyph glyph-name="four" unicode="4" horiz-adv-x="544" 
d="M224 0v40h99v138h-298v43l299 412h65v-413h131v-42h-131v-138h98v-40h-263zM78 220h246v338h-2z" />
    <glyph glyph-name="five" unicode="5" horiz-adv-x="497" 
d="M239 -16q-39 0 -75 11.5t-63 31t-43 45.5t-16 55q0 28 17 47t41 19q25 0 37.5 -15t12.5 -34q0 -21 -13.5 -37t-32.5 -21q15 -23 48 -43t82 -20q69 0 109.5 50.5t40.5 126.5t-34.5 114t-94.5 38q-45 0 -80 -18t-62 -44l-36 12l22 323l11 8q48 -19 89 -28t87 -9
q49 0 80.5 10t62.5 26l12 -21q-31 -40 -71.5 -60.5t-93.5 -20.5q-40 0 -76.5 9t-61.5 19l-14 -211q25 20 61.5 33t77.5 13q84 0 138 -52t54 -135q0 -41 -14.5 -81t-41.5 -71t-67.5 -50.5t-92.5 -19.5z" />
    <glyph glyph-name="six" unicode="6" horiz-adv-x="514" 
d="M263 -16q-51 0 -91.5 21t-68.5 58.5t-42.5 91t-14.5 117.5q0 78 18.5 145.5t52 116t82.5 76.5t110 28q69 0 109 -32t40 -75q0 -29 -16 -47.5t-41 -18.5t-39 15t-14 35q0 16 10.5 32t32.5 22q-12 15 -32 22.5t-47 7.5q-91 0 -142 -80.5t-55 -222.5q25 39 66.5 66t96.5 27
q45 0 80.5 -14.5t59.5 -40t37 -60.5t13 -75q0 -43 -13.5 -82t-39 -68.5t-64 -47t-88.5 -17.5zM266 24q62 0 96.5 46.5t34.5 124.5q0 29 -8 56.5t-24 49t-40.5 34.5t-58.5 13q-62 0 -103.5 -45.5t-41.5 -113.5q0 -34 10 -64t29 -52.5t46 -35.5t60 -13z" />
    <glyph glyph-name="seven" unicode="7" horiz-adv-x="520" 
d="M214 -16q-16 0 -27.5 10t-11.5 30q0 36 12 88t36 110t60.5 117.5t83.5 110.5q33 35 50 57.5t27 41.5l-2 2q-28 -16 -50.5 -23.5t-43.5 -7.5q-26 0 -47 7t-39.5 15t-37 15t-39.5 7q-38 0 -62.5 -34.5t-31.5 -135.5h-38v231h40l4 -89h2q15 43 38.5 68.5t64.5 25.5
q29 0 49.5 -12t37.5 -26.5t34.5 -26.5t41.5 -12q9 0 24.5 3.5t35.5 13.5q-7 7 -10.5 15t-3.5 16q0 16 12 27.5t28 11.5q21 0 32.5 -14t11.5 -33q0 -33 -22 -65t-76 -96q-69 -83 -102.5 -173t-40.5 -225q-1 -25 -11 -37.5t-29 -12.5z" />
    <glyph glyph-name="eight" unicode="8" horiz-adv-x="524" 
d="M256 -16q-47 0 -86 13.5t-66.5 36t-42.5 53t-15 63.5q0 46 27 92.5t101 74.5q-57 27 -83 64t-26 84q0 35 14 67t40 55.5t63.5 37t84.5 13.5q44 0 79.5 -13t60 -35t37.5 -50t13 -58q0 -56 -29.5 -95.5t-89.5 -63.5q69 -26 104.5 -64t35.5 -89q0 -38 -16.5 -72t-46 -59
t-70.5 -40t-89 -15zM133 480q0 -51 36.5 -84t125.5 -59q56 25 80 60t24 77q0 51 -36.5 88t-99.5 37q-61 0 -95.5 -36.5t-34.5 -82.5zM106 155q0 -55 43.5 -94t112.5 -39q63 0 105.5 39t42.5 91q0 51 -44.5 82.5t-145.5 65.5q-57 -22 -85.5 -59.5t-28.5 -85.5z" />
    <glyph glyph-name="nine" unicode="9" horiz-adv-x="514" 
d="M209 -16q-78 0 -119.5 33.5t-41.5 79.5q0 28 16 46t41 18t39 -15t14 -35q0 -16 -10.5 -32t-32.5 -22q15 -18 38.5 -26t52.5 -8q90 0 139.5 78.5t53.5 216.5q-25 -39 -66.5 -66t-96.5 -27q-90 0 -140 55.5t-50 138.5q0 44 13.5 84t39 70t64 47.5t88.5 17.5q51 0 91.5 -21
t68.5 -58.5t42.5 -91t14.5 -117.5q0 -79 -17.5 -146.5t-50.5 -116t-81 -76t-110 -27.5zM248 266q62 0 103.5 46t41.5 117q0 70 -39.5 119.5t-105.5 49.5q-62 0 -96.5 -47t-34.5 -128q0 -30 8 -58.5t24 -50.5t40.5 -35t58.5 -13z" />
    <glyph glyph-name="colon" unicode=":" horiz-adv-x="200" 
d="M100 290q-21 0 -35.5 14.5t-14.5 35.5t14.5 35.5t35.5 14.5t35.5 -14.5t14.5 -35.5t-14.5 -35.5t-35.5 -14.5zM100 -14q-21 0 -35.5 14.5t-14.5 35.5t14.5 35.5t35.5 14.5t35.5 -14.5t14.5 -35.5t-14.5 -35.5t-35.5 -14.5z" />
    <glyph glyph-name="semicolon" unicode=";" horiz-adv-x="200" 
d="M100 290q-21 0 -35.5 14.5t-14.5 35.5t14.5 35.5t35.5 14.5t35.5 -14.5t14.5 -35.5t-14.5 -35.5t-35.5 -14.5zM30 -132l-13 27q51 25 72 49.5t25 52.5l-2 2q-6 -3 -10.5 -4t-9.5 -1q-18 0 -30 12.5t-12 31.5t13 33.5t34 14.5q26 0 40 -19t14 -47q0 -46 -28 -84.5
t-93 -67.5z" />
    <glyph glyph-name="less" unicode="&#x3c;" horiz-adv-x="510" 
d="M428 117l-346 179v31l346 178v-43l-296 -151l296 -150v-44z" />
    <glyph glyph-name="equal" unicode="=" horiz-adv-x="526" 
d="M60 379v38h406v-38h-406zM60 205v38h406v-38h-406z" />
    <glyph glyph-name="greater" unicode="&#x3e;" horiz-adv-x="510" 
d="M82 117v43l296 151l-296 150v44l346 -179v-31z" />
    <glyph glyph-name="question" unicode="?" horiz-adv-x="411" 
d="M179 190q-1 59 14 98.5t49 82.5q41 50 57.5 79t16.5 72q0 48 -32 82t-84 34q-41 0 -70 -19t-41 -42q21 -4 34.5 -17.5t13.5 -35.5t-14.5 -37.5t-37.5 -15.5q-25 0 -40 18t-15 43q0 28 14 53.5t38 45t56 31.5t67 12q87 0 134.5 -44.5t47.5 -107.5q0 -50 -23.5 -88
t-77.5 -87q-40 -36 -58 -72t-21 -85h-28zM196 -14q-21 0 -35.5 14.5t-14.5 35.5t14.5 35.5t35.5 14.5t35.5 -14.5t14.5 -35.5t-14.5 -35.5t-35.5 -14.5z" />
    <glyph glyph-name="at" unicode="@" horiz-adv-x="908" 
d="M458 -146q-84 0 -156 25.5t-125 75t-83 121.5t-30 165t33 172.5t90.5 137t135.5 90.5t166 33q72 0 137 -24t113 -68.5t76.5 -108.5t28.5 -143q0 -65 -19.5 -116t-50 -85t-70.5 -52t-80 -18q-51 0 -78 27t-23 81l-7 3q-32 -46 -66.5 -71.5t-73.5 -25.5q-46 0 -77 33.5
t-31 93.5q0 61 26 119.5t69 97.5q27 24 57 38.5t61 14.5t58.5 -19.5t36.5 -62.5l24 77h56l-74 -246q-12 -41 -11 -65.5t10 -37.5t23.5 -17t29.5 -4q33 0 64 16t54.5 46t38 74t14.5 98q0 70 -24 127t-66.5 97.5t-101.5 62.5t-128 22q-83 0 -153.5 -31t-121 -85t-79 -127
t-28.5 -155q0 -80 25.5 -145t72 -110.5t113 -70t147.5 -24.5q78 0 145.5 24t117.5 61l18 -27q-56 -42 -130.5 -68t-153.5 -26zM395 117q30 0 59.5 23t52.5 56.5t37 73t14 71.5q0 13 -3.5 29.5t-12.5 30.5t-23 23.5t-35 9.5q-30 0 -58 -21.5t-49.5 -54.5t-34.5 -74.5
t-13 -81.5q0 -42 18.5 -63.5t47.5 -21.5z" />
    <glyph glyph-name="A" unicode="A" horiz-adv-x="672" 
d="M3 0v40h69l245 613h45l228 -613h79v-40h-257v40h102l-72 198h-245l-77 -198h92v-40h-209zM323 559l-111 -283h216l-103 283h-2z" />
    <glyph glyph-name="B" unicode="B" horiz-adv-x="619" 
d="M34 0v40h110v568h-110v40h281q71 0 117.5 -13t73 -34.5t37 -49.5t10.5 -59q0 -20 -7.5 -42.5t-25.5 -43.5t-49 -38t-78 -26v-2q96 -7 143.5 -52t47.5 -105q0 -34 -12 -67t-42 -59t-82 -41.5t-132 -15.5h-282zM214 360h114q76 0 113 35.5t37 97.5q0 54 -32 84.5t-112 30.5
h-120v-248zM214 40h117q93 0 135 35.5t42 110.5q0 61 -46.5 98t-136.5 37h-111v-281z" />
    <glyph glyph-name="C" unicode="C" horiz-adv-x="674" 
d="M347 -16q-65 0 -119 24.5t-92.5 68.5t-60 107t-21.5 139q0 74 23 136.5t62.5 107.5t94.5 70.5t118 25.5q68 0 114.5 -23.5t76.5 -57.5l20 78h40v-238h-34q-28 93 -79 144t-140 51q-49 0 -90 -21t-69.5 -58.5t-44.5 -90.5t-16 -118q0 -72 17.5 -128t48.5 -93.5t73 -57
t91 -19.5q87 0 142.5 58.5t70.5 159.5h45q-16 -128 -86 -196.5t-185 -68.5z" />
    <glyph glyph-name="D" unicode="D" horiz-adv-x="690" 
d="M34 0v40h110v568h-110v40h259q88 0 153 -22.5t107.5 -63.5t63.5 -99t21 -129t-20 -132t-61.5 -106t-106.5 -70.5t-153 -25.5h-263zM214 40h87q135 0 198 75.5t63 218.5q0 127 -64 200.5t-202 73.5h-82v-568z" />
    <glyph glyph-name="E" unicode="E" horiz-adv-x="640" 
d="M34 0v40h110v568h-110v40h538v-196h-32q-7 51 -13 82t-14.5 47t-20.5 21.5t-31 5.5h-247v-257h123q36 0 46.5 16.5t18.5 82.5h31v-238h-31q-4 35 -8 55.5t-10.5 31t-17.5 13.5t-29 3h-123v-275h247q22 0 36 5.5t22.5 24t15 53.5t14.5 93h32v-216h-547z" />
    <glyph glyph-name="F" unicode="F" horiz-adv-x="628" 
d="M34 0v40h110v568h-110v40h551v-200h-32q-8 52 -15.5 84t-17 48.5t-23 22t-32.5 5.5h-251v-269h119q17 0 27.5 3t17 13.5t11 31t9.5 54.5h31v-246h-31q-4 36 -8.5 57.5t-11 32.5t-17.5 14.5t-28 3.5h-119v-263h121v-40h-301z" />
    <glyph glyph-name="G" unicode="G" horiz-adv-x="705" 
d="M343 -16q-67 0 -120.5 26.5t-91 72.5t-57.5 109t-20 134q0 68 21.5 129.5t59.5 107.5t92 73t118 27q54 0 103 -22t82 -59l20 78h40v-232h-34q-27 88 -79 138.5t-130 50.5q-53 0 -93.5 -21.5t-68 -59t-41.5 -90t-14 -114.5q0 -139 60 -219.5t161 -80.5q37 0 68.5 13
t52.5 34q30 30 42.5 71t12.5 95v28h-123v40h284v-40h-91v-280h-36l-30 98q-28 -52 -78 -79.5t-110 -27.5z" />
    <glyph glyph-name="H" unicode="H" horiz-adv-x="758" 
d="M34 0v40h110v568h-110v40h280v-40h-100v-254h330v254h-100v40h280v-40h-110v-568h110v-40h-280v40h100v276h-330v-276h100v-40h-280z" />
    <glyph glyph-name="I" unicode="I" horiz-adv-x="366" 
d="M38 0v40h110v568h-110v40h290v-40h-110v-568h110v-40h-290z" />
    <glyph glyph-name="J" unicode="J" horiz-adv-x="508" 
d="M208 -16q-41 0 -74 12.5t-55 32.5t-33.5 46t-11.5 52q0 30 17.5 49.5t42.5 19.5q27 0 40.5 -17t13.5 -38q0 -19 -11 -35t-39 -21q10 -22 37.5 -40t67.5 -18q54 0 85 37.5t31 100.5v443h-103v40h268v-40h-95v-428q0 -93 -51.5 -144.5t-129.5 -51.5z" />
    <glyph glyph-name="K" unicode="K" horiz-adv-x="712" 
d="M34 0v40h110v568h-110v40h280v-40h-100v-325l322 325h-92v40h241v-40h-85l-232 -229l254 -339h78v-40h-259v40h94l-215 292l-106 -105v-187h100v-40h-280z" />
    <glyph glyph-name="L" unicode="L" horiz-adv-x="603" 
d="M34 0v40h110v568h-110v40h301v-40h-121v-568h244q15 0 25 9.5t17.5 32.5t14.5 63t16 100h32v-245h-529z" />
    <glyph glyph-name="M" unicode="M" horiz-adv-x="912" 
d="M34 0v40h105v568h-105v40h221l199 -527h3l205 527h216v-40h-110v-568h110v-40h-268v40h88v568h-4l-243 -609h-24l-238 609h-4v-568h94v-40h-245z" />
    <glyph glyph-name="N" unicode="N" horiz-adv-x="747" 
d="M587 -16l-400 579h-2v-523h97v-40h-248v40h105v568h-105v40h178l365 -529h2v489h-99v40h243v-40h-98v-624h-38z" />
    <glyph glyph-name="O" unicode="O" horiz-adv-x="704" 
d="M352 -16q-63 0 -117.5 25t-94.5 69.5t-63 107.5t-23 138q0 72 23 134t62.5 107t94.5 71t118 26q65 0 119.5 -25.5t94 -70.5t62 -107.5t22.5 -135.5q0 -74 -23.5 -136.5t-64 -107t-95 -70t-115.5 -25.5zM352 27q101 0 161.5 81t60.5 215q0 66 -16 121t-44.5 93.5t-70 60
t-91.5 21.5t-91.5 -21.5t-70 -60t-44.5 -93t-16 -120.5t16 -121t44.5 -94t70 -60.5t91.5 -21.5z" />
    <glyph glyph-name="P" unicode="P" horiz-adv-x="600" 
d="M34 0v40h110v568h-110v40h281q72 0 120 -15t76.5 -40t40 -58.5t11.5 -70.5q0 -84 -64 -139t-184 -55h-101v-230h121v-40h-301zM214 310h102q87 0 129 43.5t42 112.5q0 64 -38.5 103t-129.5 39h-105v-298z" />
    <glyph glyph-name="Q" unicode="Q" horiz-adv-x="704" 
d="M352 -16q-63 0 -117.5 25t-94.5 69.5t-63 107.5t-23 138q0 73 23.5 135.5t64 107t95 70t115.5 25.5q63 0 117.5 -24.5t94.5 -69t63 -107.5t23 -138q0 -89 -34 -161t-90 -117q31 -54 51 -74.5t43 -20.5q31 0 47.5 29.5t23.5 79.5h42q-5 -72 -33 -118t-88 -46
q-46 0 -76.5 31.5t-58.5 87.5q-28 -14 -59.5 -22t-65.5 -8zM130 324q0 -81 23 -144t63 -100q-5 26 -0.5 52.5t18.5 47.5t39 34t60 13q55 0 93.5 -39.5t73.5 -97.5q34 38 54 98t20 135q0 66 -16 121t-44.5 93.5t-70 60t-91.5 21.5t-91.5 -21.5t-70 -60t-44.5 -93t-16 -120.5z
M252 109q0 -33 25 -58t88 -25q25 0 48.5 7.5t44.5 20.5q-28 57 -56.5 95t-74.5 38q-34 0 -54.5 -22.5t-20.5 -55.5z" />
    <glyph glyph-name="R" unicode="R" horiz-adv-x="670" 
d="M571 -11q-40 0 -65.5 24.5t-26.5 91.5l-2 79q-1 60 -29 86t-102 26h-132v-256h111v-40h-291v40h110v568h-110v40h317q108 0 166 -46.5t58 -121.5q0 -51 -34.5 -98t-115.5 -63v-2q64 -17 92 -50.5t32 -92.5l7 -90q2 -24 12 -35t26 -11q17 0 29 12.5t22 38.5l25 -13
q-15 -41 -37.5 -64t-61.5 -23zM214 333h127q83 0 119.5 42t36.5 109q0 60 -35.5 92t-107.5 32h-140v-275z" />
    <glyph glyph-name="S" unicode="S" horiz-adv-x="561" 
d="M315 -16q-64 0 -113 24t-89 65l-22 -86h-35v218h33q41 -93 99.5 -138.5t131.5 -45.5q56 0 94.5 32.5t38.5 96.5q0 35 -12 58.5t-35 39t-56 26.5t-76 22q-40 10 -78 23t-67 33t-46.5 51t-17.5 77q0 80 53 131t142 51q54 0 98 -21.5t73 -53.5l20 72h35v-206h-33
q-33 94 -87 133.5t-111 39.5q-50 0 -89 -31.5t-39 -92.5q0 -35 13 -58.5t35 -38.5t52.5 -25t65.5 -19q46 -12 86.5 -25t70.5 -32.5t47.5 -49.5t17.5 -76q0 -85 -56.5 -139.5t-143.5 -54.5z" />
    <glyph glyph-name="T" unicode="T" horiz-adv-x="664" 
d="M183 0v40h114v568h-124q-25 0 -39.5 -7t-23.5 -26.5t-14.5 -55t-13.5 -91.5h-31v220h562v-220h-31q-8 56 -13.5 91.5t-14.5 55t-23.5 26.5t-39.5 7h-124v-568h114v-40h-298z" />
    <glyph glyph-name="U" unicode="U" horiz-adv-x="720" 
d="M358 -16q-122 0 -180.5 59.5t-58.5 152.5v412h-95v40h268v-40h-103v-399q0 -94 49 -135t140 -41q40 0 76 12.5t58 34.5q25 25 37 61t12 91v376h-99v40h234v-40h-89v-396q0 -49 -15.5 -91t-46 -72.5t-77.5 -47.5t-110 -17z" />
    <glyph glyph-name="V" unicode="V" horiz-adv-x="674" 
d="M313 -4l-231 612h-79v40h257v-40h-102l190 -515h2l204 515h-92v40h209v-40h-69l-247 -612h-42z" />
    <glyph glyph-name="W" unicode="W" horiz-adv-x="977" 
d="M278 -4l-193 612h-79v40h249v-40h-96l156 -507h2l153 458l-15 49h-77v40h246v-40h-96l156 -507h2l170 507h-92v40h207v-40h-69l-209 -612h-46l-155 493l-168 -493h-46z" />
    <glyph glyph-name="X" unicode="X" horiz-adv-x="663" 
d="M12 0v40h79l201 285l-186 283h-86v40h262v-40h-92l149 -235l161 235h-98v40h236v-40h-79l-190 -269l197 -299h85v-40h-260v40h91l-159 251l-173 -251h96v-40h-234z" />
    <glyph glyph-name="Y" unicode="Y" horiz-adv-x="628" 
d="M176 0v40h101v234l-192 334h-82v40h257v-40h-90l159 -284l170 284h-84v40h213v-40h-77l-204 -333v-235h101v-40h-272z" />
    <glyph glyph-name="Z" unicode="Z" horiz-adv-x="592" 
d="M37 0v25l419 583h-291q-15 0 -25 -4t-18 -21t-15 -52t-16 -95h-32v212h491v-25l-417 -583h311q15 0 25 5t17.5 23.5t14.5 54.5t16 96h32v-219h-512z" />
    <glyph glyph-name="bracketleft" unicode="[" horiz-adv-x="334" 
d="M89 -149v868h236v-38h-171v-792h171v-38h-236z" />
    <glyph glyph-name="backslash" unicode="\" horiz-adv-x="408" 
d="M405 -203l-386 897h51l386 -897h-51z" />
    <glyph glyph-name="bracketright" unicode="]" horiz-adv-x="334" 
d="M245 -149h-236v38h171v792h-171v38h236v-868z" />
    <glyph glyph-name="asciicircum" unicode="^" horiz-adv-x="472" 
d="M42 287l179 346h31l178 -346h-48l-146 288l-145 -288h-49z" />
    <glyph glyph-name="underscore" unicode="_" horiz-adv-x="440" 
d="M-2 0v45h444v-45h-444z" />
    <glyph glyph-name="grave" unicode="`" horiz-adv-x="238" 
d="M137 523l-64 83q-22 28 -33.5 45.5t-11.5 33.5q0 15 9 23.5t21 8.5q17 0 29 -15.5t27 -52.5l51 -126h-28z" />
    <glyph glyph-name="a" unicode="a" horiz-adv-x="477" 
d="M173 -8q-60 0 -92.5 31.5t-32.5 83.5q0 21 7 41.5t22 35.5q25 25 63.5 38t107.5 25q47 8 59.5 13t12.5 17v42q0 54 -26 75.5t-69 21.5q-29 0 -54.5 -8.5t-39.5 -22.5q13 -7 20 -18t7 -26q0 -21 -13.5 -34.5t-33.5 -13.5q-21 0 -34 13.5t-13 37.5q0 22 14 41t37.5 33.5
t54 23t62.5 8.5q76 0 114 -33t38 -99v-237q0 -28 9 -36.5t21 -8.5q14 0 24 10t20 32l25 -12q-16 -35 -33 -53.5t-51 -18.5q-31 0 -51 19t-21 65h-2q-25 -38 -65 -62t-87 -24zM200 35q45 0 82.5 31t37.5 69v97q-7 -2 -21 -4.5t-31 -5.5q-80 -13 -115 -36.5t-35 -68.5
q0 -41 21.5 -61.5t60.5 -20.5z" />
    <glyph glyph-name="b" unicode="b" horiz-adv-x="510" 
d="M289 -8q-47 0 -88 29t-60 80l-26 -106h-31v652h-76v40h140v-344q27 54 66.5 81.5t85.5 27.5q34 0 59 -11t44 -30q32 -31 48 -78t16 -105t-18 -108t-50 -82q-21 -21 -48 -33.5t-62 -12.5zM276 36q54 0 88 50t34 139q0 87 -33.5 135t-84.5 48q-56 0 -95 -55.5t-39 -141.5
q0 -87 40 -131t90 -44z" />
    <glyph glyph-name="c" unicode="c" horiz-adv-x="464" 
d="M240 -9q-42 0 -78.5 16.5t-63 45.5t-42 69.5t-15.5 88.5q0 53 15.5 97.5t44 76t69 49.5t90.5 18q36 0 66.5 -12t52.5 -30t34.5 -40.5t12.5 -43.5q0 -25 -14.5 -42.5t-37.5 -17.5q-22 0 -35.5 15t-13.5 34q0 16 9.5 29.5t28.5 20.5q-13 19 -39 35t-66 16q-68 0 -108 -55
t-40 -142q0 -85 39.5 -135t104.5 -50q52 0 85 28.5t54 79.5h38q-20 -75 -70 -113t-121 -38z" />
    <glyph glyph-name="d" unicode="d" horiz-adv-x="522" 
d="M210 -8q-34 0 -59 11t-44 30q-32 31 -48 78t-16 105t18 108t50 82q21 21 48 33.5t62 12.5q43 0 81 -24.5t58 -68.5v289h-76v39h140v-647h76v-40h-138v101q-27 -54 -66.5 -81.5t-85.5 -27.5zM230 36q56 0 95 55.5t39 141.5q0 87 -40 131t-90 44q-54 0 -88 -50t-34 -139
q0 -87 33.5 -135t84.5 -48z" />
    <glyph glyph-name="e" unicode="e" horiz-adv-x="465" 
d="M246 -9q-92 0 -148.5 62.5t-56.5 163.5q0 51 16.5 94.5t44 74.5t65 48.5t79.5 17.5q47 0 81.5 -20t56.5 -52.5t32.5 -74.5t9.5 -86h-316q1 -90 42.5 -137t103.5 -47q41 0 75.5 19t54.5 72h37q-21 -66 -67 -100.5t-110 -34.5zM244 416q-52 0 -88.5 -42t-43.5 -115h246
q-5 75 -34.5 116t-79.5 41z" />
    <glyph glyph-name="f" unicode="f" horiz-adv-x="329" 
d="M36 0v40h76v363h-92v40h92v35q0 60 14.5 101.5t39 66.5t56.5 36t66 11q47 0 85 -22.5t38 -62.5q0 -22 -13.5 -37t-32.5 -15q-22 0 -34 13t-12 31q0 17 9.5 28t13.5 13q-9 10 -25.5 14t-32.5 4q-54 0 -81 -39.5t-27 -138.5v-38h134v-40h-134v-363h106v-40h-246z" />
    <glyph glyph-name="g" unicode="g" horiz-adv-x="463" 
d="M212 -156q-89 0 -138 30t-49 74q0 34 26.5 58t68.5 33v2q-40 11 -57 27t-17 40t22.5 43.5t62.5 28.5q-37 19 -57.5 48t-20.5 75q0 35 13.5 62t36.5 45.5t53 28.5t64 10q19 0 39 -4t38 -12q23 42 52 66t62 24q22 0 37 -13t15 -35q0 -18 -11.5 -31t-30.5 -13
q-17 0 -27 11.5t-10 27.5v4.5t1 5.5q-13 -1 -31 -16.5t-32 -43.5q28 -18 47 -47t19 -68q0 -69 -46 -107t-121 -38q-16 0 -32.5 1.5t-29.5 1.5q-25 0 -41.5 -12.5t-16.5 -28.5q0 -21 25.5 -30.5t64.5 -9.5h117q63 0 91.5 -24.5t28.5 -68.5q0 -60 -59 -102.5t-157 -42.5z
M225 192q43 0 68.5 29t25.5 83q0 48 -26.5 81t-74.5 33q-42 0 -69 -28.5t-27 -85.5q0 -56 29.5 -84t73.5 -28zM215 -122q72 0 114 27t42 67q0 28 -19 42.5t-53 14.5h-112q-46 0 -72.5 -20.5t-26.5 -57.5q0 -33 32 -53t95 -20z" />
    <glyph glyph-name="h" unicode="h" horiz-adv-x="544" 
d="M22 0v40h76v608h-76v39h140v-358q40 71 84.5 97t83.5 26q58 0 90 -36t32 -106v-270h76v-40h-210v40h70v234q0 37 -5.5 62.5t-20.5 40.5q-12 13 -27.5 17.5t-32.5 4.5q-28 0 -53.5 -14.5t-44.5 -36t-30.5 -47t-11.5 -46.5v-215h70v-40h-210z" />
    <glyph glyph-name="i" unicode="i" horiz-adv-x="287" 
d="M145 550q-21 0 -35 13.5t-14 35.5q0 21 13.5 35.5t35.5 14.5q19 0 33 -13.5t14 -35.5t-14 -36t-33 -14zM33 0v40h86v363h-86v40h150v-403h86v-40h-236z" />
    <glyph glyph-name="j" unicode="j" horiz-adv-x="273" 
d="M151 550q-21 0 -35 13.5t-14 35.5q0 21 13.5 35.5t35.5 14.5q19 0 33 -13.5t14 -35.5t-14 -36t-33 -14zM58 -160q-40 0 -70.5 22.5t-30.5 54.5q0 22 13.5 37t34.5 15t33 -12t12 -30q0 -16 -8 -27t-18 -18q7 -5 15.5 -8t18.5 -3q29 0 48 26.5t19 83.5v422h-86v40h150v-434
q0 -88 -37 -128.5t-94 -40.5z" />
    <glyph glyph-name="k" unicode="k" horiz-adv-x="507" 
d="M22 0v40h76v608h-76v39h140v-491l196 208h-75v39h194v-40h-67l-124 -128l154 -235h59v-40h-195v39h63l-125 193l-80 -83v-109h67v-40h-207z" />
    <glyph glyph-name="l" unicode="l" horiz-adv-x="272" 
d="M18 0v40h86v608h-86v39h150v-647h86v-40h-236z" />
    <glyph glyph-name="m" unicode="m" horiz-adv-x="826" 
d="M34 0v40h76v363h-76v40h138v-115q41 72 83.5 98t80.5 26q54 0 83.5 -31t33.5 -91q40 70 82 96t81 26q58 0 88 -36.5t30 -106.5v-269h76v-40h-205v40h65v234q0 37 -4.5 63t-20.5 42q-11 11 -25.5 15t-31.5 4q-28 0 -52.5 -14.5t-42.5 -36t-28.5 -46.5t-10.5 -46v-215h65
v-40h-194v40h65v234q0 37 -4.5 63t-20.5 42q-11 11 -25 15t-32 4q-28 0 -52.5 -14.5t-42.5 -36t-28.5 -46.5t-10.5 -46v-215h65v-40h-205z" />
    <glyph glyph-name="n" unicode="n" horiz-adv-x="556" 
d="M34 0v40h76v363h-76v40h138v-115q41 72 86 98t84 26q58 0 90 -36t32 -106v-270h75v-40h-209v40h70v234q0 37 -5.5 62.5t-20.5 40.5q-12 13 -27.5 17.5t-32.5 4.5q-28 0 -53.5 -14.5t-44.5 -36t-30.5 -47t-11.5 -46.5v-215h70v-40h-210z" />
    <glyph glyph-name="o" unicode="o" horiz-adv-x="498" 
d="M249 -9q-44 0 -82 16t-66 45.5t-44 71.5t-16 93q0 52 17 95.5t45 74.5t66 48t80 17q44 0 82 -16t66 -45.5t44 -72t16 -93.5q0 -52 -17 -95.5t-45 -74t-66 -47.5t-80 -17zM252 27q53 0 94.5 48t41.5 147q0 50 -12.5 87t-32.5 60.5t-45.5 35t-51.5 11.5q-53 0 -94.5 -48.5
t-41.5 -147.5q0 -50 12.5 -86.5t32.5 -60t45.5 -35t51.5 -11.5z" />
    <glyph glyph-name="p" unicode="p" horiz-adv-x="524" 
d="M25 -147v40h76v510h-76v40h138v-105q27 58 66.5 86t86.5 28q33 0 58 -10.5t47 -32.5q30 -30 45 -77.5t15 -101.5q0 -55 -17.5 -103.5t-48.5 -79.5q-22 -22 -49.5 -34.5t-62.5 -12.5q-50 0 -85.5 28.5t-52.5 67.5v-203h98v-40h-238zM292 44q51 0 85.5 46.5t34.5 139.5
q0 99 -36 138.5t-79 39.5q-28 0 -52.5 -14.5t-42.5 -40.5t-28.5 -61t-10.5 -75q0 -76 37.5 -124.5t91.5 -48.5z" />
    <glyph glyph-name="q" unicode="q" horiz-adv-x="509" 
d="M263 -147v40h98v221q-27 -58 -66.5 -86t-86.5 -28q-33 0 -58 10.5t-47 32.5q-30 31 -45 78t-15 101q0 55 17.5 103.5t48.5 79.5q22 22 49.5 34.5t62.5 12.5q46 0 87 -29t60 -80l26 106h31v-556h76v-40h-238zM227 44q28 0 52.5 14.5t42.5 40.5t28.5 61t10.5 75
q0 76 -37.5 124.5t-91.5 48.5q-51 0 -85.5 -46.5t-34.5 -139.5q0 -99 36 -138.5t79 -39.5z" />
    <glyph glyph-name="r" unicode="r" horiz-adv-x="391" 
d="M34 0v40h76v363h-76v40h138v-105q25 56 62 84t76 28q31 0 48.5 -19t17.5 -44q0 -21 -13.5 -36.5t-35.5 -15.5q-19 0 -32.5 13t-13.5 33q0 6 1.5 11.5t3.5 10.5q-20 2 -38.5 -8.5t-33 -27t-25.5 -35t-15 -32.5v-260h90v-40h-230z" />
    <glyph glyph-name="s" unicode="s" horiz-adv-x="425" 
d="M45 -9v168h33q18 -63 56.5 -98t96.5 -35q42 0 69.5 20.5t27.5 54.5q0 37 -28.5 56t-94.5 38q-82 23 -117 52.5t-35 78.5t40.5 87.5t105.5 38.5q40 0 72 -14.5t49 -40.5l12 55h32v-152h-31q-24 58 -53 87.5t-81 29.5q-36 0 -62 -19t-26 -51q0 -34 28.5 -54.5t90.5 -37.5
q84 -24 118.5 -51.5t34.5 -81.5q0 -25 -10.5 -48.5t-29.5 -42t-47 -29.5t-62 -11q-49 0 -86 18t-60 47l-11 -65h-32z" />
    <glyph glyph-name="t" unicode="t" horiz-adv-x="341" 
d="M208 -9q-54 0 -81 32.5t-27 89.5v290h-92v40h92v124l64 10v-134h145v-40h-145v-294q0 -34 15 -53t43 -19t46.5 19.5t31.5 61.5l29 -10q-18 -66 -49 -91.5t-72 -25.5z" />
    <glyph glyph-name="u" unicode="u" horiz-adv-x="540" 
d="M213 -9q-57 0 -89 36t-32 106v270h-75v40h139v-274q0 -37 5 -63t21 -42q11 -12 27 -16t32 -4q28 0 53 14.5t43.5 36t29.5 47t11 46.5v215h-79v40h143v-403h76v-40h-138v115q-40 -72 -84.5 -98t-82.5 -26z" />
    <glyph glyph-name="v" unicode="v" horiz-adv-x="479" 
d="M219 -6l-158 409h-61v40h211v-40h-78l118 -327h2l130 327h-73v40h169v-40h-51l-169 -409h-40z" />
    <glyph glyph-name="w" unicode="w" horiz-adv-x="740" 
d="M206 -6l-142 409h-61v40h207v-40h-78l107 -324h2l116 294l-11 30h-61v40h205v-40h-78l112 -324h2l118 324h-73v40h166v-40h-51l-153 -409h-42l-113 320l-130 -320h-42z" />
    <glyph glyph-name="x" unicode="x" horiz-adv-x="473" 
d="M10 0v40h54l140 174l-138 189h-56v40h200v-38h-67l104 -149l114 149h-62v38h164v-40h-51l-141 -175l137 -188h55v-40h-195v38h66l-106 148l-115 -148h60v-38h-163z" />
    <glyph glyph-name="y" unicode="y" horiz-adv-x="476" 
d="M96 -160q-39 0 -59.5 19t-20.5 44q0 23 14.5 39t36.5 16q19 0 32 -12.5t13 -31.5q0 -12 -3.5 -21t-8.5 -16q25 -2 56.5 21t64.5 101q-13 34 -40 101.5t-54 134.5t-47 117.5l-20 50.5h-60v40h210v-40h-78l123 -327l125 327h-72v40h168v-40h-51l-151 -380
q-42 -105 -85.5 -144t-92.5 -39z" />
    <glyph glyph-name="z" unicode="z" horiz-adv-x="479" 
d="M32 0v34l300 374h-196q-28 0 -37.5 -20.5t-20.5 -92.5h-30v148h367v-34l-301 -374h220q26 0 34.5 23t18.5 101h30v-159h-385z" />
    <glyph glyph-name="braceleft" unicode="{" horiz-adv-x="388" 
d="M365 -150q-103 4 -149.5 50t-46.5 121q0 34 7 74t7 75q0 40 -33.5 68t-103.5 28h-30v39h30q70 0 103.5 28t33.5 68q0 35 -7 75t-7 74q0 75 46.5 121t149.5 50v-34q-73 -7 -102.5 -40t-29.5 -85q0 -36 5 -75t5 -76q0 -48 -32.5 -81.5t-87.5 -43.5v-1q55 -10 87.5 -43.5
t32.5 -81.5q0 -37 -5 -76t-5 -75q0 -52 29.5 -85t102.5 -40v-34z" />
    <glyph glyph-name="bar" unicode="|" horiz-adv-x="271" 
d="M113 -203v897h46v-897h-46z" />
    <glyph glyph-name="braceright" unicode="}" horiz-adv-x="388" 
d="M23 721q103 -4 149.5 -50t46.5 -121q0 -34 -7 -74t-7 -75q0 -40 33.5 -68t103.5 -28h30v-39h-30q-70 0 -103.5 -28t-33.5 -68q0 -35 7 -75t7 -74q0 -75 -46.5 -121t-149.5 -50v34q73 7 102.5 40t29.5 85q0 36 -5 75t-5 76q0 48 32.5 81.5t87.5 43.5v1q-55 10 -87.5 43.5
t-32.5 81.5q0 37 5 76t5 75q0 52 -29.5 85t-102.5 40v34z" />
    <glyph glyph-name="asciitilde" unicode="~" horiz-adv-x="668" 
d="M93 201l-41 20q37 104 74 150.5t91 46.5q37 0 68.5 -26.5t59.5 -57.5t55 -57.5t54 -26.5q41 0 67.5 48t53.5 123l41 -20q-37 -104 -74 -150.5t-90 -46.5q-37 0 -69 26.5t-60 57.5t-55 57.5t-54 26.5q-41 0 -67.5 -48t-53.5 -123z" />
    <glyph glyph-name="asciitilde" unicode="&#x223c;" horiz-adv-x="668" 
d="M93 201l-41 20q37 104 74 150.5t91 46.5q37 0 68.5 -26.5t59.5 -57.5t55 -57.5t54 -26.5q41 0 67.5 48t53.5 123l41 -20q-37 -104 -74 -150.5t-90 -46.5q-37 0 -69 26.5t-60 57.5t-55 57.5t-54 26.5q-41 0 -67.5 -48t-53.5 -123z" />
    <glyph glyph-name="uni00A0" unicode="&#xa0;" horiz-adv-x="174" 
 />
    <glyph glyph-name="exclamdown" unicode="&#xa1;" horiz-adv-x="256" 
d="M151 674q21 0 35.5 -14.5t14.5 -35.5t-14.5 -35.5t-35.5 -14.5t-35.5 14.5t-14.5 35.5t14.5 35.5t35.5 14.5zM162 470q3 -71 8 -131.5t9 -114.5q4 -52 9 -106t5 -80t-11.5 -39t-30.5 -13t-30.5 13t-11.5 39q0 27 5 80t9 106q4 54 9 114.5t8 131.5h22z" />
    <glyph glyph-name="cent" unicode="&#xa2;" horiz-adv-x="509" 
d="M266 -102l-37 2l8 93q-74 12 -125 71.5t-51 146.5q0 101 58 168t158 73l9 93l37 -2l-9 -92q71 -6 114.5 -44t43.5 -80q0 -23 -14.5 -40t-37.5 -17q-22 0 -35.5 15t-13.5 34q0 16 9.5 29.5t28.5 20.5q-12 16 -36.5 29.5t-62.5 16.5l-33 -381h2.5h2.5q52 0 89.5 28.5
t58.5 79.5h38q-19 -73 -72 -111.5t-122 -39.5zM130 219q0 -71 31 -118.5t80 -60.5l33 375q-67 -6 -105.5 -60.5t-38.5 -135.5z" />
    <glyph glyph-name="sterling" unicode="&#xa3;" horiz-adv-x="567" 
d="M108 -16q-28 0 -50 18t-22 52q0 33 29.5 63t91.5 30q13 0 26 -2t25 -4q8 25 9.5 42t1.5 27q0 22 -6.5 41t-15.5 37h-141v41h120q-10 22 -18 46t-8 53q0 50 16 89.5t43.5 66t64 40.5t77.5 14q40 0 70.5 -11.5t50 -29.5t29.5 -41t10 -45q0 -28 -15 -47.5t-40 -19.5
q-23 0 -37.5 14.5t-14.5 35.5q0 22 12.5 36.5t33.5 19.5q-12 22 -38 35.5t-63 13.5q-54 0 -95 -34.5t-41 -97.5q0 -38 14 -71t27 -67h189v-41h-177q2 -10 3.5 -20t1.5 -20q0 -19 -5.5 -49.5t-24.5 -67.5q31 -11 58.5 -25t51 -26.5t43 -21t35.5 -8.5q29 0 46 30t27 91l31 -3
q-6 -99 -35 -141t-82 -42q-27 0 -51.5 11t-48 27t-47 33.5t-48.5 30.5q-25 -50 -50 -76.5t-63 -26.5zM76 57q0 -19 11.5 -27.5t23.5 -8.5q29 0 45 24.5t31 55.5q-10 4 -21 6t-22 2q-34 0 -51 -16.5t-17 -35.5z" />
    <glyph glyph-name="yen" unicode="&#xa5;" horiz-adv-x="651" 
d="M172 0v41h118v108h-183v39h183v75h-183v39h162l-162 284h-77v38h244v-38h-87l149 -269l160 269h-82v38h207v-38h-72l-173 -284h161v-39h-182v-75h182v-39h-182v-108h117v-41h-300z" />
    <glyph glyph-name="section" unicode="&#xa7;" horiz-adv-x="508" 
d="M257 -118q-81 0 -133.5 32t-52.5 78q0 25 14 41t36 16t36 -14t14 -32q0 -17 -10 -29.5t-21 -16.5q7 -7 36 -23t83 -16q58 0 86 27t28 60q0 31 -27.5 57t-101.5 50q-93 30 -129 61.5t-36 83.5q0 37 30 71.5t80 54.5v4q-43 19 -68.5 46t-25.5 67q0 26 12 51.5t34 44.5
t54 31t72 12q31 0 60 -8.5t51 -23t35 -33.5t13 -41q0 -24 -13 -39.5t-35 -15.5t-34.5 13.5t-12.5 30.5t9 28.5t19 15.5q-6 7 -28 22t-64 15q-58 0 -86.5 -27.5t-28.5 -59.5q0 -30 26.5 -53t98.5 -47q96 -31 131.5 -62t35.5 -83q0 -38 -29.5 -73.5t-78.5 -54.5v-4
q46 -22 70 -49.5t24 -67.5q0 -26 -11 -51.5t-33 -45t-54.5 -31.5t-74.5 -12zM291 156q42 15 66 43t24 61q0 36 -25.5 58.5t-88.5 41.5l-33 10q-43 -16 -67.5 -43t-24.5 -59q0 -36 24.5 -58.5t89.5 -42.5z" />
    <glyph glyph-name="dieresis" unicode="&#xa8;" horiz-adv-x="322" 
d="M78 546q-19 0 -32 14t-13 34t13 34t32 14t32 -14t13 -34t-13 -34t-32 -14zM244 546q-19 0 -32 14t-13 34t13 34t32 14t32 -14t13 -34t-13 -34t-32 -14z" />
    <glyph glyph-name="copyright" unicode="&#xa9;" horiz-adv-x="787" 
d="M393 -32q-74 0 -139.5 28t-113.5 76.5t-76 115t-28 142.5t28 142t76 114t113.5 76t139.5 28q75 0 140.5 -28t113.5 -76t76 -114t28 -142t-28 -142.5t-76 -115t-113.5 -76.5t-140.5 -28zM393 -1q68 0 127 25.5t102 70t68 105.5t25 130t-25 129t-68 104.5t-102 70
t-127 25.5q-67 0 -125.5 -25.5t-102 -70t-68.5 -104.5t-25 -129t25 -130t68.5 -105.5t102 -70t125.5 -25.5zM394 144q-72 0 -118 51.5t-46 136.5q0 82 48 135.5t118 53.5q37 0 63.5 -13t42.5 -32l11 43h29v-132h-24q-16 49 -44.5 76.5t-74.5 27.5q-57 0 -88 -43.5
t-31 -111.5q0 -77 33.5 -119t88.5 -42q47 0 77 31t38 85h28q-9 -70 -48.5 -108.5t-102.5 -38.5z" />
    <glyph glyph-name="ordfeminine" unicode="&#xaa;" horiz-adv-x="398" 
d="M153 306q-46 0 -71.5 23t-25.5 63q0 14 6 29.5t18 27.5q17 17 46.5 27t80.5 19q33 6 41.5 9.5t8.5 12.5v28q0 37 -18.5 52t-48.5 15q-20 0 -38 -5.5t-28 -13.5q9 -6 14 -14t5 -19q0 -16 -10.5 -26t-27.5 -10q-16 0 -26.5 10t-10.5 27q0 16 11 31t29.5 25.5t41.5 17
t47 6.5q56 0 84 -24.5t28 -73.5v-170q0 -19 7 -25t15 -6t15.5 7t14.5 24l21 -10q-12 -25 -25.5 -40t-39.5 -15q-21 0 -35.5 12.5t-18.5 42.5h-2q-20 -25 -47.5 -41t-60.5 -16zM171 342q33 0 59.5 22t26.5 49v67l-12 -3t-19 -4q-57 -10 -85 -26.5t-28 -47.5q0 -29 16 -43
t42 -14z" />
    <glyph glyph-name="guillemotleft" unicode="&#xab;" horiz-adv-x="486" 
d="M220 33l-147 151q-16 16 -21.5 24.5t-5.5 15.5t5.5 15.5t21.5 24.5l147 151l25 -18l-131 -173l131 -173zM409 33l-147 151q-16 16 -21.5 24.5t-5.5 15.5t5.5 15.5t21.5 24.5l147 151l25 -18l-131 -173l131 -173z" />
    <glyph glyph-name="uni00AD" unicode="&#xad;" horiz-adv-x="0" 
 />
    <glyph glyph-name="registered" unicode="&#xae;" horiz-adv-x="517" 
d="M258 248q-47 0 -87.5 17t-70 46.5t-46.5 70.5t-17 88t17 87.5t46.5 70t70 46t87.5 16.5t88 -16.5t70.5 -46t46.5 -70t17 -87.5t-17 -88t-46.5 -70.5t-70.5 -46.5t-88 -17zM258 274q87 0 139 54.5t52 141.5q0 86 -52 140t-139 54q-85 0 -137.5 -54t-52.5 -140
q0 -87 52.5 -141.5t137.5 -54.5zM348 354q-17 0 -27 11t-12 36l-2 22q-1 19 -11 28t-32 9h-39v-80h37v-21h-109v21h36v185h-36v22h114q51 0 70 -19t19 -41q0 -18 -15.5 -34.5t-50.5 -20.5v-3q28 -4 40.5 -17t14.5 -32l2 -25q1 -10 3.5 -13.5t7.5 -3.5q4 0 8 3.5t8 16.5
l15 -6q-5 -16 -15 -27t-26 -11zM225 480h38q24 0 38 11t14 33q0 21 -13 31t-36 10h-41v-85z" />
    <glyph glyph-name="macron" unicode="&#xaf;" horiz-adv-x="321" 
d="M35 542v53h251v-53h-251z" />
    <glyph glyph-name="degree" unicode="&#xb0;" horiz-adv-x="382" 
d="M190 345q-72 0 -111 46.5t-39 110.5q0 32 11 61t30.5 51t48 35t62.5 13q72 0 111 -46.5t39 -110.5q0 -32 -11 -61t-30.5 -51t-48 -35t-62.5 -13zM193 382q43 0 71 31t28 91q0 57 -30 89t-73 32q-40 0 -69.5 -32.5t-29.5 -89.5t30 -89t73 -32z" />
    <glyph glyph-name="plusminus" unicode="&#xb1;" horiz-adv-x="540" 
d="M250 127v165h-160v38h160v165h42v-165h160v-38h-160v-165h-42zM86 0v40h368v-40h-368z" />
    <glyph glyph-name="two.sup" unicode="&#xb2;" 
d="M101 242q-19 0 -30 15.5t-11 35.5q0 40 35.5 82t110.5 90q51 31 76.5 58.5t25.5 69.5q0 39 -25.5 64.5t-68.5 25.5q-37 0 -63 -17.5t-36 -42.5q15 -4 24 -15.5t9 -27.5q0 -18 -11 -30.5t-30 -12.5t-32 15t-13 40q0 23 11.5 46t32.5 41t50.5 29t66.5 11q72 0 110 -40
t38 -90q0 -48 -36 -81t-99 -67q-61 -34 -90 -63.5t-36 -55.5l1 -1q13 7 29.5 11.5t32.5 4.5q19 0 35 -6t30.5 -13.5t27.5 -13.5t26 -6q25 0 40 23t26 78l28 -3q-7 -84 -34.5 -119t-68.5 -35q-22 0 -40 9.5t-34.5 21.5t-32 21.5t-31.5 9.5q-5 0 -10 -1t-8 -2q3 -4 5 -9.5
t2 -12.5q0 -16 -9 -26.5t-24 -10.5z" />
    <glyph glyph-name="three.sup" unicode="&#xb3;" 
d="M217 242q-65 0 -109 31t-44 72q0 20 13 35t32 15t29 -12.5t10 -28.5q0 -13 -6.5 -24t-15.5 -17q10 -12 32.5 -23.5t57.5 -11.5q49 0 75 27t26 68q0 43 -29 70t-95 27h-19v36h16q63 0 91 26t28 69q0 37 -23.5 59.5t-66.5 22.5q-37 0 -58.5 -13t-31.5 -26q12 -4 20.5 -15
t8.5 -26t-10.5 -28.5t-29.5 -13.5q-18 0 -30.5 14t-12.5 36q0 40 41.5 74t109.5 34q69 0 108 -34.5t39 -80.5q0 -43 -31 -72.5t-87 -42.5v-1q60 -7 93 -36.5t33 -73.5q0 -55 -44.5 -95.5t-119.5 -40.5z" />
    <glyph glyph-name="acute" unicode="&#xb4;" horiz-adv-x="236" 
d="M60 523l51 126q15 37 27 52.5t29 15.5q12 0 21 -8.5t9 -23.5q0 -16 -11.5 -33.5t-33.5 -45.5l-64 -83h-28z" />
    <glyph glyph-name="mu" unicode="&#xb5;" horiz-adv-x="518" 
d="M110 -160q-18 0 -29.5 13t-11.5 44q0 34 6 76.5t6 120.5v349h65v-214q0 -51 10 -88.5t32 -59.5q13 -13 28 -19t34 -6q48 0 76.5 39.5t28.5 106.5v241h65v-342q0 -41 8.5 -51.5t22.5 -10.5t23.5 10t19.5 32l25 -12q-16 -35 -32.5 -53.5t-50.5 -18.5q-28 0 -50.5 18.5
t-22.5 79.5v20q-17 -49 -48 -82t-80 -33q-41 0 -75 27.5t-50 83.5h-2q0 -49 7 -84.5t15 -61t14.5 -44.5t6.5 -36q0 -22 -12.5 -33.5t-28.5 -11.5z" />
    <glyph glyph-name="paragraph" unicode="&#xb6;" horiz-adv-x="632" 
d="M334 -104v275q-129 0 -197.5 62.5t-68.5 158.5q0 40 12.5 77.5t43 66.5t82 47t128.5 18h260v-40h-90v-665h-44v665h-82v-665h-44z" />
    <glyph glyph-name="periodcentered" unicode="&#xb7;" horiz-adv-x="200" 
d="M100 274q-21 0 -35.5 14.5t-14.5 35.5t14.5 35.5t35.5 14.5t35.5 -14.5t14.5 -35.5t-14.5 -35.5t-35.5 -14.5z" />
    <glyph glyph-name="cedilla" unicode="&#xb8;" horiz-adv-x="282" 
d="M113 -233q-25 0 -50 8t-47 22l16 28q19 -11 37.5 -17.5t40.5 -6.5q25 0 41.5 12.5t16.5 35.5q0 25 -21 36.5t-49 11.5q-13 0 -23.5 -2t-17.5 -4l-13 17l96 97h42l-75 -74l1 -2q48 0 78 -21t30 -57q0 -37 -28.5 -60.5t-74.5 -23.5z" />
    <glyph glyph-name="one.sup" unicode="&#xb9;" 
d="M95 254v38h114v338q-13 -5 -32 -8t-39 -3q-11 0 -24 1.5t-20 3.5v31q44 -1 82 14.5t55 43.5h37v-421h108v-38h-281z" />
    <glyph glyph-name="ordmasculine" unicode="&#xba;" horiz-adv-x="412" 
d="M206 306q-64 0 -111 44.5t-47 119.5q0 38 13 69.5t35 54t50.5 35t59.5 12.5q65 0 111.5 -45t46.5 -120q0 -38 -13 -69.5t-34.5 -53.5t-50.5 -34.5t-60 -12.5zM208 337q39 0 70 34t31 104q0 71 -33.5 103t-71.5 32q-39 0 -70 -34t-31 -105q0 -70 33.5 -102t71.5 -32z" />
    <glyph glyph-name="guillemotright" unicode="&#xbb;" horiz-adv-x="486" 
d="M266 415l147 -151q16 -16 21.5 -24.5t5.5 -15.5t-5.5 -15.5t-21.5 -24.5l-147 -151l-25 18l131 173l-131 173zM77 415l147 -151q16 -16 21.5 -24.5t5.5 -15.5t-5.5 -15.5t-21.5 -24.5l-147 -151l-25 18l131 173l-131 173z" />
    <glyph glyph-name="onequarter" unicode="&#xbc;" horiz-adv-x="1085" 
d="M95 179v38h114v338q-13 -5 -32 -8t-39 -3q-11 0 -24 1.5t-20 3.5v31q44 -1 82 14.5t55 43.5h37v-421h108v-38h-281zM296 -82l249 361l247 361h53l-249 -361l-247 -361h-53zM832 -70v36h73v94h-217v36l195 295h78v-293h80v-38h-80v-94h60v-36h-189zM736 98h169v243h-10
l-159 -242v-1z" />
    <glyph glyph-name="onehalf" unicode="&#xbd;" horiz-adv-x="1110" 
d="M95 179v38h114v338q-13 -5 -32 -8t-39 -3q-11 0 -24 1.5t-20 3.5v31q44 -1 82 14.5t55 43.5h37v-421h108v-38h-281zM296 -82l249 361l247 361h53l-249 -361l-247 -361h-53zM766 -82q-19 0 -30 15.5t-11 35.5q0 40 35.5 82t110.5 90q51 31 76.5 58.5t25.5 69.5
q0 39 -25.5 64.5t-68.5 25.5q-37 0 -63 -17.5t-36 -42.5q15 -4 24 -15.5t9 -27.5q0 -18 -11 -30.5t-30 -12.5t-32 15t-13 40q0 23 11.5 46t32.5 41t50.5 29t66.5 11q72 0 110 -40t38 -90q0 -48 -36 -81t-99 -67q-61 -34 -90 -63.5t-36 -55.5l1 -1q13 7 29.5 11.5t32.5 4.5
q19 0 35 -6t30.5 -13.5t27.5 -13.5t26 -6q25 0 40 23t26 78l28 -3q-7 -84 -34.5 -119t-68.5 -35q-22 0 -40 9.5t-34.5 21.5t-32 21.5t-31.5 9.5q-5 0 -10 -1t-8 -2q3 -4 5 -9.5t2 -12.5q0 -16 -9 -26.5t-24 -10.5z" />
    <glyph glyph-name="threequarters" unicode="&#xbe;" horiz-adv-x="1055" 
d="M217 167q-65 0 -109 31t-44 72q0 20 13 35t32 15t29 -12.5t10 -28.5q0 -13 -6.5 -24t-15.5 -17q10 -12 32.5 -23.5t57.5 -11.5q49 0 75 27t26 68q0 43 -29 70t-95 27h-19v36h16q63 0 91 26t28 69q0 37 -23.5 59.5t-66.5 22.5q-37 0 -58.5 -13t-31.5 -26q12 -4 20.5 -15
t8.5 -26t-10.5 -28.5t-29.5 -13.5q-18 0 -30.5 14t-12.5 36q0 40 41.5 74t109.5 34q69 0 108 -34.5t39 -80.5q0 -43 -31 -72.5t-87 -42.5v-1q60 -7 93 -36.5t33 -73.5q0 -55 -44.5 -95.5t-119.5 -40.5zM266 -82l249 361l247 361h53l-249 -361l-247 -361h-53zM802 -70v36h73
v94h-217v36l195 295h78v-293h80v-38h-80v-94h60v-36h-189zM706 98h169v243h-10l-159 -242v-1z" />
    <glyph glyph-name="questiondown" unicode="&#xbf;" horiz-adv-x="411" 
d="M215 674q21 0 35.5 -14.5t14.5 -35.5t-14.5 -35.5t-35.5 -14.5t-35.5 14.5t-14.5 35.5t14.5 35.5t35.5 14.5zM232 470q1 -59 -14 -98.5t-49 -82.5q-41 -50 -57.5 -79t-16.5 -72q0 -48 32 -82t84 -34q41 0 70 19t41 42q-21 4 -34.5 17.5t-13.5 35.5t14.5 37.5t37.5 15.5
q25 0 40 -18t15 -43q0 -28 -14 -53.5t-38 -45t-56 -31.5t-67 -12q-87 0 -134.5 44.5t-47.5 107.5q0 50 23.5 88t77.5 87q40 36 58 72t21 85h28z" />
    <glyph glyph-name="Agrave" unicode="&#xc0;" horiz-adv-x="672" 
d="M3 0v40h69l245 613h45l228 -613h79v-40h-257v40h102l-72 198h-245l-77 -198h92v-40h-209zM323 559l-111 -283h216l-103 283h-2zM347 736l-64 83q-22 28 -33.5 45.5t-11.5 33.5q0 15 9 23.5t21 8.5q17 0 29 -15.5t27 -52.5l51 -126h-28z" />
    <glyph glyph-name="Aacute" unicode="&#xc1;" horiz-adv-x="672" 
d="M3 0v40h69l245 613h45l228 -613h79v-40h-257v40h102l-72 198h-245l-77 -198h92v-40h-209zM323 559l-111 -283h216l-103 283h-2zM320 736l51 126q15 37 27 52.5t29 15.5q12 0 21 -8.5t9 -23.5q0 -16 -11.5 -33.5t-33.5 -45.5l-64 -83h-28z" />
    <glyph glyph-name="Acircumflex" unicode="&#xc2;" horiz-adv-x="672" 
d="M3 0v40h69l245 613h45l228 -613h79v-40h-257v40h102l-72 198h-245l-77 -198h92v-40h-209zM323 559l-111 -283h216l-103 283h-2zM217 737l106 179h34l106 -179h-31l-92 108l-92 -108h-31z" />
    <glyph glyph-name="Atilde" unicode="&#xc3;" horiz-adv-x="672" 
d="M3 0v40h69l245 613h45l228 -613h79v-40h-257v40h102l-72 198h-245l-77 -198h92v-40h-209zM323 559l-111 -283h216l-103 283h-2zM198 742q9 68 29.5 95t52.5 27q20 0 37.5 -10.5t32.5 -22.5t29.5 -22.5t28.5 -10.5q22 0 31.5 20t14.5 49h29q-9 -68 -29.5 -95t-52.5 -27
q-20 0 -37.5 10.5t-32.5 22.5t-29.5 22.5t-28.5 10.5q-22 0 -31.5 -20t-14.5 -49h-29z" />
    <glyph glyph-name="Adieresis" unicode="&#xc4;" horiz-adv-x="672" 
d="M3 0v40h69l245 613h45l228 -613h79v-40h-257v40h102l-72 198h-245l-77 -198h92v-40h-209zM323 559l-111 -283h216l-103 283h-2zM257 759q-19 0 -32 14t-13 34t13 34t32 14t32 -14t13 -34t-13 -34t-32 -14zM423 759q-19 0 -32 14t-13 34t13 34t32 14t32 -14t13 -34
t-13 -34t-32 -14z" />
    <glyph glyph-name="Aring" unicode="&#xc5;" horiz-adv-x="672" 
d="M3 0v40h69l230 576q-34 10 -52 37t-18 58q0 37 27 68.5t78 31.5t78 -31.5t27 -68.5q0 -30 -17 -57t-50 -37l215 -577h79v-40h-257v40h102l-72 198h-245l-77 -198h92v-40h-209zM337 641q28 0 44 20t16 50t-16 50t-44 20t-44 -20t-16 -50t16 -50t44 -20zM323 559l-111 -283
h216l-103 283h-2z" />
    <glyph glyph-name="AE" unicode="&#xc6;" horiz-adv-x="932" 
d="M-17 0v40h79l318 568h-106v40h590v-196h-32q-7 51 -13 82t-14.5 47t-20.5 21.5t-31 5.5h-247v-257h123q36 0 46.5 16.5t18.5 82.5h31v-238h-31q-4 35 -8 55.5t-10.5 31t-17.5 13.5t-29 3h-123v-275h247q22 0 36 5.5t22.5 24t15 53.5t14.5 93h32v-216h-547v40h110v208
h-207l-116 -208h95v-40h-225zM251 286h185v322h-5z" />
    <glyph glyph-name="Ccedilla" unicode="&#xc7;" horiz-adv-x="674" 
d="M347 -16q-65 0 -119 24.5t-92.5 68.5t-60 107t-21.5 139q0 74 23 136.5t62.5 107.5t94.5 70.5t118 25.5q68 0 114.5 -23.5t76.5 -57.5l20 78h40v-238h-34q-28 93 -79 144t-140 51q-49 0 -90 -21t-69.5 -58.5t-44.5 -90.5t-16 -118q0 -72 17.5 -128t48.5 -93.5t73 -57
t91 -19.5q87 0 142.5 58.5t70.5 159.5h45q-15 -115 -73 -182t-153 -80l-57 -56l1 -2q48 0 78 -21t30 -57q0 -37 -28.5 -60.5t-74.5 -23.5q-25 0 -50 8t-47 22l16 28q19 -11 37.5 -17.5t40.5 -6.5q25 0 41.5 12.5t16.5 35.5q0 25 -21 36.5t-49 11.5q-13 0 -23.5 -2t-17.5 -4
l-13 17l75 76v0z" />
    <glyph glyph-name="Egrave" unicode="&#xc8;" horiz-adv-x="640" 
d="M34 0v40h110v568h-110v40h538v-196h-32q-7 51 -13 82t-14.5 47t-20.5 21.5t-31 5.5h-247v-257h123q36 0 46.5 16.5t18.5 82.5h31v-238h-31q-4 35 -8 55.5t-10.5 31t-17.5 13.5t-29 3h-123v-275h247q22 0 36 5.5t22.5 24t15 53.5t14.5 93h32v-216h-547zM357 736l-64 83
q-22 28 -33.5 45.5t-11.5 33.5q0 15 9 23.5t21 8.5q17 0 29 -15.5t27 -52.5l51 -126h-28z" />
    <glyph glyph-name="Eacute" unicode="&#xc9;" horiz-adv-x="640" 
d="M34 0v40h110v568h-110v40h538v-196h-32q-7 51 -13 82t-14.5 47t-20.5 21.5t-31 5.5h-247v-257h123q36 0 46.5 16.5t18.5 82.5h31v-238h-31q-4 35 -8 55.5t-10.5 31t-17.5 13.5t-29 3h-123v-275h247q22 0 36 5.5t22.5 24t15 53.5t14.5 93h32v-216h-547zM330 736l51 126
q15 37 27 52.5t29 15.5q12 0 21 -8.5t9 -23.5q0 -16 -11.5 -33.5t-33.5 -45.5l-64 -83h-28z" />
    <glyph glyph-name="Ecircumflex" unicode="&#xca;" horiz-adv-x="640" 
d="M34 0v40h110v568h-110v40h538v-196h-32q-7 51 -13 82t-14.5 47t-20.5 21.5t-31 5.5h-247v-257h123q36 0 46.5 16.5t18.5 82.5h31v-238h-31q-4 35 -8 55.5t-10.5 31t-17.5 13.5t-29 3h-123v-275h247q22 0 36 5.5t22.5 24t15 53.5t14.5 93h32v-216h-547zM227 737l106 179
h34l106 -179h-31l-92 108l-92 -108h-31z" />
    <glyph glyph-name="Edieresis" unicode="&#xcb;" horiz-adv-x="640" 
d="M34 0v40h110v568h-110v40h538v-196h-32q-7 51 -13 82t-14.5 47t-20.5 21.5t-31 5.5h-247v-257h123q36 0 46.5 16.5t18.5 82.5h31v-238h-31q-4 35 -8 55.5t-10.5 31t-17.5 13.5t-29 3h-123v-275h247q22 0 36 5.5t22.5 24t15 53.5t14.5 93h32v-216h-547zM267 759
q-19 0 -32 14t-13 34t13 34t32 14t32 -14t13 -34t-13 -34t-32 -14zM433 759q-19 0 -32 14t-13 34t13 34t32 14t32 -14t13 -34t-13 -34t-32 -14z" />
    <glyph glyph-name="Igrave" unicode="&#xcc;" horiz-adv-x="366" 
d="M38 0v40h110v568h-110v40h290v-40h-110v-568h110v-40h-290zM191 736l-64 83q-22 28 -33.5 45.5t-11.5 33.5q0 15 9 23.5t21 8.5q17 0 29 -15.5t27 -52.5l51 -126h-28z" />
    <glyph glyph-name="Iacute" unicode="&#xcd;" horiz-adv-x="366" 
d="M38 0v40h110v568h-110v40h290v-40h-110v-568h110v-40h-290zM164 736l51 126q15 37 27 52.5t29 15.5q12 0 21 -8.5t9 -23.5q0 -16 -11.5 -33.5t-33.5 -45.5l-64 -83h-28z" />
    <glyph glyph-name="Icircumflex" unicode="&#xce;" horiz-adv-x="366" 
d="M38 0v40h110v568h-110v40h290v-40h-110v-568h110v-40h-290zM61 737l106 179h34l106 -179h-31l-92 108l-92 -108h-31z" />
    <glyph glyph-name="Idieresis" unicode="&#xcf;" horiz-adv-x="366" 
d="M38 0v40h110v568h-110v40h290v-40h-110v-568h110v-40h-290zM101 759q-19 0 -32 14t-13 34t13 34t32 14t32 -14t13 -34t-13 -34t-32 -14zM267 759q-19 0 -32 14t-13 34t13 34t32 14t32 -14t13 -34t-13 -34t-32 -14z" />
    <glyph glyph-name="Eth" unicode="&#xd0;" horiz-adv-x="690" 
d="M34 0v40h110v280h-110v40h110v248h-110v40h259q88 0 153 -22.5t107.5 -63.5t63.5 -99t21 -129t-20 -132t-61.5 -106t-106.5 -70.5t-153 -25.5h-263zM214 40h87q135 0 198 75.5t63 218.5q0 127 -64 200.5t-202 73.5h-82v-248h148v-40h-148v-280z" />
    <glyph glyph-name="Ntilde" unicode="&#xd1;" horiz-adv-x="747" 
d="M587 -16l-400 579h-2v-523h97v-40h-248v40h105v568h-105v40h178l365 -529h2v489h-99v40h243v-40h-98v-624h-38zM238 742q9 68 29.5 95t52.5 27q20 0 37.5 -10.5t32.5 -22.5t29.5 -22.5t28.5 -10.5q22 0 31.5 20t14.5 49h29q-9 -68 -29.5 -95t-52.5 -27q-20 0 -37.5 10.5
t-32.5 22.5t-29.5 22.5t-28.5 10.5q-22 0 -31.5 -20t-14.5 -49h-29z" />
    <glyph glyph-name="Ograve" unicode="&#xd2;" horiz-adv-x="704" 
d="M352 -16q-63 0 -117.5 25t-94.5 69.5t-63 107.5t-23 138q0 72 23 134t62.5 107t94.5 71t118 26q65 0 119.5 -25.5t94 -70.5t62 -107.5t22.5 -135.5q0 -74 -23.5 -136.5t-64 -107t-95 -70t-115.5 -25.5zM352 27q101 0 161.5 81t60.5 215q0 66 -16 121t-44.5 93.5t-70 60
t-91.5 21.5t-91.5 -21.5t-70 -60t-44.5 -93t-16 -120.5t16 -121t44.5 -94t70 -60.5t91.5 -21.5zM359 736l-64 83q-22 28 -33.5 45.5t-11.5 33.5q0 15 9 23.5t21 8.5q17 0 29 -15.5t27 -52.5l51 -126h-28z" />
    <glyph glyph-name="Oacute" unicode="&#xd3;" horiz-adv-x="704" 
d="M352 -16q-63 0 -117.5 25t-94.5 69.5t-63 107.5t-23 138q0 72 23 134t62.5 107t94.5 71t118 26q65 0 119.5 -25.5t94 -70.5t62 -107.5t22.5 -135.5q0 -74 -23.5 -136.5t-64 -107t-95 -70t-115.5 -25.5zM352 27q101 0 161.5 81t60.5 215q0 66 -16 121t-44.5 93.5t-70 60
t-91.5 21.5t-91.5 -21.5t-70 -60t-44.5 -93t-16 -120.5t16 -121t44.5 -94t70 -60.5t91.5 -21.5zM332 736l51 126q15 37 27 52.5t29 15.5q12 0 21 -8.5t9 -23.5q0 -16 -11.5 -33.5t-33.5 -45.5l-64 -83h-28z" />
    <glyph glyph-name="Ocircumflex" unicode="&#xd4;" horiz-adv-x="704" 
d="M352 -16q-63 0 -117.5 25t-94.5 69.5t-63 107.5t-23 138q0 72 23 134t62.5 107t94.5 71t118 26q65 0 119.5 -25.5t94 -70.5t62 -107.5t22.5 -135.5q0 -74 -23.5 -136.5t-64 -107t-95 -70t-115.5 -25.5zM352 27q101 0 161.5 81t60.5 215q0 66 -16 121t-44.5 93.5t-70 60
t-91.5 21.5t-91.5 -21.5t-70 -60t-44.5 -93t-16 -120.5t16 -121t44.5 -94t70 -60.5t91.5 -21.5zM229 737l106 179h34l106 -179h-31l-92 108l-92 -108h-31z" />
    <glyph glyph-name="Otilde" unicode="&#xd5;" horiz-adv-x="704" 
d="M352 -16q-63 0 -117.5 25t-94.5 69.5t-63 107.5t-23 138q0 72 23 134t62.5 107t94.5 71t118 26q65 0 119.5 -25.5t94 -70.5t62 -107.5t22.5 -135.5q0 -74 -23.5 -136.5t-64 -107t-95 -70t-115.5 -25.5zM352 27q101 0 161.5 81t60.5 215q0 66 -16 121t-44.5 93.5t-70 60
t-91.5 21.5t-91.5 -21.5t-70 -60t-44.5 -93t-16 -120.5t16 -121t44.5 -94t70 -60.5t91.5 -21.5zM210 742q9 68 29.5 95t52.5 27q20 0 37.5 -10.5t32.5 -22.5t29.5 -22.5t28.5 -10.5q22 0 31.5 20t14.5 49h29q-9 -68 -29.5 -95t-52.5 -27q-20 0 -37.5 10.5t-32.5 22.5
t-29.5 22.5t-28.5 10.5q-22 0 -31.5 -20t-14.5 -49h-29z" />
    <glyph glyph-name="Odieresis" unicode="&#xd6;" horiz-adv-x="704" 
d="M352 -16q-63 0 -117.5 25t-94.5 69.5t-63 107.5t-23 138q0 72 23 134t62.5 107t94.5 71t118 26q65 0 119.5 -25.5t94 -70.5t62 -107.5t22.5 -135.5q0 -74 -23.5 -136.5t-64 -107t-95 -70t-115.5 -25.5zM352 27q101 0 161.5 81t60.5 215q0 66 -16 121t-44.5 93.5t-70 60
t-91.5 21.5t-91.5 -21.5t-70 -60t-44.5 -93t-16 -120.5t16 -121t44.5 -94t70 -60.5t91.5 -21.5zM269 759q-19 0 -32 14t-13 34t13 34t32 14t32 -14t13 -34t-13 -34t-32 -14zM435 759q-19 0 -32 14t-13 34t13 34t32 14t32 -14t13 -34t-13 -34t-32 -14z" />
    <glyph glyph-name="multiply" unicode="&#xd7;" horiz-adv-x="506" 
d="M108 133l-29 29l145 149l-147 151l29 29l147 -151l145 149l29 -29l-145 -149l147 -151l-29 -29l-147 151z" />
    <glyph glyph-name="Oslash" unicode="&#xd8;" horiz-adv-x="704" 
d="M60 -34l82 109q-41 45 -64.5 109t-23.5 140q0 73 23.5 135.5t64 107t95 70t115.5 25.5q51 0 98.5 -17.5t84.5 -48.5l60 84h49l-83 -109q41 -45 65 -108.5t24 -139.5q0 -74 -23.5 -136.5t-64 -107t-95 -70t-115.5 -25.5q-52 0 -99 17.5t-84 48.5l-60 -84h-49zM182 121
l317 433q-28 31 -65 48t-82 17q-50 0 -91.5 -21.5t-70 -60t-44.5 -93t-16 -120.5q0 -62 13.5 -113.5t38.5 -89.5zM352 27q101 0 161.5 81t60.5 215q0 61 -13.5 112.5t-38.5 89.5l-318 -433q28 -31 65.5 -48t82.5 -17z" />
    <glyph glyph-name="Ugrave" unicode="&#xd9;" horiz-adv-x="720" 
d="M358 -16q-122 0 -180.5 59.5t-58.5 152.5v412h-95v40h268v-40h-103v-399q0 -94 49 -135t140 -41q40 0 76 12.5t58 34.5q25 25 37 61t12 91v376h-99v40h234v-40h-89v-396q0 -49 -15.5 -91t-46 -72.5t-77.5 -47.5t-110 -17zM382 736l-64 83q-22 28 -33.5 45.5t-11.5 33.5
q0 15 9 23.5t21 8.5q17 0 29 -15.5t27 -52.5l51 -126h-28z" />
    <glyph glyph-name="Uacute" unicode="&#xda;" horiz-adv-x="720" 
d="M358 -16q-122 0 -180.5 59.5t-58.5 152.5v412h-95v40h268v-40h-103v-399q0 -94 49 -135t140 -41q40 0 76 12.5t58 34.5q25 25 37 61t12 91v376h-99v40h234v-40h-89v-396q0 -49 -15.5 -91t-46 -72.5t-77.5 -47.5t-110 -17zM355 736l51 126q15 37 27 52.5t29 15.5
q12 0 21 -8.5t9 -23.5q0 -16 -11.5 -33.5t-33.5 -45.5l-64 -83h-28z" />
    <glyph glyph-name="Ucircumflex" unicode="&#xdb;" horiz-adv-x="720" 
d="M358 -16q-122 0 -180.5 59.5t-58.5 152.5v412h-95v40h268v-40h-103v-399q0 -94 49 -135t140 -41q40 0 76 12.5t58 34.5q25 25 37 61t12 91v376h-99v40h234v-40h-89v-396q0 -49 -15.5 -91t-46 -72.5t-77.5 -47.5t-110 -17zM252 737l106 179h34l106 -179h-31l-92 108
l-92 -108h-31z" />
    <glyph glyph-name="Udieresis" unicode="&#xdc;" horiz-adv-x="720" 
d="M358 -16q-122 0 -180.5 59.5t-58.5 152.5v412h-95v40h268v-40h-103v-399q0 -94 49 -135t140 -41q40 0 76 12.5t58 34.5q25 25 37 61t12 91v376h-99v40h234v-40h-89v-396q0 -49 -15.5 -91t-46 -72.5t-77.5 -47.5t-110 -17zM292 759q-19 0 -32 14t-13 34t13 34t32 14
t32 -14t13 -34t-13 -34t-32 -14zM458 759q-19 0 -32 14t-13 34t13 34t32 14t32 -14t13 -34t-13 -34t-32 -14z" />
    <glyph glyph-name="Yacute" unicode="&#xdd;" horiz-adv-x="628" 
d="M176 0v40h101v234l-192 334h-82v40h257v-40h-90l159 -284l170 284h-84v40h213v-40h-77l-204 -333v-235h101v-40h-272zM310 736l51 126q15 37 27 52.5t29 15.5q12 0 21 -8.5t9 -23.5q0 -16 -11.5 -33.5t-33.5 -45.5l-64 -83h-28z" />
    <glyph glyph-name="Thorn" unicode="&#xde;" horiz-adv-x="600" 
d="M34 0v40h110v568h-110v40h290v-40h-110v-82h101q72 0 120 -15t76.5 -40t40 -57.5t11.5 -67.5q0 -81 -64 -135.5t-184 -54.5h-101v-116h110v-40h-290zM214 196h102q87 0 129 43t42 109q0 61 -38.5 99.5t-129.5 38.5h-105v-290z" />
    <glyph glyph-name="germandbls" unicode="&#xdf;" horiz-adv-x="531" 
d="M361 -9q-23 0 -46 6t-41.5 17t-30 28.5t-11.5 39.5q0 24 14.5 38t33.5 14q22 0 34.5 -13t12.5 -30t-8 -28t-16 -16q10 -10 27.5 -14.5t33.5 -4.5q50 0 72.5 27.5t22.5 55.5q0 20 -14.5 46.5t-70.5 60.5q-60 37 -87.5 62t-27.5 66q0 28 18 49t47 50q35 34 47.5 58.5
t12.5 55.5q0 42 -27 69.5t-70 27.5q-53 0 -82 -39t-29 -129v-488h-140v40h76v363h-92v40h92v35q0 60 15 101.5t39.5 66.5t56.5 36t66 11q31 0 59.5 -11t50 -30t34.5 -44.5t13 -54.5q0 -39 -21 -68.5t-61 -59.5q-33 -24 -43 -38t-10 -27q0 -18 17 -33t74 -49
q50 -30 79.5 -60.5t29.5 -86.5q0 -25 -9.5 -50.5t-28 -45t-47 -32t-65.5 -12.5z" />
    <glyph glyph-name="agrave" unicode="&#xe0;" horiz-adv-x="477" 
d="M173 -8q-60 0 -92.5 31.5t-32.5 83.5q0 21 7 41.5t22 35.5q25 25 63.5 38t107.5 25q47 8 59.5 13t12.5 17v42q0 54 -26 75.5t-69 21.5q-29 0 -54.5 -8.5t-39.5 -22.5q13 -7 20 -18t7 -26q0 -21 -13.5 -34.5t-33.5 -13.5q-21 0 -34 13.5t-13 37.5q0 22 14 41t37.5 33.5
t54 23t62.5 8.5q76 0 114 -33t38 -99v-237q0 -28 9 -36.5t21 -8.5q14 0 24 10t20 32l25 -12q-16 -35 -33 -53.5t-51 -18.5q-31 0 -51 19t-21 65h-2q-25 -38 -65 -62t-87 -24zM200 35q45 0 82.5 31t37.5 69v97q-7 -2 -21 -4.5t-31 -5.5q-80 -13 -115 -36.5t-35 -68.5
q0 -41 21.5 -61.5t60.5 -20.5zM247 523l-64 83q-22 28 -33.5 45.5t-11.5 33.5q0 15 9 23.5t21 8.5q17 0 29 -15.5t27 -52.5l51 -126h-28z" />
    <glyph glyph-name="aacute" unicode="&#xe1;" horiz-adv-x="477" 
d="M173 -8q-60 0 -92.5 31.5t-32.5 83.5q0 21 7 41.5t22 35.5q25 25 63.5 38t107.5 25q47 8 59.5 13t12.5 17v42q0 54 -26 75.5t-69 21.5q-29 0 -54.5 -8.5t-39.5 -22.5q13 -7 20 -18t7 -26q0 -21 -13.5 -34.5t-33.5 -13.5q-21 0 -34 13.5t-13 37.5q0 22 14 41t37.5 33.5
t54 23t62.5 8.5q76 0 114 -33t38 -99v-237q0 -28 9 -36.5t21 -8.5q14 0 24 10t20 32l25 -12q-16 -35 -33 -53.5t-51 -18.5q-31 0 -51 19t-21 65h-2q-25 -38 -65 -62t-87 -24zM200 35q45 0 82.5 31t37.5 69v97q-7 -2 -21 -4.5t-31 -5.5q-80 -13 -115 -36.5t-35 -68.5
q0 -41 21.5 -61.5t60.5 -20.5zM220 523l51 126q15 37 27 52.5t29 15.5q12 0 21 -8.5t9 -23.5q0 -16 -11.5 -33.5t-33.5 -45.5l-64 -83h-28z" />
    <glyph glyph-name="acircumflex" unicode="&#xe2;" horiz-adv-x="477" 
d="M173 -8q-60 0 -92.5 31.5t-32.5 83.5q0 21 7 41.5t22 35.5q25 25 63.5 38t107.5 25q47 8 59.5 13t12.5 17v42q0 54 -26 75.5t-69 21.5q-29 0 -54.5 -8.5t-39.5 -22.5q13 -7 20 -18t7 -26q0 -21 -13.5 -34.5t-33.5 -13.5q-21 0 -34 13.5t-13 37.5q0 22 14 41t37.5 33.5
t54 23t62.5 8.5q76 0 114 -33t38 -99v-237q0 -28 9 -36.5t21 -8.5q14 0 24 10t20 32l25 -12q-16 -35 -33 -53.5t-51 -18.5q-31 0 -51 19t-21 65h-2q-25 -38 -65 -62t-87 -24zM200 35q45 0 82.5 31t37.5 69v97q-7 -2 -21 -4.5t-31 -5.5q-80 -13 -115 -36.5t-35 -68.5
q0 -41 21.5 -61.5t60.5 -20.5zM117 524l106 179h34l106 -179h-31l-92 108l-92 -108h-31z" />
    <glyph glyph-name="atilde" unicode="&#xe3;" horiz-adv-x="477" 
d="M173 -8q-60 0 -92.5 31.5t-32.5 83.5q0 21 7 41.5t22 35.5q25 25 63.5 38t107.5 25q47 8 59.5 13t12.5 17v42q0 54 -26 75.5t-69 21.5q-29 0 -54.5 -8.5t-39.5 -22.5q13 -7 20 -18t7 -26q0 -21 -13.5 -34.5t-33.5 -13.5q-21 0 -34 13.5t-13 37.5q0 22 14 41t37.5 33.5
t54 23t62.5 8.5q76 0 114 -33t38 -99v-237q0 -28 9 -36.5t21 -8.5q14 0 24 10t20 32l25 -12q-16 -35 -33 -53.5t-51 -18.5q-31 0 -51 19t-21 65h-2q-25 -38 -65 -62t-87 -24zM200 35q45 0 82.5 31t37.5 69v97q-7 -2 -21 -4.5t-31 -5.5q-80 -13 -115 -36.5t-35 -68.5
q0 -41 21.5 -61.5t60.5 -20.5zM98 529q9 68 29.5 95t52.5 27q20 0 37.5 -10.5t32.5 -22.5t29.5 -22.5t28.5 -10.5q22 0 31.5 20t14.5 49h29q-9 -68 -29.5 -95t-52.5 -27q-20 0 -37.5 10.5t-32.5 22.5t-29.5 22.5t-28.5 10.5q-22 0 -31.5 -20t-14.5 -49h-29z" />
    <glyph glyph-name="adieresis" unicode="&#xe4;" horiz-adv-x="477" 
d="M173 -8q-60 0 -92.5 31.5t-32.5 83.5q0 21 7 41.5t22 35.5q25 25 63.5 38t107.5 25q47 8 59.5 13t12.5 17v42q0 54 -26 75.5t-69 21.5q-29 0 -54.5 -8.5t-39.5 -22.5q13 -7 20 -18t7 -26q0 -21 -13.5 -34.5t-33.5 -13.5q-21 0 -34 13.5t-13 37.5q0 22 14 41t37.5 33.5
t54 23t62.5 8.5q76 0 114 -33t38 -99v-237q0 -28 9 -36.5t21 -8.5q14 0 24 10t20 32l25 -12q-16 -35 -33 -53.5t-51 -18.5q-31 0 -51 19t-21 65h-2q-25 -38 -65 -62t-87 -24zM200 35q45 0 82.5 31t37.5 69v97q-7 -2 -21 -4.5t-31 -5.5q-80 -13 -115 -36.5t-35 -68.5
q0 -41 21.5 -61.5t60.5 -20.5zM157 546q-19 0 -32 14t-13 34t13 34t32 14t32 -14t13 -34t-13 -34t-32 -14zM323 546q-19 0 -32 14t-13 34t13 34t32 14t32 -14t13 -34t-13 -34t-32 -14z" />
    <glyph glyph-name="aring" unicode="&#xe5;" horiz-adv-x="477" 
d="M173 -8q-60 0 -92.5 31.5t-32.5 83.5q0 21 7 41.5t22 35.5q25 25 63.5 38t107.5 25q47 8 59.5 13t12.5 17v42q0 54 -26 75.5t-69 21.5q-29 0 -54.5 -8.5t-39.5 -22.5q13 -7 20 -18t7 -26q0 -21 -13.5 -34.5t-33.5 -13.5q-21 0 -34 13.5t-13 37.5q0 22 14 41t37.5 33.5
t54 23t62.5 8.5q76 0 114 -33t38 -99v-237q0 -28 9 -36.5t21 -8.5q14 0 24 10t20 32l25 -12q-16 -35 -33 -53.5t-51 -18.5q-31 0 -51 19t-21 65h-2q-25 -38 -65 -62t-87 -24zM200 35q45 0 82.5 31t37.5 69v97q-7 -2 -21 -4.5t-31 -5.5q-80 -13 -115 -36.5t-35 -68.5
q0 -41 21.5 -61.5t60.5 -20.5zM240 517q-51 0 -78 31.5t-27 68.5t27 68.5t78 31.5t78 -31.5t27 -68.5t-27 -68.5t-78 -31.5zM240 547q28 0 44 20t16 50t-16 50t-44 20t-44 -20t-16 -50t16 -50t44 -20z" />
    <glyph glyph-name="ae" unicode="&#xe6;" horiz-adv-x="735" 
d="M173 -8q-60 0 -92.5 31.5t-32.5 83.5q0 21 7 41.5t22 35.5q25 25 63.5 38t107.5 25q47 8 59.5 13t12.5 17v42q0 54 -26 75.5t-69 21.5q-29 0 -54.5 -8.5t-39.5 -22.5q13 -7 20 -18t7 -26q0 -21 -13.5 -34.5t-33.5 -13.5q-21 0 -34 13.5t-13 37.5q0 22 14 41t37.5 33.5
t54 23t62.5 8.5q54 0 89 -17t50 -51q28 33 65 51.5t80 18.5q47 0 81.5 -20t56.5 -52.5t32.5 -74.5t9.5 -86h-312q1 -90 41.5 -137t100.5 -47q41 0 75.5 19t54.5 72h37q-21 -66 -67 -100.5t-110 -34.5q-61 0 -106 30.5t-66 75.5q-28 -53 -75 -79t-96 -26zM386 259h242
q-5 75 -34.5 116t-79.5 41q-49 0 -85 -42t-43 -115zM200 35q45 0 82.5 31t37.5 69v97q-7 -2 -21 -4.5t-31 -5.5q-80 -13 -115 -36.5t-35 -68.5q0 -41 21.5 -61.5t60.5 -20.5z" />
    <glyph glyph-name="ccedilla" unicode="&#xe7;" horiz-adv-x="464" 
d="M240 -9q-42 0 -78.5 16.5t-63 45.5t-42 69.5t-15.5 88.5q0 53 15.5 97.5t44 76t69 49.5t90.5 18q36 0 66.5 -12t52.5 -30t34.5 -40.5t12.5 -43.5q0 -25 -14.5 -42.5t-37.5 -17.5q-22 0 -35.5 15t-13.5 34q0 16 9.5 29.5t28.5 20.5q-13 19 -39 35t-66 16q-68 0 -108 -55
t-40 -142q0 -85 39.5 -135t104.5 -50q52 0 85 28.5t54 79.5h38q-16 -60 -51.5 -96t-85.5 -49l-67 -66l1 -2q48 0 78 -21t30 -57q0 -37 -28.5 -60.5t-74.5 -23.5q-25 0 -50 8t-47 22l16 28q19 -11 37.5 -17.5t40.5 -6.5q25 0 41.5 12.5t16.5 35.5q0 25 -21 36.5t-49 11.5
q-13 0 -23.5 -2t-17.5 -4l-13 17l82 83h-3h-3z" />
    <glyph glyph-name="egrave" unicode="&#xe8;" horiz-adv-x="465" 
d="M246 -9q-92 0 -148.5 62.5t-56.5 163.5q0 51 16.5 94.5t44 74.5t65 48.5t79.5 17.5q47 0 81.5 -20t56.5 -52.5t32.5 -74.5t9.5 -86h-316q1 -90 42.5 -137t103.5 -47q41 0 75.5 19t54.5 72h37q-21 -66 -67 -100.5t-110 -34.5zM244 416q-52 0 -88.5 -42t-43.5 -115h246
q-5 75 -34.5 116t-79.5 41zM257 523l-64 83q-22 28 -33.5 45.5t-11.5 33.5q0 15 9 23.5t21 8.5q17 0 29 -15.5t27 -52.5l51 -126h-28z" />
    <glyph glyph-name="eacute" unicode="&#xe9;" horiz-adv-x="465" 
d="M246 -9q-92 0 -148.5 62.5t-56.5 163.5q0 51 16.5 94.5t44 74.5t65 48.5t79.5 17.5q47 0 81.5 -20t56.5 -52.5t32.5 -74.5t9.5 -86h-316q1 -90 42.5 -137t103.5 -47q41 0 75.5 19t54.5 72h37q-21 -66 -67 -100.5t-110 -34.5zM244 416q-52 0 -88.5 -42t-43.5 -115h246
q-5 75 -34.5 116t-79.5 41zM230 523l51 126q15 37 27 52.5t29 15.5q12 0 21 -8.5t9 -23.5q0 -16 -11.5 -33.5t-33.5 -45.5l-64 -83h-28z" />
    <glyph glyph-name="ecircumflex" unicode="&#xea;" horiz-adv-x="465" 
d="M246 -9q-92 0 -148.5 62.5t-56.5 163.5q0 51 16.5 94.5t44 74.5t65 48.5t79.5 17.5q47 0 81.5 -20t56.5 -52.5t32.5 -74.5t9.5 -86h-316q1 -90 42.5 -137t103.5 -47q41 0 75.5 19t54.5 72h37q-21 -66 -67 -100.5t-110 -34.5zM244 416q-52 0 -88.5 -42t-43.5 -115h246
q-5 75 -34.5 116t-79.5 41zM127 524l106 179h34l106 -179h-31l-92 108l-92 -108h-31z" />
    <glyph glyph-name="edieresis" unicode="&#xeb;" horiz-adv-x="465" 
d="M246 -9q-92 0 -148.5 62.5t-56.5 163.5q0 51 16.5 94.5t44 74.5t65 48.5t79.5 17.5q47 0 81.5 -20t56.5 -52.5t32.5 -74.5t9.5 -86h-316q1 -90 42.5 -137t103.5 -47q41 0 75.5 19t54.5 72h37q-21 -66 -67 -100.5t-110 -34.5zM244 416q-52 0 -88.5 -42t-43.5 -115h246
q-5 75 -34.5 116t-79.5 41zM167 546q-19 0 -32 14t-13 34t13 34t32 14t32 -14t13 -34t-13 -34t-32 -14zM333 546q-19 0 -32 14t-13 34t13 34t32 14t32 -14t13 -34t-13 -34t-32 -14z" />
    <glyph glyph-name="igrave" unicode="&#xec;" horiz-adv-x="287" 
d="M33 0v40h86v363h-86v40h150v-403h86v-40h-236zM147 523l-64 83q-22 28 -33.5 45.5t-11.5 33.5q0 15 9 23.5t21 8.5q17 0 29 -15.5t27 -52.5l51 -126h-28z" />
    <glyph glyph-name="iacute" unicode="&#xed;" horiz-adv-x="287" 
d="M33 0v40h86v363h-86v40h150v-403h86v-40h-236zM120 523l51 126q15 37 27 52.5t29 15.5q12 0 21 -8.5t9 -23.5q0 -16 -11.5 -33.5t-33.5 -45.5l-64 -83h-28z" />
    <glyph glyph-name="icircumflex" unicode="&#xee;" horiz-adv-x="287" 
d="M33 0v40h86v363h-86v40h150v-403h86v-40h-236zM17 524l106 179h34l106 -179h-31l-92 108l-92 -108h-31z" />
    <glyph glyph-name="idieresis" unicode="&#xef;" horiz-adv-x="287" 
d="M33 0v40h86v363h-86v40h150v-403h86v-40h-236zM57 546q-19 0 -32 14t-13 34t13 34t32 14t32 -14t13 -34t-13 -34t-32 -14zM223 546q-19 0 -32 14t-13 34t13 34t32 14t32 -14t13 -34t-13 -34t-32 -14z" />
    <glyph glyph-name="eth" unicode="&#xf0;" horiz-adv-x="504" 
d="M243 -9q-42 0 -79 15.5t-64.5 44t-43 70t-15.5 93.5q0 50 15.5 94t42.5 75.5t64.5 50t81.5 18.5q51 0 85 -25.5t49 -48.5q-10 51 -33.5 97t-54.5 87l-111 -49l-15 33l103 45q-22 25 -45.5 48t-48.5 43l53 9q23 -18 45 -38t42 -42l110 48l14 -32l-100 -44
q54 -66 86.5 -143t32.5 -161q0 -134 -59.5 -211t-154.5 -77zM250 27q54 0 96 47t42 148q0 50 -12.5 87t-32.5 60.5t-45.5 35t-51.5 11.5q-53 0 -94.5 -48.5t-41.5 -147.5q0 -50 12 -86.5t31.5 -60t45 -35t51.5 -11.5z" />
    <glyph glyph-name="ntilde" unicode="&#xf1;" horiz-adv-x="556" 
d="M34 0v40h76v363h-76v40h138v-115q41 72 86 98t84 26q58 0 90 -36t32 -106v-270h75v-40h-209v40h70v234q0 37 -5.5 62.5t-20.5 40.5q-12 13 -27.5 17.5t-32.5 4.5q-28 0 -53.5 -14.5t-44.5 -36t-30.5 -47t-11.5 -46.5v-215h70v-40h-210zM145 529q9 68 29.5 95t52.5 27
q20 0 37.5 -10.5t32.5 -22.5t29.5 -22.5t28.5 -10.5q22 0 31.5 20t14.5 49h29q-9 -68 -29.5 -95t-52.5 -27q-20 0 -37.5 10.5t-32.5 22.5t-29.5 22.5t-28.5 10.5q-22 0 -31.5 -20t-14.5 -49h-29z" />
    <glyph glyph-name="ograve" unicode="&#xf2;" horiz-adv-x="498" 
d="M249 -9q-44 0 -82 16t-66 45.5t-44 71.5t-16 93q0 52 17 95.5t45 74.5t66 48t80 17q44 0 82 -16t66 -45.5t44 -72t16 -93.5q0 -52 -17 -95.5t-45 -74t-66 -47.5t-80 -17zM252 27q53 0 94.5 48t41.5 147q0 50 -12.5 87t-32.5 60.5t-45.5 35t-51.5 11.5q-53 0 -94.5 -48.5
t-41.5 -147.5q0 -50 12.5 -86.5t32.5 -60t45.5 -35t51.5 -11.5zM256 523l-64 83q-22 28 -33.5 45.5t-11.5 33.5q0 15 9 23.5t21 8.5q17 0 29 -15.5t27 -52.5l51 -126h-28z" />
    <glyph glyph-name="oacute" unicode="&#xf3;" horiz-adv-x="498" 
d="M249 -9q-44 0 -82 16t-66 45.5t-44 71.5t-16 93q0 52 17 95.5t45 74.5t66 48t80 17q44 0 82 -16t66 -45.5t44 -72t16 -93.5q0 -52 -17 -95.5t-45 -74t-66 -47.5t-80 -17zM252 27q53 0 94.5 48t41.5 147q0 50 -12.5 87t-32.5 60.5t-45.5 35t-51.5 11.5q-53 0 -94.5 -48.5
t-41.5 -147.5q0 -50 12.5 -86.5t32.5 -60t45.5 -35t51.5 -11.5zM229 523l51 126q15 37 27 52.5t29 15.5q12 0 21 -8.5t9 -23.5q0 -16 -11.5 -33.5t-33.5 -45.5l-64 -83h-28z" />
    <glyph glyph-name="ocircumflex" unicode="&#xf4;" horiz-adv-x="498" 
d="M249 -9q-44 0 -82 16t-66 45.5t-44 71.5t-16 93q0 52 17 95.5t45 74.5t66 48t80 17q44 0 82 -16t66 -45.5t44 -72t16 -93.5q0 -52 -17 -95.5t-45 -74t-66 -47.5t-80 -17zM252 27q53 0 94.5 48t41.5 147q0 50 -12.5 87t-32.5 60.5t-45.5 35t-51.5 11.5q-53 0 -94.5 -48.5
t-41.5 -147.5q0 -50 12.5 -86.5t32.5 -60t45.5 -35t51.5 -11.5zM126 524l106 179h34l106 -179h-31l-92 108l-92 -108h-31z" />
    <glyph glyph-name="otilde" unicode="&#xf5;" horiz-adv-x="498" 
d="M249 -9q-44 0 -82 16t-66 45.5t-44 71.5t-16 93q0 52 17 95.5t45 74.5t66 48t80 17q44 0 82 -16t66 -45.5t44 -72t16 -93.5q0 -52 -17 -95.5t-45 -74t-66 -47.5t-80 -17zM252 27q53 0 94.5 48t41.5 147q0 50 -12.5 87t-32.5 60.5t-45.5 35t-51.5 11.5q-53 0 -94.5 -48.5
t-41.5 -147.5q0 -50 12.5 -86.5t32.5 -60t45.5 -35t51.5 -11.5zM107 529q9 68 29.5 95t52.5 27q20 0 37.5 -10.5t32.5 -22.5t29.5 -22.5t28.5 -10.5q22 0 31.5 20t14.5 49h29q-9 -68 -29.5 -95t-52.5 -27q-20 0 -37.5 10.5t-32.5 22.5t-29.5 22.5t-28.5 10.5
q-22 0 -31.5 -20t-14.5 -49h-29z" />
    <glyph glyph-name="odieresis" unicode="&#xf6;" horiz-adv-x="498" 
d="M249 -9q-44 0 -82 16t-66 45.5t-44 71.5t-16 93q0 52 17 95.5t45 74.5t66 48t80 17q44 0 82 -16t66 -45.5t44 -72t16 -93.5q0 -52 -17 -95.5t-45 -74t-66 -47.5t-80 -17zM252 27q53 0 94.5 48t41.5 147q0 50 -12.5 87t-32.5 60.5t-45.5 35t-51.5 11.5q-53 0 -94.5 -48.5
t-41.5 -147.5q0 -50 12.5 -86.5t32.5 -60t45.5 -35t51.5 -11.5zM166 546q-19 0 -32 14t-13 34t13 34t32 14t32 -14t13 -34t-13 -34t-32 -14zM332 546q-19 0 -32 14t-13 34t13 34t32 14t32 -14t13 -34t-13 -34t-32 -14z" />
    <glyph glyph-name="divide" unicode="&#xf7;" horiz-adv-x="506" 
d="M253 415q-20 0 -33.5 14t-13.5 34t13.5 34t33.5 14t33.5 -14t13.5 -34t-13.5 -34t-33.5 -14zM50 292v38h406v-38h-406zM253 111q-20 0 -33.5 14t-13.5 34t13.5 34t33.5 14t33.5 -14t13.5 -34t-13.5 -34t-33.5 -14z" />
    <glyph glyph-name="oslash" unicode="&#xf8;" horiz-adv-x="498" 
d="M43 -27l58 79q-28 29 -44 71t-16 94t17 95.5t45 74.5t66 48t80 17q34 0 65.5 -10t56.5 -29l42 57h42l-59 -79q28 -30 44.5 -72.5t16.5 -93.5q0 -52 -17 -95.5t-45 -74t-66 -47.5t-80 -17q-34 0 -66 10t-57 29l-41 -57h-42zM138 97l202 276q-20 22 -44.5 32.5t-49.5 10.5
q-53 0 -94.5 -48.5t-41.5 -147.5q0 -39 7.5 -69.5t20.5 -53.5zM252 27q53 0 94.5 48t41.5 147q0 38 -7.5 69t-20.5 54l-202 -276q19 -22 44 -32t50 -10z" />
    <glyph glyph-name="ugrave" unicode="&#xf9;" horiz-adv-x="540" 
d="M213 -9q-57 0 -89 36t-32 106v270h-75v40h139v-274q0 -37 5 -63t21 -42q11 -12 27 -16t32 -4q28 0 53 14.5t43.5 36t29.5 47t11 46.5v215h-79v40h143v-403h76v-40h-138v115q-40 -72 -84.5 -98t-82.5 -26zM275 523l-64 83q-22 28 -33.5 45.5t-11.5 33.5q0 15 9 23.5
t21 8.5q17 0 29 -15.5t27 -52.5l51 -126h-28z" />
    <glyph glyph-name="uacute" unicode="&#xfa;" horiz-adv-x="540" 
d="M213 -9q-57 0 -89 36t-32 106v270h-75v40h139v-274q0 -37 5 -63t21 -42q11 -12 27 -16t32 -4q28 0 53 14.5t43.5 36t29.5 47t11 46.5v215h-79v40h143v-403h76v-40h-138v115q-40 -72 -84.5 -98t-82.5 -26zM248 523l51 126q15 37 27 52.5t29 15.5q12 0 21 -8.5t9 -23.5
q0 -16 -11.5 -33.5t-33.5 -45.5l-64 -83h-28z" />
    <glyph glyph-name="ucircumflex" unicode="&#xfb;" horiz-adv-x="540" 
d="M213 -9q-57 0 -89 36t-32 106v270h-75v40h139v-274q0 -37 5 -63t21 -42q11 -12 27 -16t32 -4q28 0 53 14.5t43.5 36t29.5 47t11 46.5v215h-79v40h143v-403h76v-40h-138v115q-40 -72 -84.5 -98t-82.5 -26zM145 524l106 179h34l106 -179h-31l-92 108l-92 -108h-31z" />
    <glyph glyph-name="udieresis" unicode="&#xfc;" horiz-adv-x="540" 
d="M213 -9q-57 0 -89 36t-32 106v270h-75v40h139v-274q0 -37 5 -63t21 -42q11 -12 27 -16t32 -4q28 0 53 14.5t43.5 36t29.5 47t11 46.5v215h-79v40h143v-403h76v-40h-138v115q-40 -72 -84.5 -98t-82.5 -26zM185 546q-19 0 -32 14t-13 34t13 34t32 14t32 -14t13 -34t-13 -34
t-32 -14zM351 546q-19 0 -32 14t-13 34t13 34t32 14t32 -14t13 -34t-13 -34t-32 -14z" />
    <glyph glyph-name="yacute" unicode="&#xfd;" horiz-adv-x="476" 
d="M96 -160q-39 0 -59.5 19t-20.5 44q0 23 14.5 39t36.5 16q19 0 32 -12.5t13 -31.5q0 -12 -3.5 -21t-8.5 -16q25 -2 56.5 21t64.5 101q-13 34 -40 101.5t-54 134.5t-47 117.5l-20 50.5h-60v40h210v-40h-78l123 -327l125 327h-72v40h168v-40h-51l-151 -380
q-42 -105 -85.5 -144t-92.5 -39zM235 523l51 126q15 37 27 52.5t29 15.5q12 0 21 -8.5t9 -23.5q0 -16 -11.5 -33.5t-33.5 -45.5l-64 -83h-28z" />
    <glyph glyph-name="thorn" unicode="&#xfe;" horiz-adv-x="507" 
d="M8 -147v40h76v754h-76v40h140v-344q27 54 66.5 81.5t85.5 27.5q32 0 57 -10.5t47 -32.5q30 -30 45 -77.5t15 -101.5q0 -55 -17.5 -103.5t-48.5 -79.5q-22 -22 -49.5 -34.5t-62.5 -12.5q-50 0 -85.5 28.5t-52.5 67.5v-203h98v-40h-238zM275 44q51 0 85.5 46.5t34.5 139.5
q0 99 -36 138.5t-79 39.5q-28 0 -52.5 -14.5t-42.5 -40.5t-28.5 -61t-10.5 -75q0 -76 37.5 -124.5t91.5 -48.5z" />
    <glyph glyph-name="ydieresis" unicode="&#xff;" horiz-adv-x="476" 
d="M96 -160q-39 0 -59.5 19t-20.5 44q0 23 14.5 39t36.5 16q19 0 32 -12.5t13 -31.5q0 -12 -3.5 -21t-8.5 -16q25 -2 56.5 21t64.5 101q-13 34 -40 101.5t-54 134.5t-47 117.5l-20 50.5h-60v40h210v-40h-78l123 -327l125 327h-72v40h168v-40h-51l-151 -380
q-42 -105 -85.5 -144t-92.5 -39zM172 546q-19 0 -32 14t-13 34t13 34t32 14t32 -14t13 -34t-13 -34t-32 -14zM338 546q-19 0 -32 14t-13 34t13 34t32 14t32 -14t13 -34t-13 -34t-32 -14z" />
    <glyph glyph-name="Amacron" unicode="&#x100;" horiz-adv-x="672" 
d="M3 0v40h69l245 613h45l228 -613h79v-40h-257v40h102l-72 198h-245l-77 -198h92v-40h-209zM323 559l-111 -283h216l-103 283h-2zM215 755v53h251v-53h-251z" />
    <glyph glyph-name="amacron" unicode="&#x101;" horiz-adv-x="477" 
d="M173 -8q-60 0 -92.5 31.5t-32.5 83.5q0 21 7 41.5t22 35.5q25 25 63.5 38t107.5 25q47 8 59.5 13t12.5 17v42q0 54 -26 75.5t-69 21.5q-29 0 -54.5 -8.5t-39.5 -22.5q13 -7 20 -18t7 -26q0 -21 -13.5 -34.5t-33.5 -13.5q-21 0 -34 13.5t-13 37.5q0 22 14 41t37.5 33.5
t54 23t62.5 8.5q76 0 114 -33t38 -99v-237q0 -28 9 -36.5t21 -8.5q14 0 24 10t20 32l25 -12q-16 -35 -33 -53.5t-51 -18.5q-31 0 -51 19t-21 65h-2q-25 -38 -65 -62t-87 -24zM200 35q45 0 82.5 31t37.5 69v97q-7 -2 -21 -4.5t-31 -5.5q-80 -13 -115 -36.5t-35 -68.5
q0 -41 21.5 -61.5t60.5 -20.5zM115 542v53h251v-53h-251z" />
    <glyph glyph-name="Abreve" unicode="&#x102;" horiz-adv-x="672" 
d="M3 0v40h69l245 613h45l228 -613h79v-40h-257v40h102l-72 198h-245l-77 -198h92v-40h-209zM323 559l-111 -283h216l-103 283h-2zM340 743q-52 0 -85.5 38.5t-36.5 104.5h24q12 -41 35.5 -65t62.5 -24t62.5 24t35.5 65h24q-3 -66 -36.5 -104.5t-85.5 -38.5z" />
    <glyph glyph-name="abreve" unicode="&#x103;" horiz-adv-x="477" 
d="M173 -8q-60 0 -92.5 31.5t-32.5 83.5q0 21 7 41.5t22 35.5q25 25 63.5 38t107.5 25q47 8 59.5 13t12.5 17v42q0 54 -26 75.5t-69 21.5q-29 0 -54.5 -8.5t-39.5 -22.5q13 -7 20 -18t7 -26q0 -21 -13.5 -34.5t-33.5 -13.5q-21 0 -34 13.5t-13 37.5q0 22 14 41t37.5 33.5
t54 23t62.5 8.5q76 0 114 -33t38 -99v-237q0 -28 9 -36.5t21 -8.5q14 0 24 10t20 32l25 -12q-16 -35 -33 -53.5t-51 -18.5q-31 0 -51 19t-21 65h-2q-25 -38 -65 -62t-87 -24zM200 35q45 0 82.5 31t37.5 69v97q-7 -2 -21 -4.5t-31 -5.5q-80 -13 -115 -36.5t-35 -68.5
q0 -41 21.5 -61.5t60.5 -20.5zM240 530q-52 0 -85.5 38.5t-36.5 104.5h24q12 -41 35.5 -65t62.5 -24t62.5 24t35.5 65h24q-3 -66 -36.5 -104.5t-85.5 -38.5z" />
    <glyph glyph-name="Aogonek" unicode="&#x104;" horiz-adv-x="672" 
d="M3 0v40h69l245 613h45l228 -613h79v-40h-87l-17 -18q-41 -43 -57 -72t-16 -51q0 -25 15.5 -39t37.5 -14q19 0 34 8t25 15l16 -22q-18 -17 -40.5 -28.5t-48.5 -11.5q-41 0 -66 23t-25 60q0 34 22.5 65.5t69.5 72.5l14 12h-134v40h102l-72 198h-245l-77 -198h92v-40h-209z
M323 559l-111 -283h216l-103 283h-2z" />
    <glyph glyph-name="aogonek" unicode="&#x105;" horiz-adv-x="477" 
d="M384 -233q-41 0 -66 23t-25 60q0 34 23 66t76 78q-28 2 -46 21.5t-19 62.5h-2q-25 -38 -65 -62t-87 -24q-60 0 -92.5 31.5t-32.5 83.5q0 21 7 41.5t22 35.5q25 25 63.5 38t107.5 25q47 8 59.5 13t12.5 17v42q0 54 -26 75.5t-69 21.5q-29 0 -54.5 -8.5t-39.5 -22.5
q13 -7 20 -18t7 -26q0 -21 -13.5 -34.5t-33.5 -13.5q-21 0 -34 13.5t-13 37.5q0 22 14 41t37.5 33.5t54 23t62.5 8.5q76 0 114 -33t38 -99v-237q0 -28 9 -36.5t21 -8.5q14 0 24 10t20 32l25 -12q-10 -21 -18 -33.5t-29 -33.5l-26 -26t-30 -34.5t-24.5 -39t-10.5 -40.5
q0 -25 15.5 -39t37.5 -14q19 0 34 8t25 15l16 -22q-18 -17 -40.5 -28.5t-48.5 -11.5zM200 35q45 0 82.5 31t37.5 69v97q-7 -2 -21 -4.5t-31 -5.5q-80 -13 -115 -36.5t-35 -68.5q0 -41 21.5 -61.5t60.5 -20.5z" />
    <glyph glyph-name="Cacute" unicode="&#x106;" horiz-adv-x="674" 
d="M347 -16q-65 0 -119 24.5t-92.5 68.5t-60 107t-21.5 139q0 74 23 136.5t62.5 107.5t94.5 70.5t118 25.5q68 0 114.5 -23.5t76.5 -57.5l20 78h40v-238h-34q-28 93 -79 144t-140 51q-49 0 -90 -21t-69.5 -58.5t-44.5 -90.5t-16 -118q0 -72 17.5 -128t48.5 -93.5t73 -57
t91 -19.5q87 0 142.5 58.5t70.5 159.5h45q-16 -128 -86 -196.5t-185 -68.5zM330 736l51 126q15 37 27 52.5t29 15.5q12 0 21 -8.5t9 -23.5q0 -16 -11.5 -33.5t-33.5 -45.5l-64 -83h-28z" />
    <glyph glyph-name="cacute" unicode="&#x107;" horiz-adv-x="464" 
d="M240 -9q-42 0 -78.5 16.5t-63 45.5t-42 69.5t-15.5 88.5q0 53 15.5 97.5t44 76t69 49.5t90.5 18q36 0 66.5 -12t52.5 -30t34.5 -40.5t12.5 -43.5q0 -25 -14.5 -42.5t-37.5 -17.5q-22 0 -35.5 15t-13.5 34q0 16 9.5 29.5t28.5 20.5q-13 19 -39 35t-66 16q-68 0 -108 -55
t-40 -142q0 -85 39.5 -135t104.5 -50q52 0 85 28.5t54 79.5h38q-20 -75 -70 -113t-121 -38zM240 523l51 126q15 37 27 52.5t29 15.5q12 0 21 -8.5t9 -23.5q0 -16 -11.5 -33.5t-33.5 -45.5l-64 -83h-28z" />
    <glyph glyph-name="Cdotaccent" unicode="&#x10a;" horiz-adv-x="674" 
d="M347 -16q-65 0 -119 24.5t-92.5 68.5t-60 107t-21.5 139q0 74 23 136.5t62.5 107.5t94.5 70.5t118 25.5q68 0 114.5 -23.5t76.5 -57.5l20 78h40v-238h-34q-28 93 -79 144t-140 51q-49 0 -90 -21t-69.5 -58.5t-44.5 -90.5t-16 -118q0 -72 17.5 -128t48.5 -93.5t73 -57
t91 -19.5q87 0 142.5 58.5t70.5 159.5h45q-16 -128 -86 -196.5t-185 -68.5zM350 740q-19 0 -33 12.5t-14 34.5q0 20 13.5 34t33.5 14q17 0 31 -13t14 -34q0 -22 -13.5 -35t-31.5 -13z" />
    <glyph glyph-name="cdotaccent" unicode="&#x10b;" horiz-adv-x="464" 
d="M240 -9q-42 0 -78.5 16.5t-63 45.5t-42 69.5t-15.5 88.5q0 53 15.5 97.5t44 76t69 49.5t90.5 18q36 0 66.5 -12t52.5 -30t34.5 -40.5t12.5 -43.5q0 -25 -14.5 -42.5t-37.5 -17.5q-22 0 -35.5 15t-13.5 34q0 16 9.5 29.5t28.5 20.5q-13 19 -39 35t-66 16q-68 0 -108 -55
t-40 -142q0 -85 39.5 -135t104.5 -50q52 0 85 28.5t54 79.5h38q-20 -75 -70 -113t-121 -38zM260 527q-19 0 -33 12.5t-14 34.5q0 20 13.5 34t33.5 14q17 0 31 -13t14 -34q0 -22 -13.5 -35t-31.5 -13z" />
    <glyph glyph-name="Ccaron" unicode="&#x10c;" horiz-adv-x="674" 
d="M347 -16q-65 0 -119 24.5t-92.5 68.5t-60 107t-21.5 139q0 74 23 136.5t62.5 107.5t94.5 70.5t118 25.5q68 0 114.5 -23.5t76.5 -57.5l20 78h40v-238h-34q-28 93 -79 144t-140 51q-49 0 -90 -21t-69.5 -58.5t-44.5 -90.5t-16 -118q0 -72 17.5 -128t48.5 -93.5t73 -57
t91 -19.5q87 0 142.5 58.5t70.5 159.5h45q-16 -128 -86 -196.5t-185 -68.5zM333 746l-106 179h31l92 -108l92 108h31l-106 -179h-34z" />
    <glyph glyph-name="ccaron" unicode="&#x10d;" horiz-adv-x="464" 
d="M240 -9q-42 0 -78.5 16.5t-63 45.5t-42 69.5t-15.5 88.5q0 53 15.5 97.5t44 76t69 49.5t90.5 18q36 0 66.5 -12t52.5 -30t34.5 -40.5t12.5 -43.5q0 -25 -14.5 -42.5t-37.5 -17.5q-22 0 -35.5 15t-13.5 34q0 16 9.5 29.5t28.5 20.5q-13 19 -39 35t-66 16q-68 0 -108 -55
t-40 -142q0 -85 39.5 -135t104.5 -50q52 0 85 28.5t54 79.5h38q-20 -75 -70 -113t-121 -38zM243 533l-106 179h31l92 -108l92 108h31l-106 -179h-34z" />
    <glyph glyph-name="Dcaron" unicode="&#x10e;" horiz-adv-x="690" 
d="M34 0v40h110v568h-110v40h259q88 0 153 -22.5t107.5 -63.5t63.5 -99t21 -129t-20 -132t-61.5 -106t-106.5 -70.5t-153 -25.5h-263zM214 40h87q135 0 198 75.5t63 218.5q0 127 -64 200.5t-202 73.5h-82v-568zM335 746l-106 179h31l92 -108l92 108h31l-106 -179h-34z" />
    <glyph glyph-name="dcaron" unicode="&#x10f;" horiz-adv-x="522" 
d="M210 -8q-34 0 -59 11t-44 30q-32 31 -48 78t-16 105t18 108t50 82q21 21 48 33.5t62 12.5q43 0 81 -24.5t58 -68.5v289h-76v39h140v-647h76v-40h-138v101q-27 -54 -66.5 -81.5t-85.5 -27.5zM230 36q56 0 95 55.5t39 141.5q0 87 -40 131t-90 44q-54 0 -88 -50t-34 -139
q0 -87 33.5 -135t84.5 -48zM500 539l-2 145q-1 41 11 54t25 13q10 0 19.5 -8.5t9.5 -27.5q0 -12 -3 -27.5t-8 -37.5l-28 -111h-24z" />
    <glyph glyph-name="Dcroat" unicode="&#x110;" horiz-adv-x="690" 
d="M34 0v40h110v280h-110v40h110v248h-110v40h259q88 0 153 -22.5t107.5 -63.5t63.5 -99t21 -129t-20 -132t-61.5 -106t-106.5 -70.5t-153 -25.5h-263zM214 40h87q135 0 198 75.5t63 218.5q0 127 -64 200.5t-202 73.5h-82v-248h148v-40h-148v-280z" />
    <glyph glyph-name="dcroat" unicode="&#x111;" horiz-adv-x="522" 
d="M210 -8q-34 0 -59 11t-44 30q-32 31 -48 78t-16 105t18 108t50 82q21 21 48 33.5t62 12.5q43 0 81 -24.5t58 -68.5v156h-129v34h129v99h-76v39h140v-138h76v-34h-76v-475h76v-40h-138v101q-27 -54 -66.5 -81.5t-85.5 -27.5zM230 36q56 0 95 55.5t39 141.5q0 87 -40 131
t-90 44q-54 0 -88 -50t-34 -139q0 -87 33.5 -135t84.5 -48z" />
    <glyph glyph-name="Emacron" unicode="&#x112;" horiz-adv-x="640" 
d="M34 0v40h110v568h-110v40h538v-196h-32q-7 51 -13 82t-14.5 47t-20.5 21.5t-31 5.5h-247v-257h123q36 0 46.5 16.5t18.5 82.5h31v-238h-31q-4 35 -8 55.5t-10.5 31t-17.5 13.5t-29 3h-123v-275h247q22 0 36 5.5t22.5 24t15 53.5t14.5 93h32v-216h-547zM225 755v53h251
v-53h-251z" />
    <glyph glyph-name="emacron" unicode="&#x113;" horiz-adv-x="465" 
d="M246 -9q-92 0 -148.5 62.5t-56.5 163.5q0 51 16.5 94.5t44 74.5t65 48.5t79.5 17.5q47 0 81.5 -20t56.5 -52.5t32.5 -74.5t9.5 -86h-316q1 -90 42.5 -137t103.5 -47q41 0 75.5 19t54.5 72h37q-21 -66 -67 -100.5t-110 -34.5zM244 416q-52 0 -88.5 -42t-43.5 -115h246
q-5 75 -34.5 116t-79.5 41zM125 542v53h251v-53h-251z" />
    <glyph glyph-name="Ebreve" unicode="&#x114;" horiz-adv-x="640" 
d="M34 0v40h110v568h-110v40h538v-196h-32q-7 51 -13 82t-14.5 47t-20.5 21.5t-31 5.5h-247v-257h123q36 0 46.5 16.5t18.5 82.5h31v-238h-31q-4 35 -8 55.5t-10.5 31t-17.5 13.5t-29 3h-123v-275h247q22 0 36 5.5t22.5 24t15 53.5t14.5 93h32v-216h-547zM350 743
q-52 0 -85.5 38.5t-36.5 104.5h24q12 -41 35.5 -65t62.5 -24t62.5 24t35.5 65h24q-3 -66 -36.5 -104.5t-85.5 -38.5z" />
    <glyph glyph-name="ebreve" unicode="&#x115;" horiz-adv-x="465" 
d="M246 -9q-92 0 -148.5 62.5t-56.5 163.5q0 51 16.5 94.5t44 74.5t65 48.5t79.5 17.5q47 0 81.5 -20t56.5 -52.5t32.5 -74.5t9.5 -86h-316q1 -90 42.5 -137t103.5 -47q41 0 75.5 19t54.5 72h37q-21 -66 -67 -100.5t-110 -34.5zM244 416q-52 0 -88.5 -42t-43.5 -115h246
q-5 75 -34.5 116t-79.5 41zM250 530q-52 0 -85.5 38.5t-36.5 104.5h24q12 -41 35.5 -65t62.5 -24t62.5 24t35.5 65h24q-3 -66 -36.5 -104.5t-85.5 -38.5z" />
    <glyph glyph-name="Edotaccent" unicode="&#x116;" horiz-adv-x="640" 
d="M34 0v40h110v568h-110v40h538v-196h-32q-7 51 -13 82t-14.5 47t-20.5 21.5t-31 5.5h-247v-257h123q36 0 46.5 16.5t18.5 82.5h31v-238h-31q-4 35 -8 55.5t-10.5 31t-17.5 13.5t-29 3h-123v-275h247q22 0 36 5.5t22.5 24t15 53.5t14.5 93h32v-216h-547zM350 740
q-19 0 -33 12.5t-14 34.5q0 20 13.5 34t33.5 14q17 0 31 -13t14 -34q0 -22 -13.5 -35t-31.5 -13z" />
    <glyph glyph-name="edotaccent" unicode="&#x117;" horiz-adv-x="465" 
d="M246 -9q-92 0 -148.5 62.5t-56.5 163.5q0 51 16.5 94.5t44 74.5t65 48.5t79.5 17.5q47 0 81.5 -20t56.5 -52.5t32.5 -74.5t9.5 -86h-316q1 -90 42.5 -137t103.5 -47q41 0 75.5 19t54.5 72h37q-21 -66 -67 -100.5t-110 -34.5zM244 416q-52 0 -88.5 -42t-43.5 -115h246
q-5 75 -34.5 116t-79.5 41zM250 527q-19 0 -33 12.5t-14 34.5q0 20 13.5 34t33.5 14q17 0 31 -13t14 -34q0 -22 -13.5 -35t-31.5 -13z" />
    <glyph glyph-name="Eogonek" unicode="&#x118;" horiz-adv-x="640" 
d="M34 0v40h110v568h-110v40h538v-196h-32q-7 51 -13 82t-14.5 47t-20.5 21.5t-31 5.5h-247v-257h123q36 0 46.5 16.5t18.5 82.5h31v-238h-31q-4 35 -8 55.5t-10.5 31t-17.5 13.5t-29 3h-123v-275h247q22 0 36 5.5t22.5 24t15 53.5t14.5 93h32v-216h-28l-17 -18
q-41 -43 -57 -72t-16 -51q0 -25 15.5 -39t37.5 -14q19 0 34 8t25 15l16 -22q-18 -17 -40.5 -28.5t-48.5 -11.5q-41 0 -66 23t-25 60q0 34 22.5 65.5t69.5 72.5l14 12h-483z" />
    <glyph glyph-name="eogonek" unicode="&#x119;" horiz-adv-x="465" 
d="M291 -233q-41 0 -66 23t-25 60q0 34 22.5 65.5t68.5 72.5l14 12q-18 -5 -32 -7t-27 -2q-92 0 -148.5 62.5t-56.5 163.5q0 51 16.5 94.5t44 74.5t65 48.5t79.5 17.5q47 0 81.5 -20t56.5 -52.5t32.5 -74.5t9.5 -86h-316q1 -90 42.5 -137t103.5 -47q41 0 75.5 19t54.5 72h37
q-13 -39 -29.5 -61.5t-31.5 -39.5l-40 -44q-40 -44 -55 -72t-15 -50q0 -25 15.5 -39t37.5 -14q19 0 34 8t25 15l16 -22q-18 -17 -40.5 -28.5t-48.5 -11.5zM244 416q-52 0 -88.5 -42t-43.5 -115h246q-5 75 -34.5 116t-79.5 41z" />
    <glyph glyph-name="Ecaron" unicode="&#x11a;" horiz-adv-x="640" 
d="M34 0v40h110v568h-110v40h538v-196h-32q-7 51 -13 82t-14.5 47t-20.5 21.5t-31 5.5h-247v-257h123q36 0 46.5 16.5t18.5 82.5h31v-238h-31q-4 35 -8 55.5t-10.5 31t-17.5 13.5t-29 3h-123v-275h247q22 0 36 5.5t22.5 24t15 53.5t14.5 93h32v-216h-547zM333 746l-106 179
h31l92 -108l92 108h31l-106 -179h-34z" />
    <glyph glyph-name="ecaron" unicode="&#x11b;" horiz-adv-x="465" 
d="M246 -9q-92 0 -148.5 62.5t-56.5 163.5q0 51 16.5 94.5t44 74.5t65 48.5t79.5 17.5q47 0 81.5 -20t56.5 -52.5t32.5 -74.5t9.5 -86h-316q1 -90 42.5 -137t103.5 -47q41 0 75.5 19t54.5 72h37q-21 -66 -67 -100.5t-110 -34.5zM244 416q-52 0 -88.5 -42t-43.5 -115h246
q-5 75 -34.5 116t-79.5 41zM233 533l-106 179h31l92 -108l92 108h31l-106 -179h-34z" />
    <glyph glyph-name="Gbreve" unicode="&#x11e;" horiz-adv-x="705" 
d="M343 -16q-67 0 -120.5 26.5t-91 72.5t-57.5 109t-20 134q0 68 21.5 129.5t59.5 107.5t92 73t118 27q54 0 103 -22t82 -59l20 78h40v-232h-34q-27 88 -79 138.5t-130 50.5q-53 0 -93.5 -21.5t-68 -59t-41.5 -90t-14 -114.5q0 -139 60 -219.5t161 -80.5q37 0 68.5 13
t52.5 34q30 30 42.5 71t12.5 95v28h-123v40h284v-40h-91v-280h-36l-30 98q-28 -52 -78 -79.5t-110 -27.5zM346 743q-52 0 -85.5 38.5t-36.5 104.5h24q12 -41 35.5 -65t62.5 -24t62.5 24t35.5 65h24q-3 -66 -36.5 -104.5t-85.5 -38.5z" />
    <glyph glyph-name="gbreve" unicode="&#x11f;" horiz-adv-x="463" 
d="M212 -156q-89 0 -138 30t-49 74q0 34 26.5 58t68.5 33v2q-40 11 -57 27t-17 40t22.5 43.5t62.5 28.5q-37 19 -57.5 48t-20.5 75q0 35 13.5 62t36.5 45.5t53 28.5t64 10q19 0 39 -4t38 -12q23 42 52 66t62 24q22 0 37 -13t15 -35q0 -18 -11.5 -31t-30.5 -13
q-17 0 -27 11.5t-10 27.5v4.5t1 5.5q-13 -1 -31 -16.5t-32 -43.5q28 -18 47 -47t19 -68q0 -69 -46 -107t-121 -38q-16 0 -32.5 1.5t-29.5 1.5q-25 0 -41.5 -12.5t-16.5 -28.5q0 -21 25.5 -30.5t64.5 -9.5h117q63 0 91.5 -24.5t28.5 -68.5q0 -60 -59 -102.5t-157 -42.5z
M225 192q43 0 68.5 29t25.5 83q0 48 -26.5 81t-74.5 33q-42 0 -69 -28.5t-27 -85.5q0 -56 29.5 -84t73.5 -28zM215 -122q72 0 114 27t42 67q0 28 -19 42.5t-53 14.5h-112q-46 0 -72.5 -20.5t-26.5 -57.5q0 -33 32 -53t95 -20zM225 530q-52 0 -85.5 38.5t-36.5 104.5h24
q12 -41 35.5 -65t62.5 -24t62.5 24t35.5 65h24q-3 -66 -36.5 -104.5t-85.5 -38.5z" />
    <glyph glyph-name="Gdotaccent" unicode="&#x120;" horiz-adv-x="705" 
d="M343 -16q-67 0 -120.5 26.5t-91 72.5t-57.5 109t-20 134q0 68 21.5 129.5t59.5 107.5t92 73t118 27q54 0 103 -22t82 -59l20 78h40v-232h-34q-27 88 -79 138.5t-130 50.5q-53 0 -93.5 -21.5t-68 -59t-41.5 -90t-14 -114.5q0 -139 60 -219.5t161 -80.5q37 0 68.5 13
t52.5 34q30 30 42.5 71t12.5 95v28h-123v40h284v-40h-91v-280h-36l-30 98q-28 -52 -78 -79.5t-110 -27.5zM346 740q-19 0 -33 12.5t-14 34.5q0 20 13.5 34t33.5 14q17 0 31 -13t14 -34q0 -22 -13.5 -35t-31.5 -13z" />
    <glyph glyph-name="gdotaccent" unicode="&#x121;" horiz-adv-x="463" 
d="M212 -156q-89 0 -138 30t-49 74q0 34 26.5 58t68.5 33v2q-40 11 -57 27t-17 40t22.5 43.5t62.5 28.5q-37 19 -57.5 48t-20.5 75q0 35 13.5 62t36.5 45.5t53 28.5t64 10q19 0 39 -4t38 -12q23 42 52 66t62 24q22 0 37 -13t15 -35q0 -18 -11.5 -31t-30.5 -13
q-17 0 -27 11.5t-10 27.5v4.5t1 5.5q-13 -1 -31 -16.5t-32 -43.5q28 -18 47 -47t19 -68q0 -69 -46 -107t-121 -38q-16 0 -32.5 1.5t-29.5 1.5q-25 0 -41.5 -12.5t-16.5 -28.5q0 -21 25.5 -30.5t64.5 -9.5h117q63 0 91.5 -24.5t28.5 -68.5q0 -60 -59 -102.5t-157 -42.5z
M225 192q43 0 68.5 29t25.5 83q0 48 -26.5 81t-74.5 33q-42 0 -69 -28.5t-27 -85.5q0 -56 29.5 -84t73.5 -28zM215 -122q72 0 114 27t42 67q0 28 -19 42.5t-53 14.5h-112q-46 0 -72.5 -20.5t-26.5 -57.5q0 -33 32 -53t95 -20zM225 527q-19 0 -33 12.5t-14 34.5q0 20 13.5 34
t33.5 14q17 0 31 -13t14 -34q0 -22 -13.5 -35t-31.5 -13z" />
    <glyph glyph-name="uni0122" unicode="&#x122;" horiz-adv-x="705" 
d="M343 -16q-67 0 -120.5 26.5t-91 72.5t-57.5 109t-20 134q0 68 21.5 129.5t59.5 107.5t92 73t118 27q54 0 103 -22t82 -59l20 78h40v-232h-34q-27 88 -79 138.5t-130 50.5q-53 0 -93.5 -21.5t-68 -59t-41.5 -90t-14 -114.5q0 -139 60 -219.5t161 -80.5q37 0 68.5 13
t52.5 34q30 30 42.5 71t12.5 95v28h-123v40h284v-40h-91v-280h-36l-30 98q-28 -52 -78 -79.5t-110 -27.5zM301 -274l-12 26q36 19 53 39.5t21 47.5l-2 2q-4 -3 -9 -4.5t-12 -1.5q-16 0 -27.5 12t-11.5 30t13 32t33 14q25 0 38 -17t13 -45q0 -44 -24 -78.5t-73 -56.5z" />
    <glyph glyph-name="uni0123" unicode="&#x123;" horiz-adv-x="463" 
d="M212 -156q-89 0 -138 30t-49 74q0 34 26.5 58t68.5 33v2q-40 11 -57 27t-17 40t22.5 43.5t62.5 28.5q-37 19 -57.5 48t-20.5 75q0 35 13.5 62t36.5 45.5t53 28.5t64 10q19 0 39 -4t38 -12q23 42 52 66t62 24q22 0 37 -13t15 -35q0 -18 -11.5 -31t-30.5 -13
q-17 0 -27 11.5t-10 27.5v4.5t1 5.5q-13 -1 -31 -16.5t-32 -43.5q28 -18 47 -47t19 -68q0 -69 -46 -107t-121 -38q-16 0 -32.5 1.5t-29.5 1.5q-25 0 -41.5 -12.5t-16.5 -28.5q0 -21 25.5 -30.5t64.5 -9.5h117q63 0 91.5 -24.5t28.5 -68.5q0 -60 -59 -102.5t-157 -42.5z
M225 192q43 0 68.5 29t25.5 83q0 48 -26.5 81t-74.5 33q-42 0 -69 -28.5t-27 -85.5q0 -56 29.5 -84t73.5 -28zM215 -122q72 0 114 27t42 67q0 28 -19 42.5t-53 14.5h-112q-46 0 -72.5 -20.5t-26.5 -57.5q0 -33 32 -53t95 -20zM273 724l12 -26q-36 -19 -53 -39.5t-21 -47.5
l2 -2q4 3 9 4.5t12 1.5q16 0 27.5 -12t11.5 -30t-13 -32t-33 -14q-25 0 -38 17t-13 45q0 44 24 78.5t73 56.5z" />
    <glyph glyph-name="Hbar" unicode="&#x126;" horiz-adv-x="758" 
d="M34 0v40h110v418h-110v36h110v114h-110v40h280v-40h-100v-114h330v114h-100v40h280v-40h-110v-114h110v-36h-110v-418h110v-40h-280v40h100v266h-330v-266h100v-40h-280zM214 344h330v114h-330v-114z" />
    <glyph glyph-name="hbar" unicode="&#x127;" horiz-adv-x="544" 
d="M22 0v40h76v475h-76v34h76v99h-76v39h140v-138h129v-34h-129v-186q40 71 84.5 97t83.5 26q58 0 90 -36t32 -106v-270h76v-40h-210v40h70v234q0 37 -5.5 62.5t-20.5 40.5q-12 13 -27.5 17.5t-32.5 4.5q-28 0 -53.5 -14.5t-44.5 -36t-30.5 -47t-11.5 -46.5v-215h70v-40
h-210z" />
    <glyph glyph-name="Imacron" unicode="&#x12a;" horiz-adv-x="366" 
d="M38 0v40h110v568h-110v40h290v-40h-110v-568h110v-40h-290zM59 755v53h251v-53h-251z" />
    <glyph glyph-name="imacron" unicode="&#x12b;" horiz-adv-x="287" 
d="M33 0v40h86v363h-86v40h150v-403h86v-40h-236zM15 542v53h251v-53h-251z" />
    <glyph glyph-name="Ibreve" unicode="&#x12c;" horiz-adv-x="366" 
d="M38 0v40h110v568h-110v40h290v-40h-110v-568h110v-40h-290zM184 743q-52 0 -85.5 38.5t-36.5 104.5h24q12 -41 35.5 -65t62.5 -24t62.5 24t35.5 65h24q-3 -66 -36.5 -104.5t-85.5 -38.5z" />
    <glyph glyph-name="ibreve" unicode="&#x12d;" horiz-adv-x="287" 
d="M33 0v40h86v363h-86v40h150v-403h86v-40h-236zM140 530q-52 0 -85.5 38.5t-36.5 104.5h24q12 -41 35.5 -65t62.5 -24t62.5 24t35.5 65h24q-3 -66 -36.5 -104.5t-85.5 -38.5z" />
    <glyph glyph-name="Iogonek" unicode="&#x12e;" horiz-adv-x="366" 
d="M38 0v40h110v568h-110v40h290v-40h-110v-568h110v-40h-96l-17 -18q-41 -43 -57 -72t-16 -51q0 -25 15.5 -39t37.5 -14q19 0 34 8t25 15l16 -22q-18 -17 -40.5 -28.5t-48.5 -11.5q-41 0 -66 23t-25 60q0 34 22.5 65.5t69.5 72.5l14 12h-158z" />
    <glyph glyph-name="iogonek" unicode="&#x12f;" horiz-adv-x="287" 
d="M145 550q-21 0 -35 13.5t-14 35.5q0 21 13.5 35.5t35.5 14.5q19 0 33 -13.5t14 -35.5t-14 -36t-33 -14zM33 0v40h86v363h-86v40h150v-403h86v-40h-75l-17 -18q-41 -43 -57 -72t-16 -51q0 -25 15.5 -39t37.5 -14q19 0 34 8t25 15l16 -22q-18 -17 -40.5 -28.5t-48.5 -11.5
q-41 0 -66 23t-25 60q0 34 22.5 65.5t69.5 72.5l14 12h-125z" />
    <glyph glyph-name="Idotaccent" unicode="&#x130;" horiz-adv-x="366" 
d="M38 0v40h110v568h-110v40h290v-40h-110v-568h110v-40h-290zM184 740q-19 0 -33 12.5t-14 34.5q0 20 13.5 34t33.5 14q17 0 31 -13t14 -34q0 -22 -13.5 -35t-31.5 -13z" />
    <glyph glyph-name="dotlessi" unicode="&#x131;" horiz-adv-x="287" 
d="M33 0v40h86v363h-86v40h150v-403h86v-40h-236z" />
    <glyph glyph-name="uni0136" unicode="&#x136;" horiz-adv-x="712" 
d="M34 0v40h110v568h-110v40h280v-40h-100v-325l322 325h-92v40h241v-40h-85l-232 -229l254 -339h78v-40h-259v40h94l-215 292l-106 -105v-187h100v-40h-280zM306 -274l-12 26q36 19 53 39.5t21 47.5l-2 2q-4 -3 -9 -4.5t-12 -1.5q-16 0 -27.5 12t-11.5 30t13 32t33 14
q25 0 38 -17t13 -45q0 -44 -24 -78.5t-73 -56.5z" />
    <glyph glyph-name="uni0137" unicode="&#x137;" horiz-adv-x="507" 
d="M22 0v40h76v608h-76v39h140v-491l196 208h-75v39h194v-40h-67l-124 -128l154 -235h59v-40h-195v39h63l-125 193l-80 -83v-109h67v-40h-207zM201 -274l-12 26q36 19 53 39.5t21 47.5l-2 2q-4 -3 -9 -4.5t-12 -1.5q-16 0 -27.5 12t-11.5 30t13 32t33 14q25 0 38 -17t13 -45
q0 -44 -24 -78.5t-73 -56.5z" />
    <glyph glyph-name="Lacute" unicode="&#x139;" horiz-adv-x="603" 
d="M34 0v40h110v568h-110v40h301v-40h-121v-568h244q15 0 25 9.5t17.5 32.5t14.5 63t16 100h32v-245h-529zM165 736l51 126q15 37 27 52.5t29 15.5q12 0 21 -8.5t9 -23.5q0 -16 -11.5 -33.5t-33.5 -45.5l-64 -83h-28z" />
    <glyph glyph-name="lacute" unicode="&#x13a;" horiz-adv-x="272" 
d="M18 0v40h86v608h-86v39h150v-647h86v-40h-236zM110 767l51 126q15 37 27 52.5t29 15.5q12 0 21 -8.5t9 -23.5q0 -16 -11.5 -33.5t-33.5 -45.5l-64 -83h-28z" />
    <glyph glyph-name="uni013B" unicode="&#x13b;" horiz-adv-x="603" 
d="M34 0v40h110v568h-110v40h301v-40h-121v-568h244q15 0 25 9.5t17.5 32.5t14.5 63t16 100h32v-245h-529zM271 -274l-12 26q36 19 53 39.5t21 47.5l-2 2q-4 -3 -9 -4.5t-12 -1.5q-16 0 -27.5 12t-11.5 30t13 32t33 14q25 0 38 -17t13 -45q0 -44 -24 -78.5t-73 -56.5z" />
    <glyph glyph-name="uni013C" unicode="&#x13c;" horiz-adv-x="272" 
d="M18 0v40h86v608h-86v39h150v-647h86v-40h-236zM86 -274l-12 26q36 19 53 39.5t21 47.5l-2 2q-4 -3 -9 -4.5t-12 -1.5q-16 0 -27.5 12t-11.5 30t13 32t33 14q25 0 38 -17t13 -45q0 -44 -24 -78.5t-73 -56.5z" />
    <glyph glyph-name="Lcaron" unicode="&#x13d;" horiz-adv-x="603" 
d="M34 0v40h110v568h-110v40h301v-40h-121v-568h244q15 0 25 9.5t17.5 32.5t14.5 63t16 100h32v-245h-529zM406 500l-2 145q-1 41 11 54t25 13q10 0 19.5 -8.5t9.5 -27.5q0 -12 -3 -27.5t-8 -37.5l-28 -111h-24z" />
    <glyph glyph-name="lcaron" unicode="&#x13e;" horiz-adv-x="272" 
d="M18 0v40h86v608h-86v39h150v-647h86v-40h-236zM244 539l-2 145q-1 41 11 54t25 13q10 0 19.5 -8.5t9.5 -27.5q0 -12 -3 -27.5t-8 -37.5l-28 -111h-24z" />
    <glyph glyph-name="Ldot" unicode="&#x13f;" horiz-adv-x="603" 
d="M34 0v40h110v568h-110v40h301v-40h-121v-568h244q31 0 42.5 41t30.5 154h32v-235h-529zM475 313q-19 0 -33 12.5t-14 34.5q0 20 13.5 34t33.5 14q17 0 31 -13t14 -34q0 -22 -13.5 -35t-31.5 -13z" />
    <glyph glyph-name="ldot" unicode="&#x140;" horiz-adv-x="362" 
d="M18 0v40h86v608h-86v39h150v-647h86v-40h-236zM318 301q-19 0 -33 12.5t-14 34.5q0 20 13.5 34t33.5 14q17 0 31 -13t14 -34q0 -22 -13.5 -35t-31.5 -13z" />
    <glyph glyph-name="Lslash" unicode="&#x141;" horiz-adv-x="603" 
d="M34 0v40h110v251l-86 -29v40l86 28v278h-110v40h301v-40h-121v-255l188 63v-38l-188 -64v-274h244q15 0 25 9.5t17.5 32.5t14.5 63t16 100h32v-245h-529z" />
    <glyph glyph-name="lslash" unicode="&#x142;" horiz-adv-x="288" 
d="M26 0v40h86v276l-82 -27v36l82 27v296h-86v39h150v-313l88 30v-36l-88 -30v-298h86v-40h-236z" />
    <glyph glyph-name="Nacute" unicode="&#x143;" horiz-adv-x="747" 
d="M587 -16l-400 579h-2v-523h97v-40h-248v40h105v568h-105v40h178l365 -529h2v489h-99v40h243v-40h-98v-624h-38zM360 736l51 126q15 37 27 52.5t29 15.5q12 0 21 -8.5t9 -23.5q0 -16 -11.5 -33.5t-33.5 -45.5l-64 -83h-28z" />
    <glyph glyph-name="nacute" unicode="&#x144;" horiz-adv-x="556" 
d="M34 0v40h76v363h-76v40h138v-115q41 72 86 98t84 26q58 0 90 -36t32 -106v-270h75v-40h-209v40h70v234q0 37 -5.5 62.5t-20.5 40.5q-12 13 -27.5 17.5t-32.5 4.5q-28 0 -53.5 -14.5t-44.5 -36t-30.5 -47t-11.5 -46.5v-215h70v-40h-210zM267 523l51 126q15 37 27 52.5
t29 15.5q12 0 21 -8.5t9 -23.5q0 -16 -11.5 -33.5t-33.5 -45.5l-64 -83h-28z" />
    <glyph glyph-name="uni0145" unicode="&#x145;" horiz-adv-x="747" 
d="M587 -16l-400 579h-2v-523h97v-40h-248v40h105v568h-105v40h178l365 -529h2v489h-99v40h243v-40h-98v-624h-38zM336 -274l-12 26q36 19 53 39.5t21 47.5l-2 2q-4 -3 -9 -4.5t-12 -1.5q-16 0 -27.5 12t-11.5 30t13 32t33 14q25 0 38 -17t13 -45q0 -44 -24 -78.5t-73 -56.5
z" />
    <glyph glyph-name="uni0146" unicode="&#x146;" horiz-adv-x="556" 
d="M34 0v40h76v363h-76v40h138v-115q41 72 86 98t84 26q58 0 90 -36t32 -106v-270h75v-40h-209v40h70v234q0 37 -5.5 62.5t-20.5 40.5q-12 13 -27.5 17.5t-32.5 4.5q-28 0 -53.5 -14.5t-44.5 -36t-30.5 -47t-11.5 -46.5v-215h70v-40h-210zM243 -274l-12 26q36 19 53 39.5
t21 47.5l-2 2q-4 -3 -9 -4.5t-12 -1.5q-16 0 -27.5 12t-11.5 30t13 32t33 14q25 0 38 -17t13 -45q0 -44 -24 -78.5t-73 -56.5z" />
    <glyph glyph-name="Ncaron" unicode="&#x147;" horiz-adv-x="747" 
d="M587 -16l-400 579h-2v-523h97v-40h-248v40h105v568h-105v40h178l365 -529h2v489h-99v40h243v-40h-98v-624h-38zM363 746l-106 179h31l92 -108l92 108h31l-106 -179h-34z" />
    <glyph glyph-name="ncaron" unicode="&#x148;" horiz-adv-x="556" 
d="M34 0v40h76v363h-76v40h138v-115q41 72 86 98t84 26q58 0 90 -36t32 -106v-270h75v-40h-209v40h70v234q0 37 -5.5 62.5t-20.5 40.5q-12 13 -27.5 17.5t-32.5 4.5q-28 0 -53.5 -14.5t-44.5 -36t-30.5 -47t-11.5 -46.5v-215h70v-40h-210zM270 533l-106 179h31l92 -108
l92 108h31l-106 -179h-34z" />
    <glyph glyph-name="Omacron" unicode="&#x14c;" horiz-adv-x="704" 
d="M352 -16q-63 0 -117.5 25t-94.5 69.5t-63 107.5t-23 138q0 72 23 134t62.5 107t94.5 71t118 26q65 0 119.5 -25.5t94 -70.5t62 -107.5t22.5 -135.5q0 -74 -23.5 -136.5t-64 -107t-95 -70t-115.5 -25.5zM352 27q101 0 161.5 81t60.5 215q0 66 -16 121t-44.5 93.5t-70 60
t-91.5 21.5t-91.5 -21.5t-70 -60t-44.5 -93t-16 -120.5t16 -121t44.5 -94t70 -60.5t91.5 -21.5zM227 755v53h251v-53h-251z" />
    <glyph glyph-name="omacron" unicode="&#x14d;" horiz-adv-x="498" 
d="M249 -9q-44 0 -82 16t-66 45.5t-44 71.5t-16 93q0 52 17 95.5t45 74.5t66 48t80 17q44 0 82 -16t66 -45.5t44 -72t16 -93.5q0 -52 -17 -95.5t-45 -74t-66 -47.5t-80 -17zM252 27q53 0 94.5 48t41.5 147q0 50 -12.5 87t-32.5 60.5t-45.5 35t-51.5 11.5q-53 0 -94.5 -48.5
t-41.5 -147.5q0 -50 12.5 -86.5t32.5 -60t45.5 -35t51.5 -11.5zM124 542v53h251v-53h-251z" />
    <glyph glyph-name="Obreve" unicode="&#x14e;" horiz-adv-x="704" 
d="M352 -16q-63 0 -117.5 25t-94.5 69.5t-63 107.5t-23 138q0 72 23 134t62.5 107t94.5 71t118 26q65 0 119.5 -25.5t94 -70.5t62 -107.5t22.5 -135.5q0 -74 -23.5 -136.5t-64 -107t-95 -70t-115.5 -25.5zM352 27q101 0 161.5 81t60.5 215q0 66 -16 121t-44.5 93.5t-70 60
t-91.5 21.5t-91.5 -21.5t-70 -60t-44.5 -93t-16 -120.5t16 -121t44.5 -94t70 -60.5t91.5 -21.5zM352 743q-52 0 -85.5 38.5t-36.5 104.5h24q12 -41 35.5 -65t62.5 -24t62.5 24t35.5 65h24q-3 -66 -36.5 -104.5t-85.5 -38.5z" />
    <glyph glyph-name="obreve" unicode="&#x14f;" horiz-adv-x="498" 
d="M249 -9q-44 0 -82 16t-66 45.5t-44 71.5t-16 93q0 52 17 95.5t45 74.5t66 48t80 17q44 0 82 -16t66 -45.5t44 -72t16 -93.5q0 -52 -17 -95.5t-45 -74t-66 -47.5t-80 -17zM252 27q53 0 94.5 48t41.5 147q0 50 -12.5 87t-32.5 60.5t-45.5 35t-51.5 11.5q-53 0 -94.5 -48.5
t-41.5 -147.5q0 -50 12.5 -86.5t32.5 -60t45.5 -35t51.5 -11.5zM249 530q-52 0 -85.5 38.5t-36.5 104.5h24q12 -41 35.5 -65t62.5 -24t62.5 24t35.5 65h24q-3 -66 -36.5 -104.5t-85.5 -38.5z" />
    <glyph glyph-name="Ohungarumlaut" unicode="&#x150;" horiz-adv-x="704" 
d="M352 -16q-63 0 -117.5 25t-94.5 69.5t-63 107.5t-23 138q0 72 23 134t62.5 107t94.5 71t118 26q65 0 119.5 -25.5t94 -70.5t62 -107.5t22.5 -135.5q0 -74 -23.5 -136.5t-64 -107t-95 -70t-115.5 -25.5zM352 27q101 0 161.5 81t60.5 215q0 66 -16 121t-44.5 93.5t-70 60
t-91.5 21.5t-91.5 -21.5t-70 -60t-44.5 -93t-16 -120.5t16 -121t44.5 -94t70 -60.5t91.5 -21.5zM269 736l57 126q16 37 27.5 52.5t28.5 15.5q11 0 20.5 -8.5t9.5 -23.5q0 -14 -12 -31.5t-34 -45.5l-69 -85h-28zM409 736l57 126q16 37 27.5 52.5t28.5 15.5q11 0 20.5 -8.5
t9.5 -23.5q0 -14 -12 -31.5t-34 -45.5l-69 -85h-28z" />
    <glyph glyph-name="ohungarumlaut" unicode="&#x151;" horiz-adv-x="498" 
d="M249 -9q-44 0 -82 16t-66 45.5t-44 71.5t-16 93q0 52 17 95.5t45 74.5t66 48t80 17q44 0 82 -16t66 -45.5t44 -72t16 -93.5q0 -52 -17 -95.5t-45 -74t-66 -47.5t-80 -17zM252 27q53 0 94.5 48t41.5 147q0 50 -12.5 87t-32.5 60.5t-45.5 35t-51.5 11.5q-53 0 -94.5 -48.5
t-41.5 -147.5q0 -50 12.5 -86.5t32.5 -60t45.5 -35t51.5 -11.5zM166 523l57 126q16 37 27.5 52.5t28.5 15.5q11 0 20.5 -8.5t9.5 -23.5q0 -14 -12 -31.5t-34 -45.5l-69 -85h-28zM306 523l57 126q16 37 27.5 52.5t28.5 15.5q11 0 20.5 -8.5t9.5 -23.5q0 -14 -12 -31.5
t-34 -45.5l-69 -85h-28z" />
    <glyph glyph-name="OE" unicode="&#x152;" horiz-adv-x="972" 
d="M397 0q-88 0 -153 22.5t-107.5 63.5t-63.5 99t-21 129t20 132t61.5 106t106.5 70.5t153 25.5h511v-196h-32q-7 51 -13 82t-14.5 47t-20.5 21.5t-31 5.5h-247v-257h123q36 0 46.5 16.5t18.5 82.5h31v-238h-31q-4 35 -8 55.5t-10.5 31t-17.5 13.5t-29 3h-123v-275h247
q22 0 36 5.5t22.5 24t15 53.5t14.5 93h32v-216h-516zM394 40h82v568h-87q-135 0 -198 -75.5t-63 -218.5q0 -127 64 -200.5t202 -73.5z" />
    <glyph glyph-name="oe" unicode="&#x153;" horiz-adv-x="810" 
d="M249 -9q-44 0 -82 16t-66 45.5t-44 71.5t-16 93q0 52 17 95.5t45 74.5t66 48t80 17q56 0 102 -28t72 -77q27 49 71.5 77t96.5 28q47 0 81.5 -20t56.5 -52.5t32.5 -74.5t9.5 -86h-316q1 -90 42 -137t104 -47q41 0 75.5 19t54.5 72h37q-21 -66 -67 -100.5t-110 -34.5
q-59 0 -103.5 28.5t-69.5 77.5q-27 -49 -72 -77.5t-97 -28.5zM252 27q53 0 94.5 48t41.5 147q0 50 -12.5 87t-32.5 60.5t-45.5 35t-51.5 11.5q-53 0 -94.5 -48.5t-41.5 -147.5q0 -50 12.5 -86.5t32.5 -60t45.5 -35t51.5 -11.5zM457 259h246q-5 75 -34.5 116t-79.5 41
q-52 0 -88.5 -42t-43.5 -115z" />
    <glyph glyph-name="Racute" unicode="&#x154;" horiz-adv-x="670" 
d="M571 -11q-40 0 -65.5 24.5t-26.5 91.5l-2 79q-1 60 -29 86t-102 26h-132v-256h111v-40h-291v40h110v568h-110v40h317q108 0 166 -46.5t58 -121.5q0 -51 -34.5 -98t-115.5 -63v-2q64 -17 92 -50.5t32 -92.5l7 -90q2 -24 12 -35t26 -11q17 0 29 12.5t22 38.5l25 -13
q-15 -41 -37.5 -64t-61.5 -23zM214 333h127q83 0 119.5 42t36.5 109q0 60 -35.5 92t-107.5 32h-140v-275zM325 736l51 126q15 37 27 52.5t29 15.5q12 0 21 -8.5t9 -23.5q0 -16 -11.5 -33.5t-33.5 -45.5l-64 -83h-28z" />
    <glyph glyph-name="racute" unicode="&#x155;" horiz-adv-x="391" 
d="M34 0v40h76v363h-76v40h138v-105q25 56 62 84t76 28q31 0 48.5 -19t17.5 -44q0 -21 -13.5 -36.5t-35.5 -15.5q-19 0 -32.5 13t-13.5 33q0 6 1.5 11.5t3.5 10.5q-20 2 -38.5 -8.5t-33 -27t-25.5 -35t-15 -32.5v-260h90v-40h-230zM197 523l51 126q15 37 27 52.5t29 15.5
q12 0 21 -8.5t9 -23.5q0 -16 -11.5 -33.5t-33.5 -45.5l-64 -83h-28z" />
    <glyph glyph-name="uni0156" unicode="&#x156;" horiz-adv-x="670" 
d="M571 -11q-40 0 -65.5 24.5t-26.5 91.5l-2 79q-1 60 -29 86t-102 26h-132v-256h111v-40h-291v40h110v568h-110v40h317q108 0 166 -46.5t58 -121.5q0 -51 -34.5 -98t-115.5 -63v-2q64 -17 92 -50.5t32 -92.5l7 -90q2 -24 12 -35t26 -11q17 0 29 12.5t22 38.5l25 -13
q-15 -41 -37.5 -64t-61.5 -23zM214 333h127q83 0 119.5 42t36.5 109q0 60 -35.5 92t-107.5 32h-140v-275zM301 -274l-12 26q36 19 53 39.5t21 47.5l-2 2q-4 -3 -9 -4.5t-12 -1.5q-16 0 -27.5 12t-11.5 30t13 32t33 14q25 0 38 -17t13 -45q0 -44 -24 -78.5t-73 -56.5z" />
    <glyph glyph-name="uni0157" unicode="&#x157;" horiz-adv-x="391" 
d="M34 0v40h76v363h-76v40h138v-105q25 56 62 84t76 28q31 0 48.5 -19t17.5 -44q0 -21 -13.5 -36.5t-35.5 -15.5q-19 0 -32.5 13t-13.5 33q0 6 1.5 11.5t3.5 10.5q-20 2 -38.5 -8.5t-33 -27t-25.5 -35t-15 -32.5v-260h90v-40h-230zM103 -274l-12 26q36 19 53 39.5t21 47.5
l-2 2q-4 -3 -9 -4.5t-12 -1.5q-16 0 -27.5 12t-11.5 30t13 32t33 14q25 0 38 -17t13 -45q0 -44 -24 -78.5t-73 -56.5z" />
    <glyph glyph-name="Rcaron" unicode="&#x158;" horiz-adv-x="670" 
d="M571 -11q-40 0 -65.5 24.5t-26.5 91.5l-2 79q-1 60 -29 86t-102 26h-132v-256h111v-40h-291v40h110v568h-110v40h317q108 0 166 -46.5t58 -121.5q0 -51 -34.5 -98t-115.5 -63v-2q64 -17 92 -50.5t32 -92.5l7 -90q2 -24 12 -35t26 -11q17 0 29 12.5t22 38.5l25 -13
q-15 -41 -37.5 -64t-61.5 -23zM214 333h127q83 0 119.5 42t36.5 109q0 60 -35.5 92t-107.5 32h-140v-275zM328 746l-106 179h31l92 -108l92 108h31l-106 -179h-34z" />
    <glyph glyph-name="rcaron" unicode="&#x159;" horiz-adv-x="391" 
d="M34 0v40h76v363h-76v40h138v-105q25 56 62 84t76 28q31 0 48.5 -19t17.5 -44q0 -21 -13.5 -36.5t-35.5 -15.5q-19 0 -32.5 13t-13.5 33q0 6 1.5 11.5t3.5 10.5q-20 2 -38.5 -8.5t-33 -27t-25.5 -35t-15 -32.5v-260h90v-40h-230zM200 533l-106 179h31l92 -108l92 108h31
l-106 -179h-34z" />
    <glyph glyph-name="Sacute" unicode="&#x15a;" horiz-adv-x="561" 
d="M315 -16q-64 0 -113 24t-89 65l-22 -86h-35v218h33q41 -93 99.5 -138.5t131.5 -45.5q56 0 94.5 32.5t38.5 96.5q0 35 -12 58.5t-35 39t-56 26.5t-76 22q-40 10 -78 23t-67 33t-46.5 51t-17.5 77q0 80 53 131t142 51q54 0 98 -21.5t73 -53.5l20 72h35v-206h-33
q-33 94 -87 133.5t-111 39.5q-50 0 -89 -31.5t-39 -92.5q0 -35 13 -58.5t35 -38.5t52.5 -25t65.5 -19q46 -12 86.5 -25t70.5 -32.5t47.5 -49.5t17.5 -76q0 -85 -56.5 -139.5t-143.5 -54.5zM265 736l51 126q15 37 27 52.5t29 15.5q12 0 21 -8.5t9 -23.5q0 -16 -11.5 -33.5
t-33.5 -45.5l-64 -83h-28z" />
    <glyph glyph-name="sacute" unicode="&#x15b;" horiz-adv-x="425" 
d="M45 -9v168h33q18 -63 56.5 -98t96.5 -35q42 0 69.5 20.5t27.5 54.5q0 37 -28.5 56t-94.5 38q-82 23 -117 52.5t-35 78.5t40.5 87.5t105.5 38.5q40 0 72 -14.5t49 -40.5l12 55h32v-152h-31q-24 58 -53 87.5t-81 29.5q-36 0 -62 -19t-26 -51q0 -34 28.5 -54.5t90.5 -37.5
q84 -24 118.5 -51.5t34.5 -81.5q0 -25 -10.5 -48.5t-29.5 -42t-47 -29.5t-62 -11q-49 0 -86 18t-60 47l-11 -65h-32zM200 523l51 126q15 37 27 52.5t29 15.5q12 0 21 -8.5t9 -23.5q0 -16 -11.5 -33.5t-33.5 -45.5l-64 -83h-28z" />
    <glyph glyph-name="Scedilla" unicode="&#x15e;" horiz-adv-x="561" 
d="M286 -233q-25 0 -50 8t-47 22l16 28q19 -11 37.5 -17.5t40.5 -6.5q25 0 41.5 12.5t16.5 35.5q0 25 -21 36.5t-49 11.5q-13 0 -23.5 -2t-17.5 -4l-13 17l76 77q-56 4 -100 27.5t-80 60.5l-22 -86h-35v218h33q41 -93 99.5 -138.5t131.5 -45.5q56 0 94.5 32.5t38.5 96.5
q0 35 -12 58.5t-35 39t-56 26.5t-76 22q-40 10 -78 23t-67 33t-46.5 51t-17.5 77q0 80 53 131t142 51q54 0 98 -21.5t73 -53.5l20 72h35v-206h-33q-33 94 -87 133.5t-111 39.5q-50 0 -89 -31.5t-39 -92.5q0 -35 13 -58.5t35 -38.5t52.5 -25t65.5 -19q46 -12 86.5 -25
t70.5 -32.5t47.5 -49.5t17.5 -76q0 -81 -50.5 -134t-129.5 -59l-55 -54l1 -2q48 0 78 -21t30 -57q0 -37 -28.5 -60.5t-74.5 -23.5z" />
    <glyph glyph-name="scedilla" unicode="&#x15f;" horiz-adv-x="425" 
d="M45 -9v168h33q18 -63 56.5 -98t96.5 -35q42 0 69.5 20.5t27.5 54.5q0 37 -28.5 56t-94.5 38q-82 23 -117 52.5t-35 78.5t40.5 87.5t105.5 38.5q40 0 72 -14.5t49 -40.5l12 55h32v-152h-31q-24 58 -53 87.5t-81 29.5q-36 0 -62 -19t-26 -51q0 -34 28.5 -54.5t90.5 -37.5
q84 -24 118.5 -51.5t34.5 -81.5q0 -46 -33.5 -84t-91.5 -45l-62 -62l1 -2q48 0 78 -21t30 -57q0 -37 -28.5 -60.5t-74.5 -23.5q-25 0 -50 8t-47 22l16 28q19 -11 37.5 -17.5t40.5 -6.5q25 0 41.5 12.5t16.5 35.5q0 25 -21 36.5t-49 11.5q-13 0 -23.5 -2t-17.5 -4l-13 17
l83 84q-42 3 -74.5 20.5t-53.5 43.5l-11 -65h-32z" />
    <glyph glyph-name="Scaron" unicode="&#x160;" horiz-adv-x="561" 
d="M315 -16q-64 0 -113 24t-89 65l-22 -86h-35v218h33q41 -93 99.5 -138.5t131.5 -45.5q56 0 94.5 32.5t38.5 96.5q0 35 -12 58.5t-35 39t-56 26.5t-76 22q-40 10 -78 23t-67 33t-46.5 51t-17.5 77q0 80 53 131t142 51q54 0 98 -21.5t73 -53.5l20 72h35v-206h-33
q-33 94 -87 133.5t-111 39.5q-50 0 -89 -31.5t-39 -92.5q0 -35 13 -58.5t35 -38.5t52.5 -25t65.5 -19q46 -12 86.5 -25t70.5 -32.5t47.5 -49.5t17.5 -76q0 -85 -56.5 -139.5t-143.5 -54.5zM268 746l-106 179h31l92 -108l92 108h31l-106 -179h-34z" />
    <glyph glyph-name="scaron" unicode="&#x161;" horiz-adv-x="425" 
d="M45 -9v168h33q18 -63 56.5 -98t96.5 -35q42 0 69.5 20.5t27.5 54.5q0 37 -28.5 56t-94.5 38q-82 23 -117 52.5t-35 78.5t40.5 87.5t105.5 38.5q40 0 72 -14.5t49 -40.5l12 55h32v-152h-31q-24 58 -53 87.5t-81 29.5q-36 0 -62 -19t-26 -51q0 -34 28.5 -54.5t90.5 -37.5
q84 -24 118.5 -51.5t34.5 -81.5q0 -25 -10.5 -48.5t-29.5 -42t-47 -29.5t-62 -11q-49 0 -86 18t-60 47l-11 -65h-32zM203 533l-106 179h31l92 -108l92 108h31l-106 -179h-34z" />
    <glyph glyph-name="uni0162" unicode="&#x162;" horiz-adv-x="664" 
d="M183 0v40h114v568h-124q-25 0 -39.5 -7t-23.5 -26.5t-14.5 -55t-13.5 -91.5h-31v220h562v-220h-31q-8 56 -13.5 91.5t-14.5 55t-23.5 26.5t-39.5 7h-124v-568h114v-40h-298zM288 -274l-12 26q36 19 53 39.5t21 47.5l-2 2q-4 -3 -9 -4.5t-12 -1.5q-16 0 -27.5 12t-11.5 30
t13 32t33 14q25 0 38 -17t13 -45q0 -44 -24 -78.5t-73 -56.5z" />
    <glyph glyph-name="uni0162" unicode="&#x21a;" horiz-adv-x="664" 
d="M183 0v40h114v568h-124q-25 0 -39.5 -7t-23.5 -26.5t-14.5 -55t-13.5 -91.5h-31v220h562v-220h-31q-8 56 -13.5 91.5t-14.5 55t-23.5 26.5t-39.5 7h-124v-568h114v-40h-298zM288 -274l-12 26q36 19 53 39.5t21 47.5l-2 2q-4 -3 -9 -4.5t-12 -1.5q-16 0 -27.5 12t-11.5 30
t13 32t33 14q25 0 38 -17t13 -45q0 -44 -24 -78.5t-73 -56.5z" />
    <glyph glyph-name="uni0163" unicode="&#x163;" horiz-adv-x="341" 
d="M208 -9q-54 0 -81 32.5t-27 89.5v290h-92v40h92v124l64 10v-134h145v-40h-145v-294q0 -34 15 -53t43 -19t46.5 19.5t31.5 61.5l29 -10q-18 -66 -49 -91.5t-72 -25.5zM131 -274l-12 26q36 19 53 39.5t21 47.5l-2 2q-4 -3 -9 -4.5t-12 -1.5q-16 0 -27.5 12t-11.5 30t13 32
t33 14q25 0 38 -17t13 -45q0 -44 -24 -78.5t-73 -56.5z" />
    <glyph glyph-name="uni0163" unicode="&#x21b;" horiz-adv-x="341" 
d="M208 -9q-54 0 -81 32.5t-27 89.5v290h-92v40h92v124l64 10v-134h145v-40h-145v-294q0 -34 15 -53t43 -19t46.5 19.5t31.5 61.5l29 -10q-18 -66 -49 -91.5t-72 -25.5zM131 -274l-12 26q36 19 53 39.5t21 47.5l-2 2q-4 -3 -9 -4.5t-12 -1.5q-16 0 -27.5 12t-11.5 30t13 32
t33 14q25 0 38 -17t13 -45q0 -44 -24 -78.5t-73 -56.5z" />
    <glyph glyph-name="Tcaron" unicode="&#x164;" horiz-adv-x="664" 
d="M183 0v40h114v568h-124q-25 0 -39.5 -7t-23.5 -26.5t-14.5 -55t-13.5 -91.5h-31v220h562v-220h-31q-8 56 -13.5 91.5t-14.5 55t-23.5 26.5t-39.5 7h-124v-568h114v-40h-298zM315 746l-106 179h31l92 -108l92 108h31l-106 -179h-34z" />
    <glyph glyph-name="tcaron" unicode="&#x165;" horiz-adv-x="341" 
d="M208 -9q-54 0 -81 32.5t-27 89.5v290h-92v40h92v124l64 10v-134h145v-40h-145v-294q0 -34 15 -53t43 -19t46.5 19.5t31.5 61.5l29 -10q-18 -66 -49 -91.5t-72 -25.5zM238 539l-2 145q-1 41 11 54t25 13q10 0 19.5 -8.5t9.5 -27.5q0 -12 -3 -27.5t-8 -37.5l-28 -111h-24z
" />
    <glyph glyph-name="Umacron" unicode="&#x16a;" horiz-adv-x="720" 
d="M358 -16q-122 0 -180.5 59.5t-58.5 152.5v412h-95v40h268v-40h-103v-399q0 -94 49 -135t140 -41q40 0 76 12.5t58 34.5q25 25 37 61t12 91v376h-99v40h234v-40h-89v-396q0 -49 -15.5 -91t-46 -72.5t-77.5 -47.5t-110 -17zM250 755v53h251v-53h-251z" />
    <glyph glyph-name="umacron" unicode="&#x16b;" horiz-adv-x="540" 
d="M213 -9q-57 0 -89 36t-32 106v270h-75v40h139v-274q0 -37 5 -63t21 -42q11 -12 27 -16t32 -4q28 0 53 14.5t43.5 36t29.5 47t11 46.5v215h-79v40h143v-403h76v-40h-138v115q-40 -72 -84.5 -98t-82.5 -26zM143 542v53h251v-53h-251z" />
    <glyph glyph-name="Ubreve" unicode="&#x16c;" horiz-adv-x="720" 
d="M358 -16q-122 0 -180.5 59.5t-58.5 152.5v412h-95v40h268v-40h-103v-399q0 -94 49 -135t140 -41q40 0 76 12.5t58 34.5q25 25 37 61t12 91v376h-99v40h234v-40h-89v-396q0 -49 -15.5 -91t-46 -72.5t-77.5 -47.5t-110 -17zM375 743q-52 0 -85.5 38.5t-36.5 104.5h24
q12 -41 35.5 -65t62.5 -24t62.5 24t35.5 65h24q-3 -66 -36.5 -104.5t-85.5 -38.5z" />
    <glyph glyph-name="ubreve" unicode="&#x16d;" horiz-adv-x="540" 
d="M213 -9q-57 0 -89 36t-32 106v270h-75v40h139v-274q0 -37 5 -63t21 -42q11 -12 27 -16t32 -4q28 0 53 14.5t43.5 36t29.5 47t11 46.5v215h-79v40h143v-403h76v-40h-138v115q-40 -72 -84.5 -98t-82.5 -26zM268 530q-52 0 -85.5 38.5t-36.5 104.5h24q12 -41 35.5 -65
t62.5 -24t62.5 24t35.5 65h24q-3 -66 -36.5 -104.5t-85.5 -38.5z" />
    <glyph glyph-name="Uring" unicode="&#x16e;" horiz-adv-x="720" 
d="M358 -16q-122 0 -180.5 59.5t-58.5 152.5v412h-95v40h268v-40h-103v-399q0 -94 49 -135t140 -41q40 0 76 12.5t58 34.5q25 25 37 61t12 91v376h-99v40h234v-40h-89v-396q0 -49 -15.5 -91t-46 -72.5t-77.5 -47.5t-110 -17zM375 730q-51 0 -78 31.5t-27 68.5t27 68.5
t78 31.5t78 -31.5t27 -68.5t-27 -68.5t-78 -31.5zM375 760q28 0 44 20t16 50t-16 50t-44 20t-44 -20t-16 -50t16 -50t44 -20z" />
    <glyph glyph-name="uring" unicode="&#x16f;" horiz-adv-x="540" 
d="M213 -9q-57 0 -89 36t-32 106v270h-75v40h139v-274q0 -37 5 -63t21 -42q11 -12 27 -16t32 -4q28 0 53 14.5t43.5 36t29.5 47t11 46.5v215h-79v40h143v-403h76v-40h-138v115q-40 -72 -84.5 -98t-82.5 -26zM268 517q-51 0 -78 31.5t-27 68.5t27 68.5t78 31.5t78 -31.5
t27 -68.5t-27 -68.5t-78 -31.5zM268 547q28 0 44 20t16 50t-16 50t-44 20t-44 -20t-16 -50t16 -50t44 -20z" />
    <glyph glyph-name="Uhungarumlaut" unicode="&#x170;" horiz-adv-x="720" 
d="M358 -16q-122 0 -180.5 59.5t-58.5 152.5v412h-95v40h268v-40h-103v-399q0 -94 49 -135t140 -41q40 0 76 12.5t58 34.5q25 25 37 61t12 91v376h-99v40h234v-40h-89v-396q0 -49 -15.5 -91t-46 -72.5t-77.5 -47.5t-110 -17zM292 736l57 126q16 37 27.5 52.5t28.5 15.5
q11 0 20.5 -8.5t9.5 -23.5q0 -14 -12 -31.5t-34 -45.5l-69 -85h-28zM432 736l57 126q16 37 27.5 52.5t28.5 15.5q11 0 20.5 -8.5t9.5 -23.5q0 -14 -12 -31.5t-34 -45.5l-69 -85h-28z" />
    <glyph glyph-name="uhungarumlaut" unicode="&#x171;" horiz-adv-x="540" 
d="M213 -9q-57 0 -89 36t-32 106v270h-75v40h139v-274q0 -37 5 -63t21 -42q11 -12 27 -16t32 -4q28 0 53 14.5t43.5 36t29.5 47t11 46.5v215h-79v40h143v-403h76v-40h-138v115q-40 -72 -84.5 -98t-82.5 -26zM185 523l57 126q16 37 27.5 52.5t28.5 15.5q11 0 20.5 -8.5
t9.5 -23.5q0 -14 -12 -31.5t-34 -45.5l-69 -85h-28zM325 523l57 126q16 37 27.5 52.5t28.5 15.5q11 0 20.5 -8.5t9.5 -23.5q0 -14 -12 -31.5t-34 -45.5l-69 -85h-28z" />
    <glyph glyph-name="Uogonek" unicode="&#x172;" horiz-adv-x="720" 
d="M361 -233q-41 0 -66 23t-25 60q0 34 22 65t65 69q-122 0 -180 59.5t-58 152.5v412h-95v40h268v-40h-103v-399q0 -94 49 -135t140 -41q40 0 76 12.5t58 34.5q25 25 37 61t12 91v376h-99v40h234v-40h-89v-396q0 -90 -52 -152.5t-156 -73.5l-4 -4q-41 -43 -57 -72t-16 -51
q0 -25 15.5 -39t37.5 -14q19 0 34 8t25 15l16 -22q-18 -17 -40.5 -28.5t-48.5 -11.5z" />
    <glyph glyph-name="uogonek" unicode="&#x173;" horiz-adv-x="540" 
d="M213 -9q-57 0 -89 36t-32 106v270h-75v40h139v-274q0 -37 5 -63t21 -42q11 -12 27 -16t32 -4q28 0 53 14.5t43.5 36t29.5 47t11 46.5v215h-79v40h143v-403h76v-40h-32l-17 -18q-41 -43 -57 -72t-16 -51q0 -25 15.5 -39t37.5 -14q19 0 34 8t25 15l16 -22
q-18 -17 -40.5 -28.5t-48.5 -11.5q-41 0 -66 23t-25 60q0 34 22.5 65.5t69.5 72.5l14 12h-70v115q-40 -72 -84.5 -98t-82.5 -26z" />
    <glyph glyph-name="Wcircumflex" unicode="&#x174;" horiz-adv-x="977" 
d="M278 -4l-193 612h-79v40h249v-40h-96l156 -507h2l153 458l-15 49h-77v40h246v-40h-96l156 -507h2l170 507h-92v40h207v-40h-69l-209 -612h-46l-155 493l-168 -493h-46zM377 737l106 179h34l106 -179h-31l-92 108l-92 -108h-31z" />
    <glyph glyph-name="wcircumflex" unicode="&#x175;" horiz-adv-x="740" 
d="M206 -6l-142 409h-61v40h207v-40h-78l107 -324h2l116 294l-11 30h-61v40h205v-40h-78l112 -324h2l118 324h-73v40h166v-40h-51l-153 -409h-42l-113 320l-130 -320h-42zM262 524l106 179h34l106 -179h-31l-92 108l-92 -108h-31z" />
    <glyph glyph-name="Ycircumflex" unicode="&#x176;" horiz-adv-x="628" 
d="M176 0v40h101v234l-192 334h-82v40h257v-40h-90l159 -284l170 284h-84v40h213v-40h-77l-204 -333v-235h101v-40h-272zM207 737l106 179h34l106 -179h-31l-92 108l-92 -108h-31z" />
    <glyph glyph-name="ycircumflex" unicode="&#x177;" horiz-adv-x="476" 
d="M96 -160q-39 0 -59.5 19t-20.5 44q0 23 14.5 39t36.5 16q19 0 32 -12.5t13 -31.5q0 -12 -3.5 -21t-8.5 -16q25 -2 56.5 21t64.5 101q-13 34 -40 101.5t-54 134.5t-47 117.5l-20 50.5h-60v40h210v-40h-78l123 -327l125 327h-72v40h168v-40h-51l-151 -380
q-42 -105 -85.5 -144t-92.5 -39zM132 524l106 179h34l106 -179h-31l-92 108l-92 -108h-31z" />
    <glyph glyph-name="Ydieresis" unicode="&#x178;" horiz-adv-x="628" 
d="M176 0v40h101v234l-192 334h-82v40h257v-40h-90l159 -284l170 284h-84v40h213v-40h-77l-204 -333v-235h101v-40h-272zM247 759q-19 0 -32 14t-13 34t13 34t32 14t32 -14t13 -34t-13 -34t-32 -14zM413 759q-19 0 -32 14t-13 34t13 34t32 14t32 -14t13 -34t-13 -34t-32 -14
z" />
    <glyph glyph-name="Zacute" unicode="&#x179;" horiz-adv-x="592" 
d="M37 0v25l419 583h-291q-15 0 -25 -4t-18 -21t-15 -52t-16 -95h-32v212h491v-25l-417 -583h311q15 0 25 5t17.5 23.5t14.5 54.5t16 96h32v-219h-512zM280 736l51 126q15 37 27 52.5t29 15.5q12 0 21 -8.5t9 -23.5q0 -16 -11.5 -33.5t-33.5 -45.5l-64 -83h-28z" />
    <glyph glyph-name="zacute" unicode="&#x17a;" horiz-adv-x="479" 
d="M32 0v34l300 374h-196q-28 0 -37.5 -20.5t-20.5 -92.5h-30v148h367v-34l-301 -374h220q26 0 34.5 23t18.5 101h30v-159h-385zM215 523l51 126q15 37 27 52.5t29 15.5q12 0 21 -8.5t9 -23.5q0 -16 -11.5 -33.5t-33.5 -45.5l-64 -83h-28z" />
    <glyph glyph-name="Zdotaccent" unicode="&#x17b;" horiz-adv-x="592" 
d="M37 0v25l419 583h-291q-15 0 -25 -4t-18 -21t-15 -52t-16 -95h-32v212h491v-25l-417 -583h311q15 0 25 5t17.5 23.5t14.5 54.5t16 96h32v-219h-512zM300 740q-19 0 -33 12.5t-14 34.5q0 20 13.5 34t33.5 14q17 0 31 -13t14 -34q0 -22 -13.5 -35t-31.5 -13z" />
    <glyph glyph-name="zdotaccent" unicode="&#x17c;" horiz-adv-x="479" 
d="M32 0v34l300 374h-196q-28 0 -37.5 -20.5t-20.5 -92.5h-30v148h367v-34l-301 -374h220q26 0 34.5 23t18.5 101h30v-159h-385zM235 527q-19 0 -33 12.5t-14 34.5q0 20 13.5 34t33.5 14q17 0 31 -13t14 -34q0 -22 -13.5 -35t-31.5 -13z" />
    <glyph glyph-name="Zcaron" unicode="&#x17d;" horiz-adv-x="592" 
d="M37 0v25l419 583h-291q-15 0 -25 -4t-18 -21t-15 -52t-16 -95h-32v212h491v-25l-417 -583h311q15 0 25 5t17.5 23.5t14.5 54.5t16 96h32v-219h-512zM283 746l-106 179h31l92 -108l92 108h31l-106 -179h-34z" />
    <glyph glyph-name="zcaron" unicode="&#x17e;" horiz-adv-x="479" 
d="M32 0v34l300 374h-196q-28 0 -37.5 -20.5t-20.5 -92.5h-30v148h367v-34l-301 -374h220q26 0 34.5 23t18.5 101h30v-159h-385zM218 533l-106 179h31l92 -108l92 108h31l-106 -179h-34z" />
    <glyph glyph-name="florin" unicode="&#x192;" horiz-adv-x="534" 
d="M86 -150q-46 0 -81 21t-35 62q0 24 14.5 38t33.5 14q21 0 33 -12.5t12 -29.5q0 -14 -7 -25.5t-19 -18.5q4 -4 15.5 -10t29.5 -6q34 0 58.5 32.5t34.5 122.5l37 309h-109v40h114l5 44q8 68 26.5 110.5t42.5 66.5t53 33t57 9q51 0 91 -25t40 -69q0 -25 -15 -41.5t-36 -16.5
q-20 0 -33.5 12.5t-13.5 31.5q0 16 8 28.5t20 20.5q-9 11 -25 18t-36 7q-39 0 -67 -30.5t-38 -108.5l-12 -90h125v-40h-129l-35 -276q-16 -121 -56 -171t-103 -50z" />
    <glyph glyph-name="Aringacute" unicode="&#x1fa;" horiz-adv-x="672" 
d="M3 0v40h69l230 576q-34 10 -52 37t-18 58q0 37 27 68.5t78 31.5t78 -31.5t27 -68.5q0 -30 -17 -57t-50 -37l215 -577h79v-40h-257v40h102l-72 198h-245l-77 -198h92v-40h-209zM337 641q28 0 44 20t16 50t-16 50t-44 20t-44 -20t-16 -50t16 -50t44 -20zM323 559l-111 -283
h216l-103 283h-2zM315 855l51 126q15 37 27 52.5t29 15.5q12 0 21 -8.5t9 -23.5q0 -16 -11.5 -33.5t-33.5 -45.5l-64 -83h-28z" />
    <glyph glyph-name="aringacute" unicode="&#x1fb;" horiz-adv-x="477" 
d="M173 -8q-60 0 -92.5 31.5t-32.5 83.5q0 21 7 41.5t22 35.5q25 25 63.5 38t107.5 25q47 8 59.5 13t12.5 17v42q0 54 -26 75.5t-69 21.5q-29 0 -54.5 -8.5t-39.5 -22.5q13 -7 20 -18t7 -26q0 -21 -13.5 -34.5t-33.5 -13.5q-21 0 -34 13.5t-13 37.5q0 22 14 41t37.5 33.5
t54 23t62.5 8.5q76 0 114 -33t38 -99v-237q0 -28 9 -36.5t21 -8.5q14 0 24 10t20 32l25 -12q-16 -35 -33 -53.5t-51 -18.5q-31 0 -51 19t-21 65h-2q-25 -38 -65 -62t-87 -24zM200 35q45 0 82.5 31t37.5 69v97q-7 -2 -21 -4.5t-31 -5.5q-80 -13 -115 -36.5t-35 -68.5
q0 -41 21.5 -61.5t60.5 -20.5zM240 512q-51 0 -78 31.5t-27 68.5t27 68.5t78 31.5t78 -31.5t27 -68.5t-27 -68.5t-78 -31.5zM240 542q28 0 44 20t16 50t-16 50t-44 20t-44 -20t-16 -50t16 -50t44 -20zM220 785l51 126q15 37 27 52.5t29 15.5q12 0 21 -8.5t9 -23.5
q0 -16 -11.5 -33.5t-33.5 -45.5l-64 -83h-28z" />
    <glyph glyph-name="AEacute" unicode="&#x1fc;" horiz-adv-x="932" 
d="M-17 0v40h79l318 568h-106v40h590v-196h-32q-7 51 -13 82t-14.5 47t-20.5 21.5t-31 5.5h-247v-257h123q36 0 46.5 16.5t18.5 82.5h31v-238h-31q-4 35 -8 55.5t-10.5 31t-17.5 13.5t-29 3h-123v-275h247q22 0 36 5.5t22.5 24t15 53.5t14.5 93h32v-216h-547v40h110v208
h-207l-116 -208h95v-40h-225zM251 286h185v322h-5zM470 742l51 126q15 37 27 52.5t29 15.5q12 0 21 -8.5t9 -23.5q0 -16 -11.5 -33.5t-33.5 -45.5l-64 -83h-28z" />
    <glyph glyph-name="aeacute" unicode="&#x1fd;" horiz-adv-x="735" 
d="M173 -8q-60 0 -92.5 31.5t-32.5 83.5q0 21 7 41.5t22 35.5q25 25 63.5 38t107.5 25q47 8 59.5 13t12.5 17v42q0 54 -26 75.5t-69 21.5q-29 0 -54.5 -8.5t-39.5 -22.5q13 -7 20 -18t7 -26q0 -21 -13.5 -34.5t-33.5 -13.5q-21 0 -34 13.5t-13 37.5q0 22 14 41t37.5 33.5
t54 23t62.5 8.5q54 0 89 -17t50 -51q28 33 65 51.5t80 18.5q47 0 81.5 -20t56.5 -52.5t32.5 -74.5t9.5 -86h-312q1 -90 41.5 -137t100.5 -47q41 0 75.5 19t54.5 72h37q-21 -66 -67 -100.5t-110 -34.5q-61 0 -106 30.5t-66 75.5q-28 -53 -75 -79t-96 -26zM386 259h242
q-5 75 -34.5 116t-79.5 41q-49 0 -85 -42t-43 -115zM200 35q45 0 82.5 31t37.5 69v97q-7 -2 -21 -4.5t-31 -5.5q-80 -13 -115 -36.5t-35 -68.5q0 -41 21.5 -61.5t60.5 -20.5zM377 523l51 126q15 37 27 52.5t29 15.5q12 0 21 -8.5t9 -23.5q0 -16 -11.5 -33.5t-33.5 -45.5
l-64 -83h-28z" />
    <glyph glyph-name="Oslashacute" unicode="&#x1fe;" horiz-adv-x="704" 
d="M60 -34l82 109q-41 45 -64.5 109t-23.5 140q0 73 23.5 135.5t64 107t95 70t115.5 25.5q51 0 98.5 -17.5t84.5 -48.5l60 84h49l-83 -109q41 -45 65 -108.5t24 -139.5q0 -74 -23.5 -136.5t-64 -107t-95 -70t-115.5 -25.5q-52 0 -99 17.5t-84 48.5l-60 -84h-49zM182 121
l317 433q-28 31 -65 48t-82 17q-50 0 -91.5 -21.5t-70 -60t-44.5 -93t-16 -120.5q0 -62 13.5 -113.5t38.5 -89.5zM352 27q101 0 161.5 81t60.5 215q0 61 -13.5 112.5t-38.5 89.5l-318 -433q28 -31 65.5 -48t82.5 -17zM332 736l51 126q15 37 27 52.5t29 15.5q12 0 21 -8.5
t9 -23.5q0 -16 -11.5 -33.5t-33.5 -45.5l-64 -83h-28z" />
    <glyph glyph-name="oslashacute" unicode="&#x1ff;" horiz-adv-x="498" 
d="M43 -27l58 79q-28 29 -44 71t-16 94t17 95.5t45 74.5t66 48t80 17q34 0 65.5 -10t56.5 -29l42 57h42l-59 -79q28 -30 44.5 -72.5t16.5 -93.5q0 -52 -17 -95.5t-45 -74t-66 -47.5t-80 -17q-34 0 -66 10t-57 29l-41 -57h-42zM138 97l202 276q-20 22 -44.5 32.5t-49.5 10.5
q-53 0 -94.5 -48.5t-41.5 -147.5q0 -39 7.5 -69.5t20.5 -53.5zM252 27q53 0 94.5 48t41.5 147q0 38 -7.5 69t-20.5 54l-202 -276q19 -22 44 -32t50 -10zM229 523l51 126q15 37 27 52.5t29 15.5q12 0 21 -8.5t9 -23.5q0 -16 -11.5 -33.5t-33.5 -45.5l-64 -83h-28z" />
    <glyph glyph-name="uni0218" unicode="&#x218;" horiz-adv-x="561" 
d="M315 -16q-64 0 -113 24t-89 65l-22 -86h-35v218h33q41 -93 99.5 -138.5t131.5 -45.5q56 0 94.5 32.5t38.5 96.5q0 35 -12 58.5t-35 39t-56 26.5t-76 22q-40 10 -78 23t-67 33t-46.5 51t-17.5 77q0 80 53 131t142 51q54 0 98 -21.5t73 -53.5l20 72h35v-206h-33
q-33 94 -87 133.5t-111 39.5q-50 0 -89 -31.5t-39 -92.5q0 -35 13 -58.5t35 -38.5t52.5 -25t65.5 -19q46 -12 86.5 -25t70.5 -32.5t47.5 -49.5t17.5 -76q0 -85 -56.5 -139.5t-143.5 -54.5zM241 -274l-12 26q36 19 53 39.5t21 47.5l-2 2q-4 -3 -9 -4.5t-12 -1.5
q-16 0 -27.5 12t-11.5 30t13 32t33 14q25 0 38 -17t13 -45q0 -44 -24 -78.5t-73 -56.5z" />
    <glyph glyph-name="uni0219" unicode="&#x219;" horiz-adv-x="425" 
d="M45 -9v168h33q18 -63 56.5 -98t96.5 -35q42 0 69.5 20.5t27.5 54.5q0 37 -28.5 56t-94.5 38q-82 23 -117 52.5t-35 78.5t40.5 87.5t105.5 38.5q40 0 72 -14.5t49 -40.5l12 55h32v-152h-31q-24 58 -53 87.5t-81 29.5q-36 0 -62 -19t-26 -51q0 -34 28.5 -54.5t90.5 -37.5
q84 -24 118.5 -51.5t34.5 -81.5q0 -25 -10.5 -48.5t-29.5 -42t-47 -29.5t-62 -11q-49 0 -86 18t-60 47l-11 -65h-32zM176 -274l-12 26q36 19 53 39.5t21 47.5l-2 2q-4 -3 -9 -4.5t-12 -1.5q-16 0 -27.5 12t-11.5 30t13 32t33 14q25 0 38 -17t13 -45q0 -44 -24 -78.5
t-73 -56.5z" />
    <glyph glyph-name="uni0259" unicode="&#x259;" horiz-adv-x="465" 
d="M220 452q92 0 148.5 -62.5t56.5 -163.5q0 -51 -16.5 -94.5t-44 -74.5t-65 -48.5t-79.5 -17.5q-47 0 -81.5 20t-56.5 52.5t-32.5 74.5t-9.5 86h316q-1 90 -42.5 137t-103.5 47q-41 0 -75.5 -19t-54.5 -72h-37q21 66 67 100.5t110 34.5zM222 27q52 0 88.5 42t43.5 115h-246
q5 -75 34.5 -116t79.5 -41z" />
    <glyph glyph-name="uni02BB" unicode="&#x2bb;" horiz-adv-x="200" 
d="M103 444q-26 0 -40 19t-14 47q0 46 28 84.5t93 67.5l13 -27q-51 -25 -72 -49.5t-25 -52.5l2 -2q6 3 10.5 4t9.5 1q18 0 30 -12.5t12 -31.5t-13 -33.5t-34 -14.5z" />
    <glyph glyph-name="circumflex" unicode="&#x2c6;" horiz-adv-x="299" 
d="M27 524l106 179h34l106 -179h-31l-92 108l-92 -108h-31z" />
    <glyph glyph-name="caron" unicode="&#x2c7;" horiz-adv-x="299" 
d="M133 533l-106 179h31l92 -108l92 108h31l-106 -179h-34z" />
    <glyph glyph-name="breve" unicode="&#x2d8;" horiz-adv-x="336" 
d="M168 530q-52 0 -85.5 38.5t-36.5 104.5h24q12 -41 35.5 -65t62.5 -24t62.5 24t35.5 65h24q-3 -66 -36.5 -104.5t-85.5 -38.5z" />
    <glyph glyph-name="dotaccent" unicode="&#x2d9;" horiz-adv-x="192" 
d="M96 527q-19 0 -33 12.5t-14 34.5q0 20 13.5 34t33.5 14q17 0 31 -13t14 -34q0 -22 -13.5 -35t-31.5 -13z" />
    <glyph glyph-name="ring" unicode="&#x2da;" horiz-adv-x="258" 
d="M129 517q-51 0 -78 31.5t-27 68.5t27 68.5t78 31.5t78 -31.5t27 -68.5t-27 -68.5t-78 -31.5zM129 547q28 0 44 20t16 50t-16 50t-44 20t-44 -20t-16 -50t16 -50t44 -20z" />
    <glyph glyph-name="ogonek" unicode="&#x2db;" horiz-adv-x="269" 
d="M104 -233q-41 0 -66 23t-25 60q0 34 22.5 65.5t69.5 72.5l30 26h34l-31 -32q-41 -43 -57 -72t-16 -51q0 -25 15.5 -39t37.5 -14q19 0 34 8t25 15l16 -22q-18 -17 -40.5 -28.5t-48.5 -11.5z" />
    <glyph glyph-name="tilde" unicode="&#x2dc;" horiz-adv-x="331" 
d="M23 529q9 68 29.5 95t52.5 27q20 0 37.5 -10.5t32.5 -22.5t29.5 -22.5t28.5 -10.5q22 0 31.5 20t14.5 49h29q-9 -68 -29.5 -95t-52.5 -27q-20 0 -37.5 10.5t-32.5 22.5t-29.5 22.5t-28.5 10.5q-22 0 -31.5 -20t-14.5 -49h-29z" />
    <glyph glyph-name="hungarumlaut" unicode="&#x2dd;" horiz-adv-x="288" 
d="M2 523l57 126q16 37 27.5 52.5t28.5 15.5q11 0 20.5 -8.5t9.5 -23.5q0 -14 -12 -31.5t-34 -45.5l-69 -85h-28zM142 523l57 126q16 37 27.5 52.5t28.5 15.5q11 0 20.5 -8.5t9.5 -23.5q0 -14 -12 -31.5t-34 -45.5l-69 -85h-28z" />
    <glyph glyph-name="uni0326" unicode="&#x326;" horiz-adv-x="225" 
d="M51 -274l-12 26q36 19 53 39.5t21 47.5l-2 2q-4 -3 -9 -4.5t-12 -1.5q-16 0 -27.5 12t-11.5 30t13 32t33 14q25 0 38 -17t13 -45q0 -44 -24 -78.5t-73 -56.5z" />
    <glyph glyph-name="uni0E3F" unicode="&#xe3f;" horiz-adv-x="569" 
d="M34 0v40h107v542h-107v40h261h16.5t15.5 -1l28 127h42l-30 -131q84 -13 113.5 -54t29.5 -90q0 -19 -7 -41.5t-25 -42.5t-48 -36.5t-76 -24.5v-2q93 -7 136.5 -50t43.5 -100q0 -33 -10.5 -65t-37.5 -56.5t-73.5 -39.5t-117.5 -15h-33l-21 -138h-42l22 138h-187zM211 346
h96q66 0 98 33.5t32 93.5q0 51 -28 80t-97 29h-101v-236zM211 40h98q80 0 115.5 33.5t35.5 105.5q0 58 -39.5 93t-117.5 35h-92v-267z" />
    <glyph glyph-name="Wgrave" unicode="&#x1e80;" horiz-adv-x="977" 
d="M278 -4l-193 612h-79v40h249v-40h-96l156 -507h2l153 458l-15 49h-77v40h246v-40h-96l156 -507h2l170 507h-92v40h207v-40h-69l-209 -612h-46l-155 493l-168 -493h-46zM507 736l-64 83q-22 28 -33.5 45.5t-11.5 33.5q0 15 9 23.5t21 8.5q17 0 29 -15.5t27 -52.5l51 -126
h-28z" />
    <glyph glyph-name="wgrave" unicode="&#x1e81;" horiz-adv-x="740" 
d="M206 -6l-142 409h-61v40h207v-40h-78l107 -324h2l116 294l-11 30h-61v40h205v-40h-78l112 -324h2l118 324h-73v40h166v-40h-51l-153 -409h-42l-113 320l-130 -320h-42zM392 523l-64 83q-22 28 -33.5 45.5t-11.5 33.5q0 15 9 23.5t21 8.5q17 0 29 -15.5t27 -52.5l51 -126
h-28z" />
    <glyph glyph-name="Wacute" unicode="&#x1e82;" horiz-adv-x="977" 
d="M278 -4l-193 612h-79v40h249v-40h-96l156 -507h2l153 458l-15 49h-77v40h246v-40h-96l156 -507h2l170 507h-92v40h207v-40h-69l-209 -612h-46l-155 493l-168 -493h-46zM480 736l51 126q15 37 27 52.5t29 15.5q12 0 21 -8.5t9 -23.5q0 -16 -11.5 -33.5t-33.5 -45.5
l-64 -83h-28z" />
    <glyph glyph-name="wacute" unicode="&#x1e83;" horiz-adv-x="740" 
d="M206 -6l-142 409h-61v40h207v-40h-78l107 -324h2l116 294l-11 30h-61v40h205v-40h-78l112 -324h2l118 324h-73v40h166v-40h-51l-153 -409h-42l-113 320l-130 -320h-42zM365 523l51 126q15 37 27 52.5t29 15.5q12 0 21 -8.5t9 -23.5q0 -16 -11.5 -33.5t-33.5 -45.5
l-64 -83h-28z" />
    <glyph glyph-name="Wdieresis" unicode="&#x1e84;" horiz-adv-x="977" 
d="M278 -4l-193 612h-79v40h249v-40h-96l156 -507h2l153 458l-15 49h-77v40h246v-40h-96l156 -507h2l170 507h-92v40h207v-40h-69l-209 -612h-46l-155 493l-168 -493h-46zM417 759q-19 0 -32 14t-13 34t13 34t32 14t32 -14t13 -34t-13 -34t-32 -14zM583 759q-19 0 -32 14
t-13 34t13 34t32 14t32 -14t13 -34t-13 -34t-32 -14z" />
    <glyph glyph-name="wdieresis" unicode="&#x1e85;" horiz-adv-x="740" 
d="M206 -6l-142 409h-61v40h207v-40h-78l107 -324h2l116 294l-11 30h-61v40h205v-40h-78l112 -324h2l118 324h-73v40h166v-40h-51l-153 -409h-42l-113 320l-130 -320h-42zM302 546q-19 0 -32 14t-13 34t13 34t32 14t32 -14t13 -34t-13 -34t-32 -14zM468 546q-19 0 -32 14
t-13 34t13 34t32 14t32 -14t13 -34t-13 -34t-32 -14z" />
    <glyph glyph-name="uni1E9E" unicode="&#x1e9e;" horiz-adv-x="689" 
d="M358 648h265v-36l-195 -251q104 -5 162.5 -53t58.5 -134q0 -83 -57 -136.5t-151 -53.5q-73 0 -119.5 33.5t-46.5 84.5q0 28 16.5 47t41.5 19q27 0 40 -16t13 -35t-11.5 -34.5t-35.5 -20.5q13 -18 40 -29.5t62 -11.5q63 0 97.5 38.5t34.5 112.5q0 86 -53 119.5t-172 33.5
v33l191 250h-161q-91 0 -140 -41t-49 -135v-432h-165v40h95v396q0 93 58.5 152.5t180.5 59.5z" />
    <glyph glyph-name="Ygrave" unicode="&#x1ef2;" horiz-adv-x="628" 
d="M176 0v40h101v234l-192 334h-82v40h257v-40h-90l159 -284l170 284h-84v40h213v-40h-77l-204 -333v-235h101v-40h-272zM337 736l-64 83q-22 28 -33.5 45.5t-11.5 33.5q0 15 9 23.5t21 8.5q17 0 29 -15.5t27 -52.5l51 -126h-28z" />
    <glyph glyph-name="ygrave" unicode="&#x1ef3;" horiz-adv-x="476" 
d="M96 -160q-39 0 -59.5 19t-20.5 44q0 23 14.5 39t36.5 16q19 0 32 -12.5t13 -31.5q0 -12 -3.5 -21t-8.5 -16q25 -2 56.5 21t64.5 101q-13 34 -40 101.5t-54 134.5t-47 117.5l-20 50.5h-60v40h210v-40h-78l123 -327l125 327h-72v40h168v-40h-51l-151 -380
q-42 -105 -85.5 -144t-92.5 -39zM262 523l-64 83q-22 28 -33.5 45.5t-11.5 33.5q0 15 9 23.5t21 8.5q17 0 29 -15.5t27 -52.5l51 -126h-28z" />
    <glyph glyph-name="uni2002" unicode="&#x2002;" horiz-adv-x="500" 
 />
    <glyph glyph-name="uni2003" unicode="&#x2003;" horiz-adv-x="1000" 
 />
    <glyph glyph-name="uni2004" unicode="&#x2004;" horiz-adv-x="333" 
 />
    <glyph glyph-name="uni2005" unicode="&#x2005;" horiz-adv-x="250" 
 />
    <glyph glyph-name="uni2007" unicode="&#x2007;" horiz-adv-x="540" 
 />
    <glyph glyph-name="uni2008" unicode="&#x2008;" horiz-adv-x="200" 
 />
    <glyph glyph-name="uni2009" unicode="&#x2009;" horiz-adv-x="133" 
 />
    <glyph glyph-name="uni200A" unicode="&#x200a;" horiz-adv-x="75" 
 />
    <glyph glyph-name="uni200B" unicode="&#x200b;" horiz-adv-x="0" 
 />
    <glyph glyph-name="uni200C" unicode="&#x200c;" horiz-adv-x="0" 
 />
    <glyph glyph-name="uni200D" unicode="&#x200d;" horiz-adv-x="0" 
 />
    <glyph glyph-name="endash" unicode="&#x2013;" horiz-adv-x="540" 
d="M55 211v47h430v-47h-430z" />
    <glyph glyph-name="emdash" unicode="&#x2014;" horiz-adv-x="790" 
d="M55 211v47h680v-47h-680z" />
    <glyph glyph-name="quoteleft" unicode="&#x2018;" horiz-adv-x="200" 
d="M103 444q-26 0 -40 19t-14 47q0 46 28 84.5t93 67.5l13 -27q-51 -25 -72 -49.5t-25 -52.5l2 -2q6 3 10.5 4t9.5 1q18 0 30 -12.5t12 -31.5t-13 -33.5t-34 -14.5z" />
    <glyph glyph-name="quoteright" unicode="&#x2019;" horiz-adv-x="200" 
d="M30 444l-13 27q51 25 72 49.5t25 52.5l-2 2q-6 -3 -10.5 -4t-9.5 -1q-18 0 -30 12.5t-12 31.5t13 33.5t34 14.5q26 0 40 -19t14 -47q0 -46 -28 -84.5t-93 -67.5z" />
    <glyph glyph-name="quotesinglbase" unicode="&#x201a;" horiz-adv-x="200" 
d="M30 -132l-13 27q51 25 72 49.5t25 52.5l-2 2q-6 -3 -10.5 -4t-9.5 -1q-18 0 -30 12.5t-12 31.5t13 33.5t34 14.5q26 0 40 -19t14 -47q0 -46 -28 -84.5t-93 -67.5z" />
    <glyph glyph-name="quotedblleft" unicode="&#x201c;" horiz-adv-x="364" 
d="M103 444q-26 0 -40 19t-14 47q0 46 28 84.5t93 67.5l13 -27q-51 -25 -72 -49.5t-25 -52.5l2 -2q6 3 10.5 4t9.5 1q18 0 30 -12.5t12 -31.5t-13 -33.5t-34 -14.5zM267 444q-26 0 -40 19t-14 47q0 46 28 84.5t93 67.5l13 -27q-51 -25 -72 -49.5t-25 -52.5l2 -2q6 3 10.5 4
t9.5 1q18 0 30 -12.5t12 -31.5t-13 -33.5t-34 -14.5z" />
    <glyph glyph-name="quotedblright" unicode="&#x201d;" horiz-adv-x="364" 
d="M30 444l-13 27q51 25 72 49.5t25 52.5l-2 2q-6 -3 -10.5 -4t-9.5 -1q-18 0 -30 12.5t-12 31.5t13 33.5t34 14.5q26 0 40 -19t14 -47q0 -46 -28 -84.5t-93 -67.5zM194 444l-13 27q51 25 72 49.5t25 52.5l-2 2q-6 -3 -10.5 -4t-9.5 -1q-18 0 -30 12.5t-12 31.5t13 33.5
t34 14.5q26 0 40 -19t14 -47q0 -46 -28 -84.5t-93 -67.5z" />
    <glyph glyph-name="quotedblbase" unicode="&#x201e;" horiz-adv-x="364" 
d="M30 -132l-13 27q51 25 72 49.5t25 52.5l-2 2q-6 -3 -10.5 -4t-9.5 -1q-18 0 -30 12.5t-12 31.5t13 33.5t34 14.5q26 0 40 -19t14 -47q0 -46 -28 -84.5t-93 -67.5zM194 -132l-13 27q51 25 72 49.5t25 52.5l-2 2q-6 -3 -10.5 -4t-9.5 -1q-18 0 -30 12.5t-12 31.5t13 33.5
t34 14.5q26 0 40 -19t14 -47q0 -46 -28 -84.5t-93 -67.5z" />
    <glyph glyph-name="dagger" unicode="&#x2020;" horiz-adv-x="518" 
d="M259 -98q-6 0 -18 28t-12 65v151l16 281q-31 15 -59.5 22.5t-39.5 7.5h-6t-5 -1q2 -4 5 -11.5t3 -17.5q0 -19 -11.5 -32t-30.5 -13t-32.5 12t-13.5 34q0 19 17 40t63 21q21 0 46 -6.5t64 -24.5l-25 181l8 20q6 14 12 26t19 12t19 -12t12 -26l8 -20l-25 -190
q31 -15 59.5 -22.5t39.5 -7.5h6t5 1q-2 4 -5 11.5t-3 17.5q0 19 11.5 32t30.5 13t32.5 -12t13.5 -34q0 -19 -17 -40t-63 -21q-21 0 -46 6.5t-64 24.5l15 -272v-151q0 -37 -12 -65t-17 -28z" />
    <glyph glyph-name="daggerdbl" unicode="&#x2021;" horiz-adv-x="518" 
d="M259 -98q-13 0 -19 12t-12 26l-8 20l25 190q-31 15 -59.5 22.5t-39.5 7.5h-6t-5 -1q2 -4 5 -11.5t3 -17.5q0 -19 -11.5 -32t-30.5 -13t-32.5 12t-13.5 34q0 19 17 40t63 21q21 0 46 -6.5t64 -24.5l-15 127l15 119q-31 15 -59.5 22.5t-39.5 7.5h-6t-5 -1q2 -4 5 -11.5
t3 -17.5q0 -19 -11.5 -32t-30.5 -13t-32.5 12t-13.5 34q0 19 17 40t63 21q21 0 46 -6.5t64 -24.5l-25 181l8 20q6 14 12 26t19 12t19 -12t12 -26l8 -20l-25 -190q31 -15 59.5 -22.5t39.5 -7.5h6t5 1q-2 4 -5 11.5t-3 17.5q0 19 11.5 32t30.5 13t32.5 -12t13.5 -34
q0 -19 -17 -40t-63 -21q-21 0 -46 6.5t-64 24.5l15 -127l-15 -119q31 -15 59.5 -22.5t39.5 -7.5h6t5 1q-2 4 -5 11.5t-3 17.5q0 19 11.5 32t30.5 13t32.5 -12t13.5 -34q0 -19 -17 -40t-63 -21q-21 0 -46 6.5t-64 24.5l25 -181l-8 -20q-6 -14 -12 -26t-19 -12z" />
    <glyph glyph-name="bullet" unicode="&#x2022;" horiz-adv-x="436" 
d="M218 204q-44 0 -75 31.5t-31 77.5t31 77.5t75 31.5t75 -31.5t31 -77.5t-31 -77.5t-75 -31.5z" />
    <glyph glyph-name="ellipsis" unicode="&#x2026;" horiz-adv-x="600" 
d="M100 -14q-21 0 -35.5 14.5t-14.5 35.5t14.5 35.5t35.5 14.5t35.5 -14.5t14.5 -35.5t-14.5 -35.5t-35.5 -14.5zM300 -14q-21 0 -35.5 14.5t-14.5 35.5t14.5 35.5t35.5 14.5t35.5 -14.5t14.5 -35.5t-14.5 -35.5t-35.5 -14.5zM500 -14q-21 0 -35.5 14.5t-14.5 35.5
t14.5 35.5t35.5 14.5t35.5 -14.5t14.5 -35.5t-14.5 -35.5t-35.5 -14.5z" />
    <glyph glyph-name="uni202F" unicode="&#x202f;" horiz-adv-x="133" 
 />
    <glyph glyph-name="guilsinglleft" unicode="&#x2039;" horiz-adv-x="297" 
d="M220 33l-147 151q-16 16 -21.5 24.5t-5.5 15.5t5.5 15.5t21.5 24.5l147 151l25 -18l-131 -173l131 -173z" />
    <glyph glyph-name="guilsinglright" unicode="&#x203a;" horiz-adv-x="297" 
d="M77 415l147 -151q16 -16 21.5 -24.5t5.5 -15.5t-5.5 -15.5t-21.5 -24.5l-147 -151l-25 18l131 173l-131 173z" />
    <glyph glyph-name="fraction" unicode="&#x2044;" horiz-adv-x="190" 
d="M-179 -82l249 361l247 361h53l-249 -361l-247 -361h-53z" />
    <glyph glyph-name="zero.sup" unicode="&#x2070;" 
d="M223 242q-38 0 -68 18.5t-50.5 50t-31 75t-10.5 93.5t11 94t31.5 76.5t50 51t66.5 18.5q38 0 68 -18.5t50.5 -50t31 -75t10.5 -93.5t-11 -94t-31.5 -76.5t-50 -51t-66.5 -18.5zM224 278q49 0 71 55.5t22 146.5q0 92 -24 147.5t-72 55.5q-49 0 -70.5 -55t-21.5 -147
q0 -91 23.5 -147t71.5 -56z" />
    <glyph glyph-name="four.sup" unicode="&#x2074;" 
d="M192 254v36h73v94h-217v36l195 295h78v-293h80v-38h-80v-94h60v-36h-189zM96 422h169v243h-10l-159 -242v-1z" />
    <glyph glyph-name="five.sup" unicode="&#x2075;" 
d="M212 242q-28 0 -55 8t-47 21t-32.5 31t-12.5 39q0 19 13 33.5t32 14.5t29 -12.5t10 -27.5q0 -14 -8 -26.5t-20 -16.5q10 -10 33 -19.5t56 -9.5q50 0 77.5 33.5t27.5 87.5t-24 81.5t-70 27.5q-31 0 -55.5 -12t-44.5 -31l-30 9l16 235l9 7q35 -13 67.5 -20t64.5 -7
q36 0 61.5 7t48.5 19l9 -20q-22 -30 -53.5 -46t-73.5 -16q-28 0 -54 6t-45 13l-9 -140q17 13 43 22.5t57 9.5q69 0 107.5 -40.5t38.5 -98.5q0 -29 -10 -58t-31 -52t-52 -37.5t-73 -14.5z" />
    <glyph glyph-name="six.sup" unicode="&#x2076;" 
d="M226 242q-75 0 -117 60t-42 153q0 118 51 191t140 73q57 0 87.5 -26t30.5 -60q0 -21 -12 -35t-30 -14q-19 0 -29 11.5t-10 27.5q0 12 6.5 23.5t19.5 15.5q-10 11 -26 16.5t-37 5.5q-60 0 -95.5 -54.5t-35.5 -158.5q19 30 47.5 48.5t70.5 18.5q63 0 98.5 -39t35.5 -98
q0 -31 -9.5 -60t-28.5 -51t-48 -35t-67 -13zM229 278q46 0 67.5 32.5t21.5 86.5q0 42 -21.5 74t-67.5 32q-43 0 -70.5 -31.5t-27.5 -80.5q0 -46 27 -79.5t71 -33.5z" />
    <glyph glyph-name="seven.sup" unicode="&#x2077;" 
d="M196 242q-15 0 -25 10t-10 29q0 26 9.5 63t27 77t43 81t57.5 77q15 18 29.5 34.5t23.5 29.5l-2 3q-18 -11 -36.5 -17.5t-34.5 -6.5q-19 0 -34 5t-27.5 11.5t-23.5 11.5t-23 5q-24 0 -37.5 -24.5t-20.5 -98.5h-35v177h38l3 -59h3q10 31 26 46.5t41 15.5q21 0 35.5 -9
t27 -20.5t25.5 -20.5t29 -9q6 0 14.5 2t16.5 6q-4 5 -7 11t-3 13q0 14 10 24.5t25 10.5q16 0 26 -11.5t10 -27.5q0 -22 -14 -43t-42 -56q-50 -59 -77 -126.5t-33 -168.5q-1 -22 -10 -33.5t-25 -11.5z" />
    <glyph glyph-name="eight.sup" unicode="&#x2078;" 
d="M220 242q-69 0 -109.5 36t-40.5 88q0 31 19.5 63.5t68.5 52.5q-39 19 -57 45.5t-18 62.5q0 51 39 90t105 39q64 0 100.5 -34.5t36.5 -80.5q0 -39 -19.5 -67t-60.5 -45q47 -18 70.5 -45.5t23.5 -64.5q0 -57 -44.5 -98.5t-113.5 -41.5zM252 504q30 15 46 40t16 56
q0 34 -23 59t-66 25q-41 0 -63.5 -24.5t-22.5 -55.5q0 -40 27.5 -62t85.5 -38zM226 277q43 0 69.5 27t26.5 61q0 38 -31 60t-103 45q-32 -14 -47.5 -40t-15.5 -57q0 -43 27 -69.5t74 -26.5z" />
    <glyph glyph-name="nine.sup" unicode="&#x2079;" 
d="M187 242q-57 0 -87.5 26t-30.5 60q0 21 12 35t30 14q19 0 29 -11t10 -27q0 -13 -6.5 -24t-19.5 -16q10 -11 26.5 -16.5t36.5 -5.5q61 0 96 54.5t36 158.5q-19 -30 -48 -48.5t-71 -18.5q-63 0 -98.5 39t-35.5 98q0 31 9.5 60t28.5 51t48 35t67 13q74 0 116.5 -60
t42.5 -153q0 -59 -13 -107.5t-37.5 -83t-60.5 -54t-80 -19.5zM216 458q43 0 70.5 31.5t27.5 80.5q0 46 -27 79.5t-71 33.5q-46 0 -67.5 -32.5t-21.5 -86.5q0 -42 21.5 -74t67.5 -32z" />
    <glyph glyph-name="zero.inf" unicode="&#x2080;" 
d="M223 -193q-38 0 -68 18.5t-50.5 50t-31 75t-10.5 93.5t11 94t31.5 76.5t50 51t66.5 18.5q38 0 68 -18.5t50.5 -50t31 -75t10.5 -93.5t-11 -94t-31.5 -76.5t-50 -51t-66.5 -18.5zM224 -157q49 0 71 55.5t22 146.5q0 92 -24 147.5t-72 55.5q-49 0 -70.5 -55t-21.5 -147
q0 -91 23.5 -147t71.5 -56z" />
    <glyph glyph-name="one.inf" unicode="&#x2081;" 
d="M95 -181v38h114v338q-13 -5 -32 -8t-39 -3q-11 0 -24 1.5t-20 3.5v31q44 -1 82 14.5t55 43.5h37v-421h108v-38h-281z" />
    <glyph glyph-name="two.inf" unicode="&#x2082;" 
d="M101 -193q-19 0 -30 15.5t-11 35.5q0 40 35.5 82t110.5 90q51 31 76.5 58.5t25.5 69.5q0 39 -25.5 64.5t-68.5 25.5q-37 0 -63 -17.5t-36 -42.5q15 -4 24 -15.5t9 -27.5q0 -18 -11 -30.5t-30 -12.5t-32 15t-13 40q0 23 11.5 46t32.5 41t50.5 29t66.5 11q72 0 110 -40
t38 -90q0 -48 -36 -81t-99 -67q-61 -34 -90 -63.5t-36 -55.5l1 -1q13 7 29.5 11.5t32.5 4.5q19 0 35 -6t30.5 -13.5t27.5 -13.5t26 -6q25 0 40 23t26 78l28 -3q-7 -84 -34.5 -119t-68.5 -35q-22 0 -40 9.5t-34.5 21.5t-32 21.5t-31.5 9.5q-5 0 -10 -1t-8 -2q3 -4 5 -9.5
t2 -12.5q0 -16 -9 -26.5t-24 -10.5z" />
    <glyph glyph-name="three.inf" unicode="&#x2083;" 
d="M217 -193q-65 0 -109 31t-44 72q0 20 13 35t32 15t29 -12.5t10 -28.5q0 -13 -6.5 -24t-15.5 -17q10 -12 32.5 -23.5t57.5 -11.5q49 0 75 27t26 68q0 43 -29 70t-95 27h-19v36h16q63 0 91 26t28 69q0 37 -23.5 59.5t-66.5 22.5q-37 0 -58.5 -13t-31.5 -26q12 -4 20.5 -15
t8.5 -26t-10.5 -28.5t-29.5 -13.5q-18 0 -30.5 14t-12.5 36q0 40 41.5 74t109.5 34q69 0 108 -34.5t39 -80.5q0 -43 -31 -72.5t-87 -42.5v-1q60 -7 93 -36.5t33 -73.5q0 -55 -44.5 -95.5t-119.5 -40.5z" />
    <glyph glyph-name="four.inf" unicode="&#x2084;" 
d="M192 -181v36h73v94h-217v36l195 295h78v-293h80v-38h-80v-94h60v-36h-189zM96 -13h169v243h-10l-159 -242v-1z" />
    <glyph glyph-name="five.inf" unicode="&#x2085;" 
d="M212 -193q-28 0 -55 8t-47 21t-32.5 31t-12.5 39q0 19 13 33.5t32 14.5t29 -12.5t10 -27.5q0 -14 -8 -26.5t-20 -16.5q10 -10 33 -19.5t56 -9.5q50 0 77.5 33.5t27.5 87.5t-24 81.5t-70 27.5q-31 0 -55.5 -12t-44.5 -31l-30 9l16 235l9 7q35 -13 67.5 -20t64.5 -7
q36 0 61.5 7t48.5 19l9 -20q-22 -30 -53.5 -46t-73.5 -16q-28 0 -54 6t-45 13l-9 -140q17 13 43 22.5t57 9.5q69 0 107.5 -40.5t38.5 -98.5q0 -29 -10 -58t-31 -52t-52 -37.5t-73 -14.5z" />
    <glyph glyph-name="six.inf" unicode="&#x2086;" 
d="M226 -193q-75 0 -117 60t-42 153q0 118 51 191t140 73q57 0 87.5 -26t30.5 -60q0 -21 -12 -35t-30 -14q-19 0 -29 11.5t-10 27.5q0 12 6.5 23.5t19.5 15.5q-10 11 -26 16.5t-37 5.5q-60 0 -95.5 -54.5t-35.5 -158.5q19 30 47.5 48.5t70.5 18.5q63 0 98.5 -39t35.5 -98
q0 -31 -9.5 -60t-28.5 -51t-48 -35t-67 -13zM229 -157q46 0 67.5 32.5t21.5 86.5q0 42 -21.5 74t-67.5 32q-43 0 -70.5 -31.5t-27.5 -80.5q0 -46 27 -79.5t71 -33.5z" />
    <glyph glyph-name="seven.inf" unicode="&#x2087;" 
d="M196 -193q-15 0 -25 10t-10 29q0 26 9.5 63t27 77t43 81t57.5 77q15 18 29.5 34.5t23.5 29.5l-2 3q-18 -11 -36.5 -17.5t-34.5 -6.5q-19 0 -34 5t-27.5 11.5t-23.5 11.5t-23 5q-24 0 -37.5 -24.5t-20.5 -98.5h-35v177h38l3 -59h3q10 31 26 46.5t41 15.5q21 0 35.5 -9
t27 -20.5t25.5 -20.5t29 -9q6 0 14.5 2t16.5 6q-4 5 -7 11t-3 13q0 14 10 24.5t25 10.5q16 0 26 -11.5t10 -27.5q0 -22 -14 -43t-42 -56q-50 -59 -77 -126.5t-33 -168.5q-1 -22 -10 -33.5t-25 -11.5z" />
    <glyph glyph-name="eight.inf" unicode="&#x2088;" 
d="M220 -193q-69 0 -109.5 36t-40.5 88q0 31 19.5 63.5t68.5 52.5q-39 19 -57 45.5t-18 62.5q0 51 39 90t105 39q64 0 100.5 -34.5t36.5 -80.5q0 -39 -19.5 -67t-60.5 -45q47 -18 70.5 -45.5t23.5 -64.5q0 -57 -44.5 -98.5t-113.5 -41.5zM252 69q30 15 46 40t16 56
q0 34 -23 59t-66 25q-41 0 -63.5 -24.5t-22.5 -55.5q0 -40 27.5 -62t85.5 -38zM226 -158q43 0 69.5 27t26.5 61q0 38 -31 60t-103 45q-32 -14 -47.5 -40t-15.5 -57q0 -43 27 -69.5t74 -26.5z" />
    <glyph glyph-name="nine.inf" unicode="&#x2089;" 
d="M187 -193q-57 0 -87.5 26t-30.5 60q0 21 12 35t30 14q19 0 29 -11t10 -27q0 -13 -6.5 -24t-19.5 -16q10 -11 26.5 -16.5t36.5 -5.5q61 0 96 54.5t36 158.5q-19 -30 -48 -48.5t-71 -18.5q-63 0 -98.5 39t-35.5 98q0 31 9.5 60t28.5 51t48 35t67 13q74 0 116.5 -60
t42.5 -153q0 -59 -13 -107.5t-37.5 -83t-60.5 -54t-80 -19.5zM216 23q43 0 70.5 31.5t27.5 80.5q0 46 -27 79.5t-71 33.5q-46 0 -67.5 -32.5t-21.5 -86.5q0 -42 21.5 -74t67.5 -32z" />
    <glyph glyph-name="colonmonetary" unicode="&#x20a1;" horiz-adv-x="571" 
d="M182 -139l24 147q-35 18 -62 48.5t-45.5 69t-28 84t-9.5 93.5q0 66 19 125t52.5 103.5t80 72.5t100.5 33l19 124h42l-20 -124q25 -1 47 -8t41 -17l23 149h42l-27 -171l-2 -5q18 -17 28 -37.5t10 -41.5q0 -25 -15 -44.5t-40 -19.5h-5t-5 1l-69 -395q41 18 68 57.5t34 91.5
h37q-5 -64 -42 -122t-102 -80l-22 -134h-42l20 124q-6 -1 -12 -1h-13q-17 0 -33 2.5t-31 6.5l-21 -132h-41zM407 494q0 15 6.5 27.5t18.5 21.5l3 16q-17 19 -41.5 27t-48.5 10l-94 -546q16 -7 33 -10.5t36 -3.5q7 0 13 0.5t12 1.5l73 423q-5 7 -8 15t-3 18zM132 303
q0 -82 23 -142.5t63 -91.5l90 525q-29 -4 -60.5 -20.5t-57 -50.5t-42 -88t-16.5 -132z" />
    <glyph glyph-name="uni20A6" unicode="&#x20a6;" horiz-adv-x="791" 
d="M578 -15l-147 248h-205v-192h93v-41h-240v41h101v194h-101v41h101v103h-101v41h101v162h-101v40h194l117 -200h202v160h-95v40h235v-40h-94v-162h94v-41h-94v-103h94v-41h-94v-250h-60zM226 574v-162h98l-96 162h-2zM475 278h117v109h-181zM226 268h184l-65 109h-119
v-109zM590 81h2v162h-97z" />
    <glyph glyph-name="uni20A8" unicode="&#x20a8;" horiz-adv-x="1013" 
d="M550 -11q-41 0 -65.5 23t-25.5 86l-2 74q-1 56 -27.5 80.5t-95.5 24.5h-120v-237h107v-40h-283v40h106v542h-106v40h299q99 0 152 -45.5t53 -118.5q0 -50 -32.5 -96.5t-107.5 -61.5v-2q64 -16 91.5 -48t31.5 -87l5 -62q3 -37 13 -52.5t30 -15.5t35 15.5t29 47.5l-1 61h33
q17 -63 54 -97t94 -34q40 0 66 19t26 52q0 35 -27 53.5t-91 36.5q-79 22 -112.5 51.5t-33.5 75.5q0 48 39 85t102 37q39 0 69.5 -14t46.5 -39l12 53h32v-151h-31q-23 60 -51 88t-78 28q-35 0 -59.5 -17.5t-24.5 -48.5q0 -33 27 -52.5t87 -35.5q81 -23 114 -50t33 -80
q0 -48 -39 -87t-105 -39q-46 0 -82 17.5t-58 45.5l-7 -63h-32l-2 67q-17 -37 -36 -53t-52 -16zM214 314h107q76 0 109.5 40.5t33.5 106.5q0 58 -32.5 89.5t-99.5 31.5h-118v-268z" />
    <glyph glyph-name="uni20A9" unicode="&#x20a9;" horiz-adv-x="1017" 
d="M80 265v41h153l-32 113h-121v41h110l-34 124h-76v38h239v-38h-92l34 -127h217l22 75l-14 52h-74v38h237v-38h-93l35 -127h218l38 127h-89v38h199v-38h-66l-38 -124h104v-41h-116l-34 -113h150v-41h-163l-81 -269h-64l-75 272h-111l-81 -272h-64l-74 269h-164zM520 461
l-47 -158h91zM799 422h-199l32 -119h131zM433 303l35 119h-197l32 -119h130zM366 77l56 191h-110l52 -191h2zM694 77h2l57 191h-111z" />
    <glyph glyph-name="uni20AA" unicode="&#x20aa;" horiz-adv-x="625" 
d="M221 0v313h43v-247h100q49 0 79.5 3.5t46.5 19.5q11 11 17 34t8 70t2 125.5t-1 200.5h40q2 -40 4 -96l4 -112t3 -104.5t1 -73.5q0 -35 -8.5 -60.5t-31 -41.5t-62.5 -23.5t-102 -7.5h-143zM70 0v515h139q66 0 107.5 -7.5t64 -23t30.5 -40.5t8 -60q0 -31 -1.5 -82
t-5.5 -100h-35q-3 103 -6.5 154.5t-19.5 67.5q-18 18 -53.5 21.5t-78.5 3.5h-101v-449h-48z" />
    <glyph glyph-name="Euro" unicode="&#x20ac;" horiz-adv-x="639" 
d="M43 224v39h85q-1 10 -1.5 20t-0.5 20q0 12 1 24l2 24h-86v39h92q12 53 37 99t60 79t79.5 51.5t93.5 18.5q41 0 75.5 -11.5t59 -30.5t38 -42.5t13.5 -47.5q0 -25 -15 -44.5t-40 -19.5t-39.5 15t-14.5 37q0 18 10 33t26 22q-19 27 -52 37t-63 10q-26 0 -57 -9.5t-59 -33
t-50.5 -63.5t-32.5 -100h207v-39h-212q-1 -11 -1.5 -23t-0.5 -25q0 -10 0.5 -20t1.5 -20h212v-39h-208q16 -90 65 -139t122 -49q69 0 114 45.5t55 115.5h37q-3 -40 -19 -78t-43.5 -68t-66.5 -48.5t-89 -18.5q-51 0 -92.5 18.5t-72.5 51t-51 76.5t-29 94h-90z" />
    <glyph glyph-name="uni20B1" unicode="&#x20b1;" horiz-adv-x="656" 
d="M53 0v40h108v362h-108v41h108v139h-108v40h266q66 0 111 -14t72.5 -38.5t40 -57t14.5 -69.5h70v-41h-72q-9 -78 -69.5 -129t-165.5 -51h-91v-182h118v-40h-294zM229 582v-141h254q-3 64 -39.5 102.5t-118.5 38.5h-96zM229 262h93q74 0 113.5 39.5t46.5 102.5h-253v-142z
" />
    <glyph glyph-name="uni20B9" unicode="&#x20b9;" horiz-adv-x="594" 
d="M423 -11q-40 0 -65 24.5t-26 91.5l-1 59q-1 52 -29.5 74.5t-102.5 22.5h-131v42h131q69 0 102.5 33t40.5 88h-274v40h275q-3 58 -35.5 89t-97.5 31h-142v40h478v-40h-221q41 -17 65.5 -48t28.5 -72h127v-40h-127q-7 -43 -40 -83t-99 -53v-2q63 -16 90.5 -46.5t31.5 -83.5
l6 -72q2 -24 12 -35t26 -11q17 0 29 12.5t22 38.5l25 -13q-15 -41 -37.5 -64t-61.5 -23z" />
    <glyph glyph-name="uni20BD" unicode="&#x20bd;" horiz-adv-x="610" 
d="M58 0v40h108v106h-108v40h108v77h-108v40h108v279h-108v40h272q69 0 115 -14.5t73 -38t38.5 -55t11.5 -64.5q0 -80 -61.5 -133.5t-175.5 -53.5h-97v-77h234v-40h-234v-106h118v-40h-294zM336 582h-102v-279h99q81 0 121 41t40 106q0 58 -36 95t-122 37z" />
    <glyph glyph-name="uni2116" unicode="&#x2116;" horiz-adv-x="1140" 
d="M903 243q-38 0 -71.5 13.5t-58.5 37.5t-40 59.5t-15 78.5q0 44 15 80.5t40.5 62.5t59 40.5t70.5 14.5q38 0 72 -13.5t59 -38t39.5 -60t14.5 -79.5t-15 -80.5t-40.5 -62t-59 -39.5t-70.5 -14zM508 -15l-325 574h-2v-518h93v-41h-240v41h101v541h-101v40h193l292 -526h2
v486h-95v40h235v-40h-94v-597h-59zM905 281q44 0 79.5 38.5t35.5 118.5q0 41 -10.5 70t-27.5 47.5t-38 27.5t-43 9q-44 0 -79.5 -38.5t-35.5 -119.5q0 -40 10.5 -69.5t27.5 -47.5t38 -27t43 -9zM742 99v45h322v-45h-322z" />
    <glyph glyph-name="uni2117" unicode="&#x2117;" horiz-adv-x="787" 
d="M393 -32q-74 0 -139.5 28t-113.5 76.5t-76 115t-28 142.5t28 142t76 114t113.5 76t139.5 28q75 0 140.5 -28t113.5 -76t76 -114t28 -142t-28 -142.5t-76 -115t-113.5 -76.5t-140.5 -28zM393 -1q68 0 127 25.5t102 70t68 105.5t25 130t-25 129t-68 104.5t-102 70
t-127 25.5q-67 0 -125.5 -25.5t-102 -70t-68.5 -104.5t-25 -129t25 -130t68.5 -105.5t102 -70t125.5 -25.5zM250 153v26h61v308h-61v26h170q80 0 108.5 -31t28.5 -71q0 -46 -35.5 -78t-101.5 -32h-63v-122h67v-26h-174zM357 327h56q49 0 72 24.5t23 60.5q0 33 -21 54t-72 21
h-58v-160z" />
    <glyph glyph-name="uni2120" unicode="&#x2120;" horiz-adv-x="773" 
d="M178 348q-30 0 -51.5 10t-38.5 29l-10 -38h-25v102h23q19 -42 45 -61t59 -19q25 0 42 13.5t17 40.5q0 28 -21.5 39t-60.5 20q-40 9 -71 26t-31 60q0 37 26.5 61t70.5 24q24 0 43.5 -10t32.5 -23l10 32h23v-98h-22q-16 43 -39.5 59.5t-49.5 16.5q-21 0 -39 -13t-18 -39
q0 -29 22 -39.5t53 -17.5q46 -11 77 -27t31 -60q0 -39 -27 -63.5t-71 -24.5zM324 355v24h46v245l-45 1v24l115 -1l86 -238h1l93 238h110v-24h-45v-245h45v-24h-126v24h37v237h-5l-105 -261h-28l-98 261h-6v-237h40v-24h-115z" />
    <glyph glyph-name="trademark" unicode="&#x2122;" horiz-adv-x="810" 
d="M361 355v24h46v245h-46v24h116l86 -238h1l93 238h110v-24h-45v-245h45v-24h-126v24h37v237h-5l-105 -261h-28l-98 261h-6v-237h40v-24h-115zM102 355v24h58v245h-49q-24 0 -30 -15t-13 -66h-21v105h270v-105h-21q-7 51 -13 66t-30 15h-49v-245h58v-24h-160z" />
    <glyph glyph-name="onethird" unicode="&#x2153;" horiz-adv-x="1110" 
d="M95 179v38h114v338q-13 -5 -32 -8t-39 -3q-11 0 -24 1.5t-20 3.5v31q44 -1 82 14.5t55 43.5h37v-421h108v-38h-281zM296 -82l249 361l247 361h53l-249 -361l-247 -361h-53zM882 -82q-65 0 -109 31t-44 72q0 20 13 35t32 15t29 -12.5t10 -28.5q0 -13 -6.5 -24t-15.5 -17
q10 -12 32.5 -23.5t57.5 -11.5q49 0 75 27t26 68q0 43 -29 70t-95 27h-19v36h16q63 0 91 26t28 69q0 37 -23.5 59.5t-66.5 22.5q-37 0 -58.5 -13t-31.5 -26q12 -4 20.5 -15t8.5 -26t-10.5 -28.5t-29.5 -13.5q-18 0 -30.5 14t-12.5 36q0 40 41.5 74t109.5 34q69 0 108 -34.5
t39 -80.5q0 -43 -31 -72.5t-87 -42.5v-1q60 -7 93 -36.5t33 -73.5q0 -55 -44.5 -95.5t-119.5 -40.5z" />
    <glyph glyph-name="twothirds" unicode="&#x2154;" horiz-adv-x="1100" 
d="M101 167q-19 0 -30 15.5t-11 35.5q0 40 35.5 82t110.5 90q51 31 76.5 58.5t25.5 69.5q0 39 -25.5 64.5t-68.5 25.5q-37 0 -63 -17.5t-36 -42.5q15 -4 24 -15.5t9 -27.5q0 -18 -11 -30.5t-30 -12.5t-32 15t-13 40q0 23 11.5 46t32.5 41t50.5 29t66.5 11q72 0 110 -40
t38 -90q0 -48 -36 -81t-99 -67q-61 -34 -90 -63.5t-36 -55.5l1 -1q13 7 29.5 11.5t32.5 4.5q19 0 35 -6t30.5 -13.5t27.5 -13.5t26 -6q25 0 40 23t26 78l28 -3q-7 -84 -34.5 -119t-68.5 -35q-22 0 -40 9.5t-34.5 21.5t-32 21.5t-31.5 9.5q-5 0 -10 -1t-8 -2q3 -4 5 -9.5
t2 -12.5q0 -16 -9 -26.5t-24 -10.5zM286 -82l249 361l247 361h53l-249 -361l-247 -361h-53zM872 -82q-65 0 -109 31t-44 72q0 20 13 35t32 15t29 -12.5t10 -28.5q0 -13 -6.5 -24t-15.5 -17q10 -12 32.5 -23.5t57.5 -11.5q49 0 75 27t26 68q0 43 -29 70t-95 27h-19v36h16
q63 0 91 26t28 69q0 37 -23.5 59.5t-66.5 22.5q-37 0 -58.5 -13t-31.5 -26q12 -4 20.5 -15t8.5 -26t-10.5 -28.5t-29.5 -13.5q-18 0 -30.5 14t-12.5 36q0 40 41.5 74t109.5 34q69 0 108 -34.5t39 -80.5q0 -43 -31 -72.5t-87 -42.5v-1q60 -7 93 -36.5t33 -73.5
q0 -55 -44.5 -95.5t-119.5 -40.5z" />
    <glyph glyph-name="uni2155" unicode="&#x2155;" horiz-adv-x="1110" 
d="M95 179v38h114v338q-13 -5 -32 -8t-39 -3q-11 0 -24 1.5t-20 3.5v31q44 -1 82 14.5t55 43.5h37v-421h108v-38h-281zM296 -82l249 361l247 361h53l-249 -361l-247 -361h-53zM877 -82q-28 0 -55 8t-47 21t-32.5 31t-12.5 39q0 19 13 33.5t32 14.5t29 -12.5t10 -27.5
q0 -14 -8 -26.5t-20 -16.5q10 -10 33 -19.5t56 -9.5q50 0 77.5 33.5t27.5 87.5t-24 81.5t-70 27.5q-31 0 -55.5 -12t-44.5 -31l-30 9l16 235l9 7q35 -13 67.5 -20t64.5 -7q36 0 61.5 7t48.5 19l9 -20q-22 -30 -53.5 -46t-73.5 -16q-28 0 -54 6t-45 13l-9 -140q17 13 43 22.5
t57 9.5q69 0 107.5 -40.5t38.5 -98.5q0 -29 -10 -58t-31 -52t-52 -37.5t-73 -14.5z" />
    <glyph glyph-name="uni2156" unicode="&#x2156;" horiz-adv-x="1100" 
d="M101 167q-19 0 -30 15.5t-11 35.5q0 40 35.5 82t110.5 90q51 31 76.5 58.5t25.5 69.5q0 39 -25.5 64.5t-68.5 25.5q-37 0 -63 -17.5t-36 -42.5q15 -4 24 -15.5t9 -27.5q0 -18 -11 -30.5t-30 -12.5t-32 15t-13 40q0 23 11.5 46t32.5 41t50.5 29t66.5 11q72 0 110 -40
t38 -90q0 -48 -36 -81t-99 -67q-61 -34 -90 -63.5t-36 -55.5l1 -1q13 7 29.5 11.5t32.5 4.5q19 0 35 -6t30.5 -13.5t27.5 -13.5t26 -6q25 0 40 23t26 78l28 -3q-7 -84 -34.5 -119t-68.5 -35q-22 0 -40 9.5t-34.5 21.5t-32 21.5t-31.5 9.5q-5 0 -10 -1t-8 -2q3 -4 5 -9.5
t2 -12.5q0 -16 -9 -26.5t-24 -10.5zM286 -82l249 361l247 361h53l-249 -361l-247 -361h-53zM867 -82q-28 0 -55 8t-47 21t-32.5 31t-12.5 39q0 19 13 33.5t32 14.5t29 -12.5t10 -27.5q0 -14 -8 -26.5t-20 -16.5q10 -10 33 -19.5t56 -9.5q50 0 77.5 33.5t27.5 87.5t-24 81.5
t-70 27.5q-31 0 -55.5 -12t-44.5 -31l-30 9l16 235l9 7q35 -13 67.5 -20t64.5 -7q36 0 61.5 7t48.5 19l9 -20q-22 -30 -53.5 -46t-73.5 -16q-28 0 -54 6t-45 13l-9 -140q17 13 43 22.5t57 9.5q69 0 107.5 -40.5t38.5 -98.5q0 -29 -10 -58t-31 -52t-52 -37.5t-73 -14.5z" />
    <glyph glyph-name="uni2157" unicode="&#x2157;" horiz-adv-x="1080" 
d="M217 167q-65 0 -109 31t-44 72q0 20 13 35t32 15t29 -12.5t10 -28.5q0 -13 -6.5 -24t-15.5 -17q10 -12 32.5 -23.5t57.5 -11.5q49 0 75 27t26 68q0 43 -29 70t-95 27h-19v36h16q63 0 91 26t28 69q0 37 -23.5 59.5t-66.5 22.5q-37 0 -58.5 -13t-31.5 -26q12 -4 20.5 -15
t8.5 -26t-10.5 -28.5t-29.5 -13.5q-18 0 -30.5 14t-12.5 36q0 40 41.5 74t109.5 34q69 0 108 -34.5t39 -80.5q0 -43 -31 -72.5t-87 -42.5v-1q60 -7 93 -36.5t33 -73.5q0 -55 -44.5 -95.5t-119.5 -40.5zM266 -82l249 361l247 361h53l-249 -361l-247 -361h-53zM847 -82
q-28 0 -55 8t-47 21t-32.5 31t-12.5 39q0 19 13 33.5t32 14.5t29 -12.5t10 -27.5q0 -14 -8 -26.5t-20 -16.5q10 -10 33 -19.5t56 -9.5q50 0 77.5 33.5t27.5 87.5t-24 81.5t-70 27.5q-31 0 -55.5 -12t-44.5 -31l-30 9l16 235l9 7q35 -13 67.5 -20t64.5 -7q36 0 61.5 7
t48.5 19l9 -20q-22 -30 -53.5 -46t-73.5 -16q-28 0 -54 6t-45 13l-9 -140q17 13 43 22.5t57 9.5q69 0 107.5 -40.5t38.5 -98.5q0 -29 -10 -58t-31 -52t-52 -37.5t-73 -14.5z" />
    <glyph glyph-name="uni2158" unicode="&#x2158;" horiz-adv-x="1110" 
d="M192 179v36h73v94h-217v36l195 295h78v-293h80v-38h-80v-94h60v-36h-189zM96 347h169v243h-10l-159 -242v-1zM296 -82l249 361l247 361h53l-249 -361l-247 -361h-53zM877 -82q-28 0 -55 8t-47 21t-32.5 31t-12.5 39q0 19 13 33.5t32 14.5t29 -12.5t10 -27.5
q0 -14 -8 -26.5t-20 -16.5q10 -10 33 -19.5t56 -9.5q50 0 77.5 33.5t27.5 87.5t-24 81.5t-70 27.5q-31 0 -55.5 -12t-44.5 -31l-30 9l16 235l9 7q35 -13 67.5 -20t64.5 -7q36 0 61.5 7t48.5 19l9 -20q-22 -30 -53.5 -46t-73.5 -16q-28 0 -54 6t-45 13l-9 -140q17 13 43 22.5
t57 9.5q69 0 107.5 -40.5t38.5 -98.5q0 -29 -10 -58t-31 -52t-52 -37.5t-73 -14.5z" />
    <glyph glyph-name="uni2159" unicode="&#x2159;" horiz-adv-x="1085" 
d="M95 179v38h114v338q-13 -5 -32 -8t-39 -3q-11 0 -24 1.5t-20 3.5v31q44 -1 82 14.5t55 43.5h37v-421h108v-38h-281zM296 -82l249 361l247 361h53l-249 -361l-247 -361h-53zM866 -82q-75 0 -117 60t-42 153q0 118 51 191t140 73q57 0 87.5 -26t30.5 -60q0 -21 -12 -35
t-30 -14q-19 0 -29 11.5t-10 27.5q0 12 6.5 23.5t19.5 15.5q-10 11 -26 16.5t-37 5.5q-60 0 -95.5 -54.5t-35.5 -158.5q19 30 47.5 48.5t70.5 18.5q63 0 98.5 -39t35.5 -98q0 -31 -9.5 -60t-28.5 -51t-48 -35t-67 -13zM869 -46q46 0 67.5 32.5t21.5 86.5q0 42 -21.5 74
t-67.5 32q-43 0 -70.5 -31.5t-27.5 -80.5q0 -46 27 -79.5t71 -33.5z" />
    <glyph glyph-name="uni215A" unicode="&#x215a;" horiz-adv-x="1055" 
d="M212 167q-28 0 -55 8t-47 21t-32.5 31t-12.5 39q0 19 13 33.5t32 14.5t29 -12.5t10 -27.5q0 -14 -8 -26.5t-20 -16.5q10 -10 33 -19.5t56 -9.5q50 0 77.5 33.5t27.5 87.5t-24 81.5t-70 27.5q-31 0 -55.5 -12t-44.5 -31l-30 9l16 235l9 7q35 -13 67.5 -20t64.5 -7
q36 0 61.5 7t48.5 19l9 -20q-22 -30 -53.5 -46t-73.5 -16q-28 0 -54 6t-45 13l-9 -140q17 13 43 22.5t57 9.5q69 0 107.5 -40.5t38.5 -98.5q0 -29 -10 -58t-31 -52t-52 -37.5t-73 -14.5zM266 -82l249 361l247 361h53l-249 -361l-247 -361h-53zM836 -82q-75 0 -117 60
t-42 153q0 118 51 191t140 73q57 0 87.5 -26t30.5 -60q0 -21 -12 -35t-30 -14q-19 0 -29 11.5t-10 27.5q0 12 6.5 23.5t19.5 15.5q-10 11 -26 16.5t-37 5.5q-60 0 -95.5 -54.5t-35.5 -158.5q19 30 47.5 48.5t70.5 18.5q63 0 98.5 -39t35.5 -98q0 -31 -9.5 -60t-28.5 -51
t-48 -35t-67 -13zM839 -46q46 0 67.5 32.5t21.5 86.5q0 42 -21.5 74t-67.5 32q-43 0 -70.5 -31.5t-27.5 -80.5q0 -46 27 -79.5t71 -33.5z" />
    <glyph glyph-name="oneeighth" unicode="&#x215b;" horiz-adv-x="1090" 
d="M95 179v38h114v338q-13 -5 -32 -8t-39 -3q-11 0 -24 1.5t-20 3.5v31q44 -1 82 14.5t55 43.5h37v-421h108v-38h-281zM296 -82l249 361l247 361h53l-249 -361l-247 -361h-53zM865 -82q-69 0 -109.5 36t-40.5 88q0 31 19.5 63.5t68.5 52.5q-39 19 -57 45.5t-18 62.5
q0 51 39 90t105 39q64 0 100.5 -34.5t36.5 -80.5q0 -39 -19.5 -67t-60.5 -45q47 -18 70.5 -45.5t23.5 -64.5q0 -57 -44.5 -98.5t-113.5 -41.5zM897 180q30 15 46 40t16 56q0 34 -23 59t-66 25q-41 0 -63.5 -24.5t-22.5 -55.5q0 -40 27.5 -62t85.5 -38zM871 -47q43 0 69.5 27
t26.5 61q0 38 -31 60t-103 45q-32 -14 -47.5 -40t-15.5 -57q0 -43 27 -69.5t74 -26.5z" />
    <glyph glyph-name="threeeighths" unicode="&#x215c;" horiz-adv-x="1060" 
d="M217 167q-65 0 -109 31t-44 72q0 20 13 35t32 15t29 -12.5t10 -28.5q0 -13 -6.5 -24t-15.5 -17q10 -12 32.5 -23.5t57.5 -11.5q49 0 75 27t26 68q0 43 -29 70t-95 27h-19v36h16q63 0 91 26t28 69q0 37 -23.5 59.5t-66.5 22.5q-37 0 -58.5 -13t-31.5 -26q12 -4 20.5 -15
t8.5 -26t-10.5 -28.5t-29.5 -13.5q-18 0 -30.5 14t-12.5 36q0 40 41.5 74t109.5 34q69 0 108 -34.5t39 -80.5q0 -43 -31 -72.5t-87 -42.5v-1q60 -7 93 -36.5t33 -73.5q0 -55 -44.5 -95.5t-119.5 -40.5zM266 -82l249 361l247 361h53l-249 -361l-247 -361h-53zM835 -82
q-69 0 -109.5 36t-40.5 88q0 31 19.5 63.5t68.5 52.5q-39 19 -57 45.5t-18 62.5q0 51 39 90t105 39q64 0 100.5 -34.5t36.5 -80.5q0 -39 -19.5 -67t-60.5 -45q47 -18 70.5 -45.5t23.5 -64.5q0 -57 -44.5 -98.5t-113.5 -41.5zM867 180q30 15 46 40t16 56q0 34 -23 59t-66 25
q-41 0 -63.5 -24.5t-22.5 -55.5q0 -40 27.5 -62t85.5 -38zM841 -47q43 0 69.5 27t26.5 61q0 38 -31 60t-103 45q-32 -14 -47.5 -40t-15.5 -57q0 -43 27 -69.5t74 -26.5z" />
    <glyph glyph-name="fiveeighths" unicode="&#x215d;" horiz-adv-x="1060" 
d="M212 167q-28 0 -55 8t-47 21t-32.5 31t-12.5 39q0 19 13 33.5t32 14.5t29 -12.5t10 -27.5q0 -14 -8 -26.5t-20 -16.5q10 -10 33 -19.5t56 -9.5q50 0 77.5 33.5t27.5 87.5t-24 81.5t-70 27.5q-31 0 -55.5 -12t-44.5 -31l-30 9l16 235l9 7q35 -13 67.5 -20t64.5 -7
q36 0 61.5 7t48.5 19l9 -20q-22 -30 -53.5 -46t-73.5 -16q-28 0 -54 6t-45 13l-9 -140q17 13 43 22.5t57 9.5q69 0 107.5 -40.5t38.5 -98.5q0 -29 -10 -58t-31 -52t-52 -37.5t-73 -14.5zM266 -82l249 361l247 361h53l-249 -361l-247 -361h-53zM835 -82q-69 0 -109.5 36
t-40.5 88q0 31 19.5 63.5t68.5 52.5q-39 19 -57 45.5t-18 62.5q0 51 39 90t105 39q64 0 100.5 -34.5t36.5 -80.5q0 -39 -19.5 -67t-60.5 -45q47 -18 70.5 -45.5t23.5 -64.5q0 -57 -44.5 -98.5t-113.5 -41.5zM867 180q30 15 46 40t16 56q0 34 -23 59t-66 25
q-41 0 -63.5 -24.5t-22.5 -55.5q0 -40 27.5 -62t85.5 -38zM841 -47q43 0 69.5 27t26.5 61q0 38 -31 60t-103 45q-32 -14 -47.5 -40t-15.5 -57q0 -43 27 -69.5t74 -26.5z" />
    <glyph glyph-name="seveneighths" unicode="&#x215e;" horiz-adv-x="980" 
d="M196 167q-15 0 -25 10t-10 29q0 26 9.5 63t27 77t43 81t57.5 77q15 18 29.5 34.5t23.5 29.5l-2 3q-18 -11 -36.5 -17.5t-34.5 -6.5q-19 0 -34 5t-27.5 11.5t-23.5 11.5t-23 5q-24 0 -37.5 -24.5t-20.5 -98.5h-35v177h38l3 -59h3q10 31 26 46.5t41 15.5q21 0 35.5 -9
t27 -20.5t25.5 -20.5t29 -9q6 0 14.5 2t16.5 6q-4 5 -7 11t-3 13q0 14 10 24.5t25 10.5q16 0 26 -11.5t10 -27.5q0 -22 -14 -43t-42 -56q-50 -59 -77 -126.5t-33 -168.5q-1 -22 -10 -33.5t-25 -11.5zM186 -82l249 361l247 361h53l-249 -361l-247 -361h-53zM755 -82
q-69 0 -109.5 36t-40.5 88q0 31 19.5 63.5t68.5 52.5q-39 19 -57 45.5t-18 62.5q0 51 39 90t105 39q64 0 100.5 -34.5t36.5 -80.5q0 -39 -19.5 -67t-60.5 -45q47 -18 70.5 -45.5t23.5 -64.5q0 -57 -44.5 -98.5t-113.5 -41.5zM787 180q30 15 46 40t16 56q0 34 -23 59t-66 25
q-41 0 -63.5 -24.5t-22.5 -55.5q0 -40 27.5 -62t85.5 -38zM761 -47q43 0 69.5 27t26.5 61q0 38 -31 60t-103 45q-32 -14 -47.5 -40t-15.5 -57q0 -43 27 -69.5t74 -26.5z" />
    <glyph glyph-name="minus" unicode="&#x2212;" horiz-adv-x="524" 
d="M78 290v42h368v-42h-368z" />
    <glyph glyph-name="dotmath" unicode="&#x22c5;" horiz-adv-x="316" 
d="M158 261q-21 0 -35.5 14.5t-14.5 35.5t14.5 35.5t35.5 14.5t35.5 -14.5t14.5 -35.5t-14.5 -35.5t-35.5 -14.5z" />
    <glyph glyph-name="uniE00C" unicode="&#x261a;" horiz-adv-x="1473" 
d="M1000 -8q-34 0 -52.5 27t-31.5 58l-12 29q63 33 103.5 77t63.5 107l-18 7q-52 -100 -133 -150t-221 -50h-16t-20 1l-1 3q12 7 22.5 21t10.5 30q0 13 -7 24.5t-24 23.5q5 7 8.5 14.5t3.5 15.5q0 16 -9 28.5t-28 26.5q7 9 11.5 17.5t4.5 21.5t-8.5 22.5t-22.5 16.5
q14 5 27.5 12t26.5 18q4 -25 14.5 -52t29 -49.5t45.5 -37t65 -14.5q17 0 35.5 4.5t31.5 11.5l-5 18q-13 -4 -27.5 -6.5t-27.5 -2.5q-34 0 -58 15t-40.5 38.5t-25 53t-10.5 57.5q-1 11 -2.5 17t-8.5 6q-4 0 -7.5 -4t-9.5 -11q-33 -39 -84 -50.5t-117 -14.5q-4 0 -8 -1.5
t-8 -3.5q-23 -13 -53 -26t-60 -13q-37 0 -64.5 11t-27.5 30q0 11 8 17.5t18 10.5q95 36 157 66t96 51l-9 13q-20 -8 -38 -14.5t-40 -14.5q-103 1 -171 3t-110 5t-64.5 7t-35.5 10t-19.5 13t-6.5 15q0 28 110.5 51.5t359.5 23.5q89 0 161 -11t127 -28t96 -37t69 -38l10 14
q-12 11 -28.5 21.5t-29.5 20.5q16 34 33.5 60t51.5 26q30 0 50.5 -19t20.5 -46q0 -9 -3.5 -20t-9.5 -20l-15 -22l9 -8l23 16q12 8 24 12t24 4q28 0 47.5 -20t19.5 -47q0 -19 -10.5 -36.5t-37.5 -31.5l-19 -10l3 -14h27q46 0 68 -19.5t22 -49.5t-22 -49.5t-68 -19.5h-27
l-3 -14l19 -10q27 -14 37.5 -31.5t10.5 -36.5q0 -27 -19.5 -47t-47.5 -20q-12 0 -24 4t-24 12l-23 16l-9 -8l15 -22q6 -9 9.5 -20t3.5 -20q0 -27 -20.5 -46t-50.5 -19zM1351 0q-58 22 -94.5 40.5t-76.5 41.5q18 13 30.5 34t12.5 48q0 16 -7.5 33.5t-22.5 30.5l1 3
q37 7 60 31t23 61t-23 61t-60 31l-1 3q15 13 22.5 30.5t7.5 33.5q0 27 -12.5 48t-30.5 34q40 23 76.5 41.5t94.5 40.5l13 -4q32 -90 45.5 -167.5t13.5 -151.5t-13.5 -151.5t-45.5 -167.5zM489 267q-22 0 -57 6.5t-75 21.5l1 3q38 4 69.5 15t52.5 25q31 1 50.5 4.5t49.5 7.5
q25 -7 31.5 -13.5t6.5 -16.5t-12 -20t-30 -17t-41.5 -11.5t-45.5 -4.5zM498 173q-32 0 -63.5 8.5t-56 21.5t-39.5 28t-15 28q0 3 1.5 7t5.5 7q43 -22 91.5 -29.5t77.5 -7.5q28 0 57 9t53 21q20 -12 24.5 -20.5t4.5 -12.5q0 -10 -12 -20.5t-31.5 -19.5t-45 -14.5t-52.5 -5.5z
M513 85q-34 0 -64 8t-52.5 20.5t-36 27.5t-13.5 29q0 4 1 8.5t3 8.5q30 -22 73 -33.5t77 -11.5t69.5 10t69.5 29q11 -7 16 -14t5 -14q0 -13 -14 -25.5t-36 -22t-48 -15t-50 -5.5z" />
    <glyph glyph-name="uniE00C" unicode="&#xe00c;" horiz-adv-x="1473" 
d="M1000 -8q-34 0 -52.5 27t-31.5 58l-12 29q63 33 103.5 77t63.5 107l-18 7q-52 -100 -133 -150t-221 -50h-16t-20 1l-1 3q12 7 22.5 21t10.5 30q0 13 -7 24.5t-24 23.5q5 7 8.5 14.5t3.5 15.5q0 16 -9 28.5t-28 26.5q7 9 11.5 17.5t4.5 21.5t-8.5 22.5t-22.5 16.5
q14 5 27.5 12t26.5 18q4 -25 14.5 -52t29 -49.5t45.5 -37t65 -14.5q17 0 35.5 4.5t31.5 11.5l-5 18q-13 -4 -27.5 -6.5t-27.5 -2.5q-34 0 -58 15t-40.5 38.5t-25 53t-10.5 57.5q-1 11 -2.5 17t-8.5 6q-4 0 -7.5 -4t-9.5 -11q-33 -39 -84 -50.5t-117 -14.5q-4 0 -8 -1.5
t-8 -3.5q-23 -13 -53 -26t-60 -13q-37 0 -64.5 11t-27.5 30q0 11 8 17.5t18 10.5q95 36 157 66t96 51l-9 13q-20 -8 -38 -14.5t-40 -14.5q-103 1 -171 3t-110 5t-64.5 7t-35.5 10t-19.5 13t-6.5 15q0 28 110.5 51.5t359.5 23.5q89 0 161 -11t127 -28t96 -37t69 -38l10 14
q-12 11 -28.5 21.5t-29.5 20.5q16 34 33.5 60t51.5 26q30 0 50.5 -19t20.5 -46q0 -9 -3.5 -20t-9.5 -20l-15 -22l9 -8l23 16q12 8 24 12t24 4q28 0 47.5 -20t19.5 -47q0 -19 -10.5 -36.5t-37.5 -31.5l-19 -10l3 -14h27q46 0 68 -19.5t22 -49.5t-22 -49.5t-68 -19.5h-27
l-3 -14l19 -10q27 -14 37.5 -31.5t10.5 -36.5q0 -27 -19.5 -47t-47.5 -20q-12 0 -24 4t-24 12l-23 16l-9 -8l15 -22q6 -9 9.5 -20t3.5 -20q0 -27 -20.5 -46t-50.5 -19zM1351 0q-58 22 -94.5 40.5t-76.5 41.5q18 13 30.5 34t12.5 48q0 16 -7.5 33.5t-22.5 30.5l1 3
q37 7 60 31t23 61t-23 61t-60 31l-1 3q15 13 22.5 30.5t7.5 33.5q0 27 -12.5 48t-30.5 34q40 23 76.5 41.5t94.5 40.5l13 -4q32 -90 45.5 -167.5t13.5 -151.5t-13.5 -151.5t-45.5 -167.5zM489 267q-22 0 -57 6.5t-75 21.5l1 3q38 4 69.5 15t52.5 25q31 1 50.5 4.5t49.5 7.5
q25 -7 31.5 -13.5t6.5 -16.5t-12 -20t-30 -17t-41.5 -11.5t-45.5 -4.5zM498 173q-32 0 -63.5 8.5t-56 21.5t-39.5 28t-15 28q0 3 1.5 7t5.5 7q43 -22 91.5 -29.5t77.5 -7.5q28 0 57 9t53 21q20 -12 24.5 -20.5t4.5 -12.5q0 -10 -12 -20.5t-31.5 -19.5t-45 -14.5t-52.5 -5.5z
M513 85q-34 0 -64 8t-52.5 20.5t-36 27.5t-13.5 29q0 4 1 8.5t3 8.5q30 -22 73 -33.5t77 -11.5t69.5 10t69.5 29q11 -7 16 -14t5 -14q0 -13 -14 -25.5t-36 -22t-48 -15t-50 -5.5z" />
    <glyph glyph-name="uniE00D" unicode="&#x261b;" horiz-adv-x="1473" 
d="M473 -8q-30 0 -50.5 19t-20.5 46q0 9 3.5 20t9.5 20l15 22l-9 8l-23 -16q-12 -8 -24 -12t-24 -4q-28 0 -47.5 20t-19.5 47q0 19 10.5 36.5t37.5 31.5l19 10l-3 14h-27q-46 0 -68 19.5t-22 49.5t22 49.5t68 19.5h27l3 14l-19 10q-27 14 -37.5 31.5t-10.5 36.5
q0 27 19.5 47t47.5 20q12 0 24 -4t24 -12l23 -16l9 8l-15 22q-6 9 -9.5 20t-3.5 20q0 27 20.5 46t50.5 19q34 0 51.5 -26t33.5 -60q-13 -10 -29.5 -20.5t-28.5 -21.5l10 -14q28 18 69 38t96 37t127 28t161 11q249 0 359.5 -23.5t110.5 -51.5q0 -8 -6.5 -15t-19.5 -13
t-35.5 -10t-64.5 -7t-110 -5t-171 -3q-22 8 -40 14.5t-38 14.5l-9 -13q34 -21 96 -51t157 -66q10 -4 18 -10.5t8 -17.5q0 -19 -27.5 -30t-64.5 -11q-30 0 -60 13t-53 26q-4 2 -8 3.5t-8 1.5q-66 3 -117 14.5t-84 50.5q-6 7 -9.5 11t-7.5 4q-7 0 -8.5 -6t-2.5 -17
q-2 -28 -10.5 -57.5t-25 -53t-40.5 -38.5t-58 -15q-13 0 -27.5 2.5t-27.5 6.5l-5 -18q13 -7 31.5 -11.5t35.5 -4.5q38 0 65 14.5t45.5 37t29 49.5t14.5 52q13 -11 26.5 -18t27.5 -12q-14 -7 -22.5 -16.5t-8.5 -22.5t4.5 -21.5t11.5 -17.5q-19 -14 -28 -26.5t-9 -28.5
q0 -8 3.5 -15.5t8.5 -14.5q-17 -12 -24 -23.5t-7 -24.5q0 -16 10.5 -30t22.5 -21l-1 -3q-6 -1 -20 -1h-16q-140 0 -221 50t-133 150l-18 -7q23 -63 63.5 -107t103.5 -77l-12 -29q-13 -31 -31.5 -58t-52.5 -27zM122 0l-13 4q-32 90 -45.5 167.5t-13.5 151.5t13.5 151.5
t45.5 167.5l13 4q58 -22 94.5 -40.5t76.5 -41.5q-18 -13 -30.5 -34t-12.5 -48q0 -16 7.5 -33.5t22.5 -30.5l-1 -3q-37 -7 -60 -31t-23 -61t23 -61t60 -31l1 -3q-15 -13 -22.5 -30.5t-7.5 -33.5q0 -27 12.5 -48t30.5 -34q-40 -23 -76.5 -41.5t-94.5 -40.5zM984 267
q-22 0 -45.5 4.5t-41.5 11.5t-30 17t-12 20t6.5 16.5t31.5 13.5q30 -4 49.5 -7.5t50.5 -4.5q21 -14 52.5 -25t69.5 -15l1 -3q-40 -15 -75 -21.5t-57 -6.5zM975 173q-27 0 -52.5 5.5t-45 14.5t-31.5 19.5t-12 20.5q0 4 4.5 12.5t24.5 20.5q24 -12 53 -21t57 -9q29 0 77.5 7.5
t91.5 29.5q4 -3 5.5 -7t1.5 -7q0 -13 -15 -28t-39.5 -28t-56 -21.5t-63.5 -8.5zM960 85q-24 0 -50 5.5t-48 15t-36 22t-14 25.5q0 7 5 14t16 14q34 -19 69.5 -29t69.5 -10t77 11.5t73 33.5q2 -4 3 -8.5t1 -8.5q0 -14 -13.5 -29t-36 -27.5t-52.5 -20.5t-64 -8z" />
    <glyph glyph-name="uniE00D" unicode="&#xe00d;" horiz-adv-x="1473" 
d="M473 -8q-30 0 -50.5 19t-20.5 46q0 9 3.5 20t9.5 20l15 22l-9 8l-23 -16q-12 -8 -24 -12t-24 -4q-28 0 -47.5 20t-19.5 47q0 19 10.5 36.5t37.5 31.5l19 10l-3 14h-27q-46 0 -68 19.5t-22 49.5t22 49.5t68 19.5h27l3 14l-19 10q-27 14 -37.5 31.5t-10.5 36.5
q0 27 19.5 47t47.5 20q12 0 24 -4t24 -12l23 -16l9 8l-15 22q-6 9 -9.5 20t-3.5 20q0 27 20.5 46t50.5 19q34 0 51.5 -26t33.5 -60q-13 -10 -29.5 -20.5t-28.5 -21.5l10 -14q28 18 69 38t96 37t127 28t161 11q249 0 359.5 -23.5t110.5 -51.5q0 -8 -6.5 -15t-19.5 -13
t-35.5 -10t-64.5 -7t-110 -5t-171 -3q-22 8 -40 14.5t-38 14.5l-9 -13q34 -21 96 -51t157 -66q10 -4 18 -10.5t8 -17.5q0 -19 -27.5 -30t-64.5 -11q-30 0 -60 13t-53 26q-4 2 -8 3.5t-8 1.5q-66 3 -117 14.5t-84 50.5q-6 7 -9.5 11t-7.5 4q-7 0 -8.5 -6t-2.5 -17
q-2 -28 -10.5 -57.5t-25 -53t-40.5 -38.5t-58 -15q-13 0 -27.5 2.5t-27.5 6.5l-5 -18q13 -7 31.5 -11.5t35.5 -4.5q38 0 65 14.5t45.5 37t29 49.5t14.5 52q13 -11 26.5 -18t27.5 -12q-14 -7 -22.5 -16.5t-8.5 -22.5t4.5 -21.5t11.5 -17.5q-19 -14 -28 -26.5t-9 -28.5
q0 -8 3.5 -15.5t8.5 -14.5q-17 -12 -24 -23.5t-7 -24.5q0 -16 10.5 -30t22.5 -21l-1 -3q-6 -1 -20 -1h-16q-140 0 -221 50t-133 150l-18 -7q23 -63 63.5 -107t103.5 -77l-12 -29q-13 -31 -31.5 -58t-52.5 -27zM122 0l-13 4q-32 90 -45.5 167.5t-13.5 151.5t13.5 151.5
t45.5 167.5l13 4q58 -22 94.5 -40.5t76.5 -41.5q-18 -13 -30.5 -34t-12.5 -48q0 -16 7.5 -33.5t22.5 -30.5l-1 -3q-37 -7 -60 -31t-23 -61t23 -61t60 -31l1 -3q-15 -13 -22.5 -30.5t-7.5 -33.5q0 -27 12.5 -48t30.5 -34q-40 -23 -76.5 -41.5t-94.5 -40.5zM984 267
q-22 0 -45.5 4.5t-41.5 11.5t-30 17t-12 20t6.5 16.5t31.5 13.5q30 -4 49.5 -7.5t50.5 -4.5q21 -14 52.5 -25t69.5 -15l1 -3q-40 -15 -75 -21.5t-57 -6.5zM975 173q-27 0 -52.5 5.5t-45 14.5t-31.5 19.5t-12 20.5q0 4 4.5 12.5t24.5 20.5q24 -12 53 -21t57 -9q29 0 77.5 7.5
t91.5 29.5q4 -3 5.5 -7t1.5 -7q0 -13 -15 -28t-39.5 -28t-56 -21.5t-63.5 -8.5zM960 85q-24 0 -50 5.5t-48 15t-36 22t-14 25.5q0 7 5 14t16 14q34 -19 69.5 -29t69.5 -10t77 11.5t73 33.5q2 -4 3 -8.5t1 -8.5q0 -14 -13.5 -29t-36 -27.5t-52.5 -20.5t-64 -8z" />
    <glyph glyph-name="uniE00A" unicode="&#x261c;" horiz-adv-x="1473" 
d="M656 62q-52 0 -105.5 7.5t-93.5 21.5q-53 18 -79.5 41.5t-26.5 49.5q0 8 2.5 14.5t7.5 11.5q-16 12 -25 25.5t-9 26.5q0 7 2.5 13.5t9.5 13.5q-34 19 -50.5 36.5t-16.5 29.5q0 13 8.5 19.5t18.5 10.5q78 29 133 50t95 37v2h-7q-54 0 -127.5 0.5t-142 4t-122.5 11.5
t-69 23q-5 5 -8 11.5t-3 16.5q0 7 2.5 14.5t7.5 13.5q24 27 138.5 42.5t323.5 15.5q126 0 208.5 -15t142.5 -42q14 37 36.5 59.5t59.5 22.5q46 0 67 -34t11 -72h1q10 7 22.5 10t22.5 3q13 0 25.5 -4.5t22.5 -12.5q41 28 83.5 54.5t88.5 50.5l13 -4q28 -72 43.5 -147.5
t15.5 -158.5q0 -78 -16.5 -163t-47.5 -157l-13 -4q-46 23 -89 49t-86 54q-10 -7 -23 -11.5t-26 -4.5q-12 0 -24 3.5t-23 10.5l-1 -1q10 -45 -13.5 -74t-65.5 -29q-37 0 -60 23.5t-33 57.5q-37 -12 -94.5 -19.5t-111.5 -7.5zM967 619q-23 0 -40.5 -16t-26.5 -49
q25 -12 47.5 -25t41.5 -26q14 16 21 30.5t7 34.5q0 19 -12.5 35t-37.5 16zM108 524q19 -5 66.5 -9.5t113.5 -7t146.5 -4.5t162.5 -3q36 16 67 34t72 43q-14 3 -31 5.5t-41 4.5t-59 3t-85 1q-185 0 -279.5 -10.5t-131.5 -23.5q-11 -4 -15 -8.5t-4 -8.5t5 -9t13 -7zM912 233
q40 0 72.5 12.5t53.5 34.5q14 13 19.5 31.5t5.5 32.5q0 57 -65.5 112.5t-193.5 102.5q-7 2 -13 3.5t-12 1.5q-7 0 -12.5 -3t-11.5 -7q-27 -19 -63.5 -40t-86 -43.5t-116.5 -49.5t-155 -58q-10 -3 -14 -7t-4 -7q0 -13 22.5 -26.5t43.5 -13.5q25 0 57.5 12.5t49.5 26.5
q3 3 7.5 4t8.5 1q68 3 116 20t85 69q7 11 10.5 14t6.5 3q7 0 9 -6.5t3 -17.5q15 -107 60.5 -154.5t116.5 -47.5zM1089 527q-17 0 -33.5 -9t-40.5 -34q23 -19 40.5 -38.5t27.5 -40.5q27 10 44.5 27t17.5 39q0 21 -15.5 38.5t-40.5 17.5zM598 94q4 -1 20 -1.5t26 -0.5
q140 0 227.5 34t156.5 108l-3 3q-24 -16 -52.5 -25t-64.5 -9q-41 0 -74 14.5t-58 40t-42 60t-26 74.5q-10 -10 -21.5 -18t-22.5 -14q17 -12 24 -23t7 -21q0 -7 -4 -14t-11 -13q23 -13 32 -23t9 -22q0 -7 -4 -13.5t-11 -12.5q19 -11 28 -22.5t9 -23.5q0 -20 -32.5 -40
t-113.5 -35zM1098 342q0 -17 -3.5 -34.5t-9.5 -33.5q11 -4 23 -5.5t23 -1.5q30 0 48 16.5t18 41.5q0 26 -19 43t-56 17q-7 0 -14.5 -1t-15.5 -2q3 -10 4.5 -20t1.5 -20zM421 285q17 -8 44.5 -11t50.5 -3q28 0 54 5t46.5 12.5t33 16t12.5 15.5q0 4 -5.5 10.5t-18.5 15.5
q-28 -12 -59.5 -18t-68.5 -8q-21 -12 -40.5 -20t-48.5 -12v-3zM362 257q0 -9 13.5 -20.5t35 -21t49.5 -16t57 -6.5q31 0 61.5 5.5t54.5 13.5t38.5 18t14.5 18q0 4 -6 10.5t-25 13.5q-29 -15 -69 -24.5t-73 -9.5q-32 0 -71 9t-73 25q-4 -4 -5.5 -8t-1.5 -7zM1138 179
q0 22 -13.5 39.5t-51.5 30.5q-11 -21 -28 -41t-37 -37q21 -25 39.5 -35t34.5 -10q25 0 40.5 16.5t15.5 36.5zM517 160q-33 0 -66.5 8.5t-60.5 22.5q-2 -3 -3 -6.5t-1 -7.5q0 -19 38.5 -41t99.5 -22q28 0 60.5 6t60 14.5t45.5 19.5t18 20q0 6 -6.5 13t-20.5 14
q-33 -18 -80 -29.5t-84 -11.5zM1009 90q0 18 -6.5 32.5t-19.5 28.5q-20 -15 -43.5 -28t-48.5 -23q10 -31 25.5 -47t39.5 -16q26 0 39.5 16t13.5 37z" />
    <glyph glyph-name="uniE00A" unicode="&#xe00a;" horiz-adv-x="1473" 
d="M656 62q-52 0 -105.5 7.5t-93.5 21.5q-53 18 -79.5 41.5t-26.5 49.5q0 8 2.5 14.5t7.5 11.5q-16 12 -25 25.5t-9 26.5q0 7 2.5 13.5t9.5 13.5q-34 19 -50.5 36.5t-16.5 29.5q0 13 8.5 19.5t18.5 10.5q78 29 133 50t95 37v2h-7q-54 0 -127.5 0.5t-142 4t-122.5 11.5
t-69 23q-5 5 -8 11.5t-3 16.5q0 7 2.5 14.5t7.5 13.5q24 27 138.5 42.5t323.5 15.5q126 0 208.5 -15t142.5 -42q14 37 36.5 59.5t59.5 22.5q46 0 67 -34t11 -72h1q10 7 22.5 10t22.5 3q13 0 25.5 -4.5t22.5 -12.5q41 28 83.5 54.5t88.5 50.5l13 -4q28 -72 43.5 -147.5
t15.5 -158.5q0 -78 -16.5 -163t-47.5 -157l-13 -4q-46 23 -89 49t-86 54q-10 -7 -23 -11.5t-26 -4.5q-12 0 -24 3.5t-23 10.5l-1 -1q10 -45 -13.5 -74t-65.5 -29q-37 0 -60 23.5t-33 57.5q-37 -12 -94.5 -19.5t-111.5 -7.5zM967 619q-23 0 -40.5 -16t-26.5 -49
q25 -12 47.5 -25t41.5 -26q14 16 21 30.5t7 34.5q0 19 -12.5 35t-37.5 16zM108 524q19 -5 66.5 -9.5t113.5 -7t146.5 -4.5t162.5 -3q36 16 67 34t72 43q-14 3 -31 5.5t-41 4.5t-59 3t-85 1q-185 0 -279.5 -10.5t-131.5 -23.5q-11 -4 -15 -8.5t-4 -8.5t5 -9t13 -7zM912 233
q40 0 72.5 12.5t53.5 34.5q14 13 19.5 31.5t5.5 32.5q0 57 -65.5 112.5t-193.5 102.5q-7 2 -13 3.5t-12 1.5q-7 0 -12.5 -3t-11.5 -7q-27 -19 -63.5 -40t-86 -43.5t-116.5 -49.5t-155 -58q-10 -3 -14 -7t-4 -7q0 -13 22.5 -26.5t43.5 -13.5q25 0 57.5 12.5t49.5 26.5
q3 3 7.5 4t8.5 1q68 3 116 20t85 69q7 11 10.5 14t6.5 3q7 0 9 -6.5t3 -17.5q15 -107 60.5 -154.5t116.5 -47.5zM1089 527q-17 0 -33.5 -9t-40.5 -34q23 -19 40.5 -38.5t27.5 -40.5q27 10 44.5 27t17.5 39q0 21 -15.5 38.5t-40.5 17.5zM598 94q4 -1 20 -1.5t26 -0.5
q140 0 227.5 34t156.5 108l-3 3q-24 -16 -52.5 -25t-64.5 -9q-41 0 -74 14.5t-58 40t-42 60t-26 74.5q-10 -10 -21.5 -18t-22.5 -14q17 -12 24 -23t7 -21q0 -7 -4 -14t-11 -13q23 -13 32 -23t9 -22q0 -7 -4 -13.5t-11 -12.5q19 -11 28 -22.5t9 -23.5q0 -20 -32.5 -40
t-113.5 -35zM1098 342q0 -17 -3.5 -34.5t-9.5 -33.5q11 -4 23 -5.5t23 -1.5q30 0 48 16.5t18 41.5q0 26 -19 43t-56 17q-7 0 -14.5 -1t-15.5 -2q3 -10 4.5 -20t1.5 -20zM421 285q17 -8 44.5 -11t50.5 -3q28 0 54 5t46.5 12.5t33 16t12.5 15.5q0 4 -5.5 10.5t-18.5 15.5
q-28 -12 -59.5 -18t-68.5 -8q-21 -12 -40.5 -20t-48.5 -12v-3zM362 257q0 -9 13.5 -20.5t35 -21t49.5 -16t57 -6.5q31 0 61.5 5.5t54.5 13.5t38.5 18t14.5 18q0 4 -6 10.5t-25 13.5q-29 -15 -69 -24.5t-73 -9.5q-32 0 -71 9t-73 25q-4 -4 -5.5 -8t-1.5 -7zM1138 179
q0 22 -13.5 39.5t-51.5 30.5q-11 -21 -28 -41t-37 -37q21 -25 39.5 -35t34.5 -10q25 0 40.5 16.5t15.5 36.5zM517 160q-33 0 -66.5 8.5t-60.5 22.5q-2 -3 -3 -6.5t-1 -7.5q0 -19 38.5 -41t99.5 -22q28 0 60.5 6t60 14.5t45.5 19.5t18 20q0 6 -6.5 13t-20.5 14
q-33 -18 -80 -29.5t-84 -11.5zM1009 90q0 18 -6.5 32.5t-19.5 28.5q-20 -15 -43.5 -28t-48.5 -23q10 -31 25.5 -47t39.5 -16q26 0 39.5 16t13.5 37z" />
    <glyph glyph-name="uniE00B" unicode="&#x261e;" horiz-adv-x="1473" 
d="M518 8q-42 0 -65.5 29t-13.5 74l-1 1q-11 -7 -23 -10.5t-24 -3.5q-13 0 -26 4.5t-23 11.5q-43 -28 -86 -54t-89 -49l-13 4q-31 72 -47.5 157t-16.5 163q0 83 15.5 158.5t43.5 147.5l13 4q46 -24 88.5 -50.5t83.5 -54.5q10 8 22.5 12.5t25.5 4.5q10 0 22.5 -3t22.5 -10h1
q-10 38 11 72t67 34q37 0 59.5 -22.5t36.5 -59.5q60 27 142.5 42t208.5 15q209 0 323.5 -15.5t138.5 -42.5q5 -6 7.5 -13.5t2.5 -14.5q0 -10 -3 -16.5t-8 -11.5q-15 -15 -69 -23t-122.5 -11.5t-142 -4t-127.5 -0.5h-7v-2q40 -16 95 -37t133 -50q10 -4 18.5 -10.5t8.5 -19.5
q0 -12 -16.5 -29.5t-50.5 -36.5q7 -7 9.5 -13.5t2.5 -13.5q0 -13 -9 -26.5t-25 -25.5q5 -5 7.5 -11.5t2.5 -14.5q0 -26 -26.5 -49.5t-79.5 -41.5q-40 -14 -93.5 -21.5t-105.5 -7.5q-54 0 -111.5 7.5t-94.5 19.5q-10 -34 -33 -57.5t-60 -23.5zM456 568q0 -20 7 -34.5
t21 -30.5q19 13 41.5 26t47.5 25q-9 33 -26.5 49t-40.5 16q-25 0 -37.5 -16t-12.5 -35zM737 577q41 -25 72 -43t67 -34q82 1 162.5 3t146.5 4.5t113.5 7t66.5 9.5q8 2 13 7t5 9t-4 8.5t-15 8.5q-37 13 -131.5 23.5t-279.5 10.5q-50 0 -85 -1t-59 -3t-41 -4.5t-31 -5.5z
M561 233q71 0 116.5 47.5t60.5 154.5q1 11 3 17.5t9 6.5q3 0 6.5 -3t10.5 -14q37 -52 85 -69t116 -20q4 0 8.5 -1t7.5 -4q17 -14 49.5 -26.5t57.5 -12.5q21 0 43.5 13.5t22.5 26.5q0 3 -4 7t-14 7q-88 31 -155 58t-116.5 49.5t-86 43.5t-63.5 40q-6 4 -11.5 7t-12.5 3
q-6 0 -12 -1.5t-13 -3.5q-128 -47 -193.5 -102.5t-65.5 -112.5q0 -14 5.5 -32.5t19.5 -31.5q21 -22 53.5 -34.5t72.5 -12.5zM328 471q0 -22 17.5 -39t44.5 -27q10 21 27.5 40.5t40.5 38.5q-25 25 -41 34t-33 9q-25 0 -40.5 -17.5t-15.5 -38.5zM445 234q69 -74 156.5 -108
t227.5 -34q10 0 26 0.5t20 1.5l1 3q-81 15 -113.5 35t-32.5 40q0 12 9 23.5t28 22.5q-7 6 -11 12.5t-4 13.5q0 12 9 22t32 23q-7 6 -11 13t-4 14q0 10 7 21t24 23q-11 6 -22.5 14t-21.5 18q-9 -40 -26 -74.5t-42 -60t-58 -40t-74 -14.5q-36 0 -64.5 9t-52.5 25zM276 325
q0 -27 17.5 -43.5t47.5 -16.5q13 0 26 1.5t22 5.5q-7 16 -10.5 34t-3.5 36q0 11 1.5 22t5.5 21q-8 1 -16.5 1.5t-15.5 0.5q-37 0 -55.5 -17t-18.5 -45zM811 320q0 -7 12.5 -15.5t33 -16t46.5 -12.5t54 -5q23 0 50.5 3t44.5 11v3q-29 4 -48.5 12t-40.5 20q-37 2 -68.5 8
t-59.5 18q-13 -9 -18.5 -15.5t-5.5 -10.5zM787 248q0 -8 14.5 -18t38.5 -18t54.5 -13.5t61.5 -5.5q29 0 57 6.5t49.5 16t35 21t13.5 20.5q0 3 -1.5 7t-5.5 8q-34 -16 -73 -25t-71 -9q-33 0 -73 9.5t-69 24.5q-19 -8 -25 -14t-6 -10zM335 179q0 -20 15.5 -36.5t40.5 -16.5
q16 0 34.5 10t39.5 35q-20 17 -37 37t-28 41q-38 -13 -51.5 -30.5t-13.5 -39.5zM956 160q-37 0 -84 11.5t-80 29.5q-14 -7 -20.5 -14t-6.5 -13q0 -9 18 -20t45.5 -19.5t60 -14.5t60.5 -6q61 0 99.5 22t38.5 41q0 4 -1 7.5t-3 6.5q-27 -14 -60.5 -22.5t-66.5 -8.5zM464 90
q0 -21 13.5 -37t39.5 -16q24 0 39.5 16t25.5 47q-25 10 -48.5 23t-43.5 28q-14 -16 -20 -30.5t-6 -30.5z" />
    <glyph glyph-name="uniE00B" unicode="&#xe00b;" horiz-adv-x="1473" 
d="M518 8q-42 0 -65.5 29t-13.5 74l-1 1q-11 -7 -23 -10.5t-24 -3.5q-13 0 -26 4.5t-23 11.5q-43 -28 -86 -54t-89 -49l-13 4q-31 72 -47.5 157t-16.5 163q0 83 15.5 158.5t43.5 147.5l13 4q46 -24 88.5 -50.5t83.5 -54.5q10 8 22.5 12.5t25.5 4.5q10 0 22.5 -3t22.5 -10h1
q-10 38 11 72t67 34q37 0 59.5 -22.5t36.5 -59.5q60 27 142.5 42t208.5 15q209 0 323.5 -15.5t138.5 -42.5q5 -6 7.5 -13.5t2.5 -14.5q0 -10 -3 -16.5t-8 -11.5q-15 -15 -69 -23t-122.5 -11.5t-142 -4t-127.5 -0.5h-7v-2q40 -16 95 -37t133 -50q10 -4 18.5 -10.5t8.5 -19.5
q0 -12 -16.5 -29.5t-50.5 -36.5q7 -7 9.5 -13.5t2.5 -13.5q0 -13 -9 -26.5t-25 -25.5q5 -5 7.5 -11.5t2.5 -14.5q0 -26 -26.5 -49.5t-79.5 -41.5q-40 -14 -93.5 -21.5t-105.5 -7.5q-54 0 -111.5 7.5t-94.5 19.5q-10 -34 -33 -57.5t-60 -23.5zM456 568q0 -20 7 -34.5
t21 -30.5q19 13 41.5 26t47.5 25q-9 33 -26.5 49t-40.5 16q-25 0 -37.5 -16t-12.5 -35zM737 577q41 -25 72 -43t67 -34q82 1 162.5 3t146.5 4.5t113.5 7t66.5 9.5q8 2 13 7t5 9t-4 8.5t-15 8.5q-37 13 -131.5 23.5t-279.5 10.5q-50 0 -85 -1t-59 -3t-41 -4.5t-31 -5.5z
M561 233q71 0 116.5 47.5t60.5 154.5q1 11 3 17.5t9 6.5q3 0 6.5 -3t10.5 -14q37 -52 85 -69t116 -20q4 0 8.5 -1t7.5 -4q17 -14 49.5 -26.5t57.5 -12.5q21 0 43.5 13.5t22.5 26.5q0 3 -4 7t-14 7q-88 31 -155 58t-116.5 49.5t-86 43.5t-63.5 40q-6 4 -11.5 7t-12.5 3
q-6 0 -12 -1.5t-13 -3.5q-128 -47 -193.5 -102.5t-65.5 -112.5q0 -14 5.5 -32.5t19.5 -31.5q21 -22 53.5 -34.5t72.5 -12.5zM328 471q0 -22 17.5 -39t44.5 -27q10 21 27.5 40.5t40.5 38.5q-25 25 -41 34t-33 9q-25 0 -40.5 -17.5t-15.5 -38.5zM445 234q69 -74 156.5 -108
t227.5 -34q10 0 26 0.5t20 1.5l1 3q-81 15 -113.5 35t-32.5 40q0 12 9 23.5t28 22.5q-7 6 -11 12.5t-4 13.5q0 12 9 22t32 23q-7 6 -11 13t-4 14q0 10 7 21t24 23q-11 6 -22.5 14t-21.5 18q-9 -40 -26 -74.5t-42 -60t-58 -40t-74 -14.5q-36 0 -64.5 9t-52.5 25zM276 325
q0 -27 17.5 -43.5t47.5 -16.5q13 0 26 1.5t22 5.5q-7 16 -10.5 34t-3.5 36q0 11 1.5 22t5.5 21q-8 1 -16.5 1.5t-15.5 0.5q-37 0 -55.5 -17t-18.5 -45zM811 320q0 -7 12.5 -15.5t33 -16t46.5 -12.5t54 -5q23 0 50.5 3t44.5 11v3q-29 4 -48.5 12t-40.5 20q-37 2 -68.5 8
t-59.5 18q-13 -9 -18.5 -15.5t-5.5 -10.5zM787 248q0 -8 14.5 -18t38.5 -18t54.5 -13.5t61.5 -5.5q29 0 57 6.5t49.5 16t35 21t13.5 20.5q0 3 -1.5 7t-5.5 8q-34 -16 -73 -25t-71 -9q-33 0 -73 9.5t-69 24.5q-19 -8 -25 -14t-6 -10zM335 179q0 -20 15.5 -36.5t40.5 -16.5
q16 0 34.5 10t39.5 35q-20 17 -37 37t-28 41q-38 -13 -51.5 -30.5t-13.5 -39.5zM956 160q-37 0 -84 11.5t-80 29.5q-14 -7 -20.5 -14t-6.5 -13q0 -9 18 -20t45.5 -19.5t60 -14.5t60.5 -6q61 0 99.5 22t38.5 41q0 4 -1 7.5t-3 6.5q-27 -14 -60.5 -22.5t-66.5 -8.5zM464 90
q0 -21 13.5 -37t39.5 -16q24 0 39.5 16t25.5 47q-25 10 -48.5 23t-43.5 28q-14 -16 -20 -30.5t-6 -30.5z" />
    <glyph glyph-name="hcoslug" unicode="&#xe10b;" horiz-adv-x="694" 
d="M50 -100v800h594v-800h-594zM225 156q31 0 57 11t47 34q25 -25 44 -35t41 -10q32 0 55.5 25.5t24.5 68.5l-7 2q-7 -13 -17 -21t-26 -8q-15 0 -29 9.5t-33 31.5q11 15 23 25t23 17q7 -11 18.5 -18t24.5 -7q21 0 35.5 15.5t14.5 38.5t-14.5 37.5t-35.5 14.5
q-19 0 -33.5 -10t-26.5 -28q-1 20 -15 29t-34 8q4 7 6.5 15.5t2.5 18.5q0 26 -24.5 50t-70.5 24q-50 0 -79.5 -26.5t-29.5 -58.5q0 -22 7.5 -37.5t23.5 -31.5q-40 -13 -61 -36.5t-21 -54.5q0 -40 32 -66.5t77 -26.5zM285 369q-17 16 -27.5 29t-10.5 30q0 13 7.5 21t19.5 8
q13 0 21 -10.5t8 -27.5q0 -13 -5 -25t-13 -25zM353 296q-10 11 -19.5 22.5t-21.5 23.5q14 10 24.5 18.5t17.5 15.5q17 -17 15 -36t-16 -44zM261 219q-22 0 -37 15.5t-15 38.5q0 11 4 21.5t12 18.5q13 -13 33 -34.5t41 -47.5q-8 -7 -17.5 -9.5t-20.5 -2.5zM352 73h6l4 8
q2 -4 5.5 -6t8.5 -2q9 0 12.5 7t3.5 14q0 9 -4 14.5t-11 5.5q-4 0 -8 -2.5t-5 -6.5v27h-18v-7h6v-52zM125 74h30v7h-10v16h4q4 0 4.5 -1.5t1.5 -6.5h7v23h-7q-1 -5 -1.5 -6.5t-4.5 -1.5h-4v18h12q5 0 7.5 -2.5t3.5 -10.5h8v20h-51v-7h7v-41h-7v-7zM286 73q6 0 9.5 3t4.5 10
l-5 2q-1 -4 -2.5 -5.5t-2.5 -1.5q-2 0 -3 1.5t-1 3.5v20h13v7h-13v11l-12 -2v-9h-7v-7h7v-20q0 -6 3 -9.5t9 -3.5zM219 74h22v7h-4v15q0 4 2 7t5 3t4.5 -2t1.5 -5v-18h-4v-7h22v7h-6v19q0 6 -2.5 10t-9.5 4q-5 0 -8.5 -3t-5.5 -8v10h-17v-7h6v-25h-6v-7zM195 73q9 0 15 6
t6 15t-6 14.5t-15 5.5t-15 -5.5t-6 -14.5q0 -10 6 -15.5t15 -5.5zM323 73q7 0 10.5 4t3.5 9q0 12 -12 12t-12 6q0 1 1.5 2.5t3.5 1.5q3 0 5.5 -2t4.5 -5h7v13h-6l-2 -5q-1 2 -4 3.5t-7 1.5q-7 0 -10.5 -4t-3.5 -8q0 -12 12 -12.5t12 -6.5q0 -1 -1.5 -2.5t-3.5 -1.5
q-4 0 -6.5 2.5t-5.5 6.5h-7v-14h7l1 4q2 -1 5 -3t8 -2zM404 59q7 0 11 4.5t7 11.5l13 31h5v7h-17v-7h5l-8 -20l-9 20h6v7h-25v-7h5l6.5 -13t9.5 -20q-1 -4 -3 -6t-5 -2q2 2 1 6t-6 4q-3 0 -5 -2t-2 -5q0 -4 3 -6.5t8 -2.5zM195 78q-4 0 -6 3.5t-2 12.5q0 8 2 11.5t6 3.5
t6 -3.5t2 -11.5q0 -9 -2 -12.5t-6 -3.5zM372 80q-4 0 -6 3.5t-2 9.5q0 5 2 9t6 4t5.5 -3.5t1.5 -9.5t-1.5 -9.5t-5.5 -3.5zM276 0h23v7h-5v25h14v-25h-5v-7h23v7h-6v52l-10 -2q-1 1 -4 1.5t-5 0.5q-7 0 -13 -4.5t-6 -14.5v-1h-7v-7h7v-25h-6v-7zM498 -1q11 0 17 6.5t7 16.5
h-8q-1 -7 -4.5 -11.5t-9.5 -4.5q-7 0 -11.5 5.5t-4.5 16.5q0 12 4 17t10 5t9 -3.5t6 -12.5h8v22h-8l-1 -6q-3 3 -7 5t-9 2q-10 0 -18.5 -8.5t-8.5 -21.5t8 -20.5t21 -7.5zM124 0h29v7h-8v18h22v-18h-8v-7h29v7h-8v41h8v7h-29v-7h8v-16h-22v16h8v7h-29v-7h8v-41h-8v-7z
M294 39v3q0 7 2 9.5t4 2.5q1 0 2 -0.5l1 -0.5l-0.5 -1t-0.5 -2q0 -3 2 -4.5t4 -1.5v-5h-14zM425 -1q4 0 8 1.5t7 4.5q3 -4 5.5 -5t6.5 -1q6 0 9 3.5t4 8.5l-5 1q-1 -3 -2 -4t-2 -1t-3 1.5t-3 3.5q2 3 4.5 6.5t4.5 7.5h5v7h-18v-7h6q-1 -2 -3 -5t-3 -4q-3 3 -5.5 6t-6.5 7
q5 2 8 5t3 7t-3.5 8t-10.5 4t-12 -4.5t-5 -9.5q0 -4 1.5 -6.5t4.5 -5.5q-5 -1 -9 -5t-4 -10t4.5 -10t13.5 -4zM431 33q-3 3 -4.5 5.5t-1.5 4.5t1.5 3.5t3.5 1.5q3 0 4.5 -2t1.5 -4q0 -3 -1.5 -5.5t-3.5 -3.5zM368 0h26v7h-8v16q1 4 3.5 6.5t3.5 2.5v-1q0 -3 2 -4.5t4 -1.5
q3 0 5 2t2 5q0 4 -2 6t-6 2t-7 -2.5t-5 -8.5v10h-18v-7h6v-25h-6v-7zM255 -1q8 0 12.5 4t5.5 10h-7q-1 -4 -3 -5.5t-6 -1.5q-5 0 -7.5 2.5t-2.5 9.5h26q1 10 -4 16t-15 6q-8 0 -14 -6t-6 -15t5.5 -14.5t15.5 -5.5zM348 -1q8 0 12.5 4t5.5 10h-7q-1 -4 -3 -5.5t-6 -1.5
q-5 0 -7.5 2.5t-2.5 9.5h26q1 10 -4 16t-15 6q-8 0 -14 -6t-6 -15t5.5 -14.5t15.5 -5.5zM546 -1q9 0 15 6t6 15t-6 14.5t-15 5.5t-15 -5.5t-6 -14.5q0 -10 6 -15.5t15 -5.5zM210 -1q9 0 15 6t6 15t-6 14.5t-15 5.5t-15 -5.5t-6 -14.5q0 -10 6 -15.5t15 -5.5zM340 23
q0 7 2 9.5t5 2.5q4 0 5.5 -3t1.5 -9h-14zM247 23q0 7 2 9.5t5 2.5q4 0 5.5 -3t1.5 -9h-14zM546 4q-4 0 -6 3.5t-2 12.5q0 8 2 11.5t6 3.5t6 -3.5t2 -11.5q0 -9 -2 -12.5t-6 -3.5zM210 4q-4 0 -6 3.5t-2 12.5q0 8 2 11.5t6 3.5t6 -3.5t2 -11.5q0 -9 -2 -12.5t-6 -3.5zM429 6
q-4 0 -7 3t-3 7q0 3 1.5 5.5t2.5 3.5q4 -4 7 -8t7 -8q-2 -1 -4.5 -2t-3.5 -1zM576 -1q3 0 5 2t2 5t-2 5t-5 2t-5 -2t-2 -5t2 -5t5 -2z" />
    <glyph glyph-name="uniFEFF" unicode="&#xfeff;" horiz-adv-x="0" 
 />
    <glyph glyph-name="NUL" horiz-adv-x="0" 
 />
    <glyph glyph-name="a.sc" horiz-adv-x="549" 
d="M7 0v40h55l188 458h54l175 -458h66v-40h-217v40h81l-50 135h-196l-54 -135h70v-40h-172zM263 428l-86 -217h169l-81 217h-2z" />
    <glyph glyph-name="b.sc" horiz-adv-x="527" 
d="M35 0v40h87v414h-87v40h247q102 0 141.5 -33t39.5 -82q0 -37 -26.5 -70.5t-99.5 -46.5v-2q77 -10 112 -43t35 -83q0 -24 -10 -48t-34 -43t-65.5 -31t-104.5 -12h-235zM188 279h85q60 0 90 25.5t30 68.5q0 38 -24 59.5t-89 21.5h-92v-175zM188 40h87q75 0 106.5 25.5
t31.5 74.5q0 46 -34.5 73.5t-107.5 27.5h-83v-201z" />
    <glyph glyph-name="c.sc" horiz-adv-x="544" 
d="M280 -14q-52 0 -95.5 19.5t-74.5 54t-48 83t-17 104.5q0 54 18.5 102t50.5 82.5t75 54.5t92 20q50 0 86.5 -17t59.5 -43l15 58h40v-184h-35q-25 66 -64 105t-100 39q-72 0 -118 -54.5t-46 -158.5q0 -106 48 -163.5t124 -57.5q66 0 107.5 44t54.5 114h44
q-14 -97 -72 -149.5t-145 -52.5z" />
    <glyph glyph-name="d.sc" horiz-adv-x="572" 
d="M35 0v40h87v414h-87v40h212q141 0 210.5 -66t69.5 -173q0 -53 -16 -99.5t-49.5 -81t-86 -54.5t-123.5 -20h-217zM188 40h66q103 0 151 52t48 163q0 97 -49 148t-156 51h-60v-414z" />
    <glyph glyph-name="e.sc" horiz-adv-x="536" 
d="M35 0v40h87v414h-87v40h438v-155h-30q-16 72 -27.5 93.5t-48.5 21.5h-179v-183h80q34 0 44.5 12.5t18.5 63.5h31v-189h-31q-7 53 -18 66t-45 13h-80v-197h177q43 0 56 24t29 106h31v-170h-446z" />
    <glyph glyph-name="f.sc" horiz-adv-x="519" 
d="M35 0v40h87v414h-87v40h440v-158h-30q-18 75 -33 96.5t-52 21.5h-172v-191h74q34 0 44.5 13t18.5 64h32v-194h-32q-7 54 -18 68t-45 14h-74v-188h96v-40h-249z" />
    <glyph glyph-name="g.sc" horiz-adv-x="571" 
d="M277 -12q-53 0 -96.5 20.5t-74 55.5t-47 83t-16.5 102q0 52 18 99t49 82t74 55.5t93 20.5q43 0 80.5 -16t62.5 -44l15 58h40v-182h-35q-25 66 -64.5 104t-99.5 38q-38 0 -68 -16t-50 -44t-30.5 -67t-10.5 -84q0 -103 45 -162t124 -59q53 0 91 40.5t38 112.5v15h-96v40
h233v-40h-71v-205h-37l-23 71q-23 -37 -60.5 -57.5t-83.5 -20.5z" />
    <glyph glyph-name="h.sc" horiz-adv-x="627" 
d="M35 0v40h87v414h-87v40h230v-40h-77v-180h251v180h-77v40h230v-40h-87v-414h87v-40h-230v40h77v198h-251v-198h77v-40h-230z" />
    <glyph glyph-name="i.sc" horiz-adv-x="322" 
d="M41 0v40h87v414h-87v40h240v-40h-87v-414h87v-40h-240z" />
    <glyph glyph-name="j.sc" horiz-adv-x="436" 
d="M181 -12q-67 0 -107 34t-40 80q0 26 15.5 43t37.5 17q21 0 34.5 -13.5t13.5 -35.5q0 -16 -9 -28.5t-28 -17.5q10 -17 31.5 -28t50.5 -11q40 0 63.5 26t23.5 72v328h-84v40h228v-40h-78v-317q0 -70 -42 -109.5t-110 -39.5z" />
    <glyph glyph-name="k.sc" horiz-adv-x="585" 
d="M35 0v40h87v414h-87v40h230v-40h-77v-229l236 229h-71v40h197v-40h-66l-174 -165l193 -249h63v-40h-214v40h71l-158 206l-77 -72v-134h77v-40h-230z" />
    <glyph glyph-name="l.sc" horiz-adv-x="497" 
d="M35 0v40h87v414h-87v40h245v-40h-92v-414h158q17 0 28 5.5t19 21t16 44t18 74.5h31v-185h-423z" />
    <glyph glyph-name="m.sc" horiz-adv-x="750" 
d="M37 0v40h81v414h-81v40h191l146 -384h2l150 384h187v-40h-85v-414h85v-40h-220v40h69v411h-5l-181 -451h-28l-179 451h-5v-411h74v-40h-201z" />
    <glyph glyph-name="n.sc" horiz-adv-x="623" 
d="M37 0v40h81v414h-81v40h153l277 -382h4v342h-80v40h203v-40h-78v-466h-42l-306 424h-4v-372h78v-40h-205z" />
    <glyph glyph-name="o.sc" horiz-adv-x="567" 
d="M284 -14q-50 0 -94.5 19.5t-76.5 54t-51 82.5t-19 105q0 56 19.5 104t52 82.5t76.5 54.5t93 20q50 0 94 -19t76.5 -53.5t51 -83t18.5 -105.5q0 -56 -19 -104t-51.5 -82.5t-76.5 -54.5t-93 -20zM284 27q78 0 122 59.5t44 160.5q0 100 -44 160t-122 60t-122.5 -60
t-44.5 -160t44.5 -160t122.5 -60z" />
    <glyph glyph-name="p.sc" horiz-adv-x="499" 
d="M35 0v40h87v414h-87v40h224q58 0 97.5 -11.5t63.5 -31t34 -45t10 -53.5q0 -29 -11.5 -56t-36 -47.5t-63 -33t-91.5 -12.5h-74v-164h96v-40h-249zM188 242h72q72 0 101 31t29 80q0 43 -28.5 72t-100.5 29h-73v-212z" />
    <glyph glyph-name="q.sc" horiz-adv-x="572" 
d="M284 -12q-50 0 -94.5 19t-76.5 53.5t-51 82.5t-19 105q0 56 19.5 104t52 82.5t76.5 54t93 19.5q50 0 94 -19t76.5 -53t51 -82.5t18.5 -105.5q0 -66 -26.5 -121t-70.5 -89q22 -39 37.5 -52t31.5 -13q22 0 34.5 18.5t18.5 53.5h37q-4 -55 -27 -90t-71 -35q-39 0 -63.5 23
t-44.5 66q-22 -10 -46.5 -15.5t-49.5 -5.5zM266 194q48 0 79.5 -30.5t57.5 -79.5q22 28 34.5 70t12.5 94q0 100 -44 159.5t-122 59.5t-122.5 -60t-44.5 -160q0 -50 12 -89.5t32 -66.5q-1 43 26.5 73t78.5 30zM195 88q0 -22 20.5 -40.5t73.5 -18.5q20 0 38.5 5t34.5 14
q-21 45 -46.5 76t-60.5 31q-27 0 -43.5 -19.5t-16.5 -47.5z" />
    <glyph glyph-name="r.sc" horiz-adv-x="552" 
d="M466 -8q-33 0 -56.5 18.5t-24.5 69.5l-2 60q-1 42 -20.5 62t-76.5 20h-98v-182h87v-40h-240v40h87v414h-87v40h253q99 0 142 -38.5t43 -89.5q0 -39 -27.5 -74.5t-95.5 -47.5v-4q54 -13 76 -39t25 -68l6 -62q1 -19 8 -26.5t19 -7.5t20.5 8.5t17.5 26.5l26 -13
q-12 -31 -31.5 -49t-50.5 -18zM188 258h94q65 0 91.5 29t26.5 78q0 43 -25.5 66t-82.5 23h-104v-196z" />
    <glyph glyph-name="s.sc" horiz-adv-x="470" 
d="M262 -12q-48 0 -86.5 16.5t-66.5 44.5l-18 -59h-38v173h35q37 -73 78 -105.5t98 -32.5q45 0 73.5 23.5t28.5 68.5q0 50 -39.5 68.5t-100.5 34.5q-31 8 -61 17.5t-53 25.5t-37.5 40t-14.5 61q0 58 43 100t115 42q39 0 74 -15t57 -40l16 52h38v-164h-35q-30 72 -69.5 101
t-84.5 29q-39 0 -66 -22.5t-27 -62.5q0 -51 40.5 -70.5t94.5 -33.5q34 -8 64.5 -18t54 -25.5t37.5 -39t14 -59.5q0 -63 -46.5 -106.5t-117.5 -43.5z" />
    <glyph glyph-name="t.sc" horiz-adv-x="556" 
d="M154 0v40h91v418h-76q-22 0 -36 -5t-23.5 -20t-16.5 -41.5t-17 -68.5h-29v171h462v-171h-30q-10 42 -17 68.5t-16.5 41.5t-23.5 20t-36 5h-76v-418h91v-40h-247z" />
    <glyph glyph-name="u.sc" horiz-adv-x="597" 
d="M297 -12q-97 0 -145.5 45.5t-48.5 115.5v305h-75v40h220v-40h-79v-287q0 -72 37.5 -102.5t109.5 -30.5q33 0 59.5 10t43.5 27q19 19 26.5 45.5t7.5 68.5v269h-79v40h196v-40h-72v-298q0 -69 -50.5 -118.5t-150.5 -49.5z" />
    <glyph glyph-name="v.sc" horiz-adv-x="554" 
d="M252 -3l-179 457h-66v40h219v-40h-81l143 -377h4l152 377h-69v40h172v-40h-55l-190 -457h-50z" />
    <glyph glyph-name="w.sc" horiz-adv-x="794" 
d="M225 -3l-150 457h-66v40h215v-40h-78l118 -371h3l116 329l-13 42h-65v40h217v-40h-83l114 -371h4l125 371h-69v40h171v-40h-55l-161 -457h-54l-110 350l-125 -350h-54z" />
    <glyph glyph-name="x.sc" horiz-adv-x="549" 
d="M18 0v40h63l157 207l-145 207h-69v40h217v-40h-70l112 -166l121 166h-75v40h192v-40h-64l-147 -196l153 -218h68v-40h-216v40h71l-121 178l-131 -178h75v-40h-191z" />
    <glyph glyph-name="y.sc" horiz-adv-x="521" 
d="M148 0v40h79v167l-148 247h-64v40h212v-40h-70l119 -205l127 205h-67v40h174v-40h-60l-157 -246v-168h79v-40h-224z" />
    <glyph glyph-name="z.sc" horiz-adv-x="498" 
d="M41 0v29l328 425h-199q-17 0 -28.5 -3t-20 -16t-16.5 -39t-18 -72h-30v170h397v-28l-326 -426h215q17 0 28 4t19 18t16 40.5t18 72.5h31v-175h-414z" />
    <glyph glyph-name="aacute.sc" horiz-adv-x="549" 
d="M7 0v40h55l188 458h54l175 -458h66v-40h-217v40h81l-50 135h-196l-54 -135h70v-40h-172zM263 428l-86 -217h169l-81 217h-2zM256 573l51 126q15 37 27 52.5t29 15.5q12 0 21 -8.5t9 -23.5q0 -16 -11.5 -33.5t-33.5 -45.5l-64 -83h-28z" />
    <glyph glyph-name="abreve.sc" horiz-adv-x="549" 
d="M7 0v40h55l188 458h54l175 -458h66v-40h-217v40h81l-50 135h-196l-54 -135h70v-40h-172zM263 428l-86 -217h169l-81 217h-2zM276 580q-52 0 -85.5 38.5t-36.5 104.5h24q12 -41 35.5 -65t62.5 -24t62.5 24t35.5 65h24q-3 -66 -36.5 -104.5t-85.5 -38.5z" />
    <glyph glyph-name="acircumflex.sc" horiz-adv-x="549" 
d="M7 0v40h55l188 458h54l175 -458h66v-40h-217v40h81l-50 135h-196l-54 -135h70v-40h-172zM263 428l-86 -217h169l-81 217h-2zM153 574l106 179h34l106 -179h-31l-92 108l-92 -108h-31z" />
    <glyph glyph-name="adieresis.sc" horiz-adv-x="549" 
d="M7 0v40h55l188 458h54l175 -458h66v-40h-217v40h81l-50 135h-196l-54 -135h70v-40h-172zM263 428l-86 -217h169l-81 217h-2zM193 596q-19 0 -32 14t-13 34t13 34t32 14t32 -14t13 -34t-13 -34t-32 -14zM359 596q-19 0 -32 14t-13 34t13 34t32 14t32 -14t13 -34t-13 -34
t-32 -14z" />
    <glyph glyph-name="agrave.sc" horiz-adv-x="549" 
d="M7 0v40h55l188 458h54l175 -458h66v-40h-217v40h81l-50 135h-196l-54 -135h70v-40h-172zM263 428l-86 -217h169l-81 217h-2zM283 573l-64 83q-22 28 -33.5 45.5t-11.5 33.5q0 15 9 23.5t21 8.5q17 0 29 -15.5t27 -52.5l51 -126h-28z" />
    <glyph glyph-name="amacron.sc" horiz-adv-x="549" 
d="M7 0v40h55l188 458h54l175 -458h66v-40h-217v40h81l-50 135h-196l-54 -135h70v-40h-172zM263 428l-86 -217h169l-81 217h-2zM151 592v53h251v-53h-251z" />
    <glyph glyph-name="aogonek.sc" horiz-adv-x="549" 
d="M7 0v40h55l188 458h54l175 -458h66v-40h-70l-17 -18q-41 -43 -57 -72t-16 -51q0 -25 15.5 -39t37.5 -14q19 0 34 8t25 15l16 -22q-18 -17 -40.5 -28.5t-48.5 -11.5q-41 0 -66 23t-25 60q0 34 22.5 65.5t69.5 72.5l14 12h-111v40h81l-50 135h-196l-54 -135h70v-40h-172z
M263 428l-86 -217h169l-81 217h-2z" />
    <glyph glyph-name="aring.sc" horiz-adv-x="549" 
d="M7 0v40h55l177 430q-33 11 -50 37.5t-17 56.5q0 37 27 68.5t78 31.5t78 -31.5t27 -68.5q0 -30 -17 -57t-50 -37l164 -430h66v-40h-217v40h81l-50 135h-196l-54 -135h70v-40h-172zM277 494q28 0 44 20t16 50t-16 50t-44 20t-44 -20t-16 -50t16 -50t44 -20zM263 428
l-86 -217h169l-81 217h-2z" />
    <glyph glyph-name="aringacute.sc" horiz-adv-x="549" 
d="M7 0v40h55l177 430q-33 11 -50 37.5t-17 56.5q0 37 27 68.5t78 31.5t78 -31.5t27 -68.5q0 -30 -17 -57t-50 -37l164 -430h66v-40h-217v40h81l-50 135h-196l-54 -135h70v-40h-172zM277 494q28 0 44 20t16 50t-16 50t-44 20t-44 -20t-16 -50t16 -50t44 -20zM263 428
l-86 -217h169l-81 217h-2zM252 709l51 126q15 37 27 52.5t29 15.5q12 0 21 -8.5t9 -23.5q0 -16 -11.5 -33.5t-33.5 -45.5l-64 -83h-28z" />
    <glyph glyph-name="atilde.sc" horiz-adv-x="549" 
d="M7 0v40h55l188 458h54l175 -458h66v-40h-217v40h81l-50 135h-196l-54 -135h70v-40h-172zM263 428l-86 -217h169l-81 217h-2zM134 579q9 68 29.5 95t52.5 27q20 0 37.5 -10.5t32.5 -22.5t29.5 -22.5t28.5 -10.5q22 0 31.5 20t14.5 49h29q-9 -68 -29.5 -95t-52.5 -27
q-20 0 -37.5 10.5t-32.5 22.5t-29.5 22.5t-28.5 10.5q-22 0 -31.5 -20t-14.5 -49h-29z" />
    <glyph glyph-name="cacute.sc" horiz-adv-x="544" 
d="M280 -14q-52 0 -95.5 19.5t-74.5 54t-48 83t-17 104.5q0 54 18.5 102t50.5 82.5t75 54.5t92 20q50 0 86.5 -17t59.5 -43l15 58h40v-184h-35q-25 66 -64 105t-100 39q-72 0 -118 -54.5t-46 -158.5q0 -106 48 -163.5t124 -57.5q66 0 107.5 44t54.5 114h44
q-14 -97 -72 -149.5t-145 -52.5zM266 573l51 126q15 37 27 52.5t29 15.5q12 0 21 -8.5t9 -23.5q0 -16 -11.5 -33.5t-33.5 -45.5l-64 -83h-28z" />
    <glyph glyph-name="ccaron.sc" horiz-adv-x="544" 
d="M280 -14q-52 0 -95.5 19.5t-74.5 54t-48 83t-17 104.5q0 54 18.5 102t50.5 82.5t75 54.5t92 20q50 0 86.5 -17t59.5 -43l15 58h40v-184h-35q-25 66 -64 105t-100 39q-72 0 -118 -54.5t-46 -158.5q0 -106 48 -163.5t124 -57.5q66 0 107.5 44t54.5 114h44
q-14 -97 -72 -149.5t-145 -52.5zM269 583l-106 179h31l92 -108l92 108h31l-106 -179h-34z" />
    <glyph glyph-name="ccedilla.sc" horiz-adv-x="544" 
d="M269 -233q-25 0 -50 8t-47 22l16 28q19 -11 37.5 -17.5t40.5 -6.5q25 0 41.5 12.5t16.5 35.5q0 25 -21 36.5t-49 11.5q-13 0 -23.5 -2t-17.5 -4l-13 17l77 78q-51 0 -94 20t-73.5 54.5t-47.5 82.5t-17 104q0 54 18.5 102t50.5 82.5t75 54.5t92 20q50 0 86.5 -17t59.5 -43
l15 58h40v-184h-35q-25 66 -64 105t-100 39q-72 0 -118 -54.5t-46 -158.5q0 -106 48 -163.5t124 -57.5q66 0 107.5 44t54.5 114h44q-13 -85 -59 -136t-116 -63l-59 -58l1 -2q48 0 78 -21t30 -57q0 -37 -28.5 -60.5t-74.5 -23.5z" />
    <glyph glyph-name="cdotaccent.sc" horiz-adv-x="544" 
d="M280 -14q-52 0 -95.5 19.5t-74.5 54t-48 83t-17 104.5q0 54 18.5 102t50.5 82.5t75 54.5t92 20q50 0 86.5 -17t59.5 -43l15 58h40v-184h-35q-25 66 -64 105t-100 39q-72 0 -118 -54.5t-46 -158.5q0 -106 48 -163.5t124 -57.5q66 0 107.5 44t54.5 114h44
q-14 -97 -72 -149.5t-145 -52.5zM286 577q-19 0 -33 12.5t-14 34.5q0 20 13.5 34t33.5 14q17 0 31 -13t14 -34q0 -22 -13.5 -35t-31.5 -13z" />
    <glyph glyph-name="dcaron.sc" horiz-adv-x="572" 
d="M35 0v40h87v414h-87v40h212q141 0 210.5 -66t69.5 -173q0 -53 -16 -99.5t-49.5 -81t-86 -54.5t-123.5 -20h-217zM188 40h66q103 0 151 52t48 163q0 97 -49 148t-156 51h-60v-414zM284 583l-106 179h31l92 -108l92 108h31l-106 -179h-34z" />
    <glyph glyph-name="dcroat.sc" horiz-adv-x="572" 
d="M35 0v40h87v197h-87v40h87v177h-87v40h212q141 0 210.5 -66t69.5 -173q0 -53 -16 -99.5t-49.5 -81t-86 -54.5t-123.5 -20h-217zM188 40h66q103 0 151 52t48 163q0 97 -49 148t-156 51h-60v-177h118v-40h-118v-197z" />
    <glyph glyph-name="eacute.sc" horiz-adv-x="536" 
d="M35 0v40h87v414h-87v40h438v-155h-30q-16 72 -27.5 93.5t-48.5 21.5h-179v-183h80q34 0 44.5 12.5t18.5 63.5h31v-189h-31q-7 53 -18 66t-45 13h-80v-197h177q43 0 56 24t29 106h31v-170h-446zM253 573l51 126q15 37 27 52.5t29 15.5q12 0 21 -8.5t9 -23.5
q0 -16 -11.5 -33.5t-33.5 -45.5l-64 -83h-28z" />
    <glyph glyph-name="ebreve.sc" horiz-adv-x="536" 
d="M35 0v40h87v414h-87v40h438v-155h-30q-16 72 -27.5 93.5t-48.5 21.5h-179v-183h80q34 0 44.5 12.5t18.5 63.5h31v-189h-31q-7 53 -18 66t-45 13h-80v-197h177q43 0 56 24t29 106h31v-170h-446zM273 580q-52 0 -85.5 38.5t-36.5 104.5h24q12 -41 35.5 -65t62.5 -24
t62.5 24t35.5 65h24q-3 -66 -36.5 -104.5t-85.5 -38.5z" />
    <glyph glyph-name="ecaron.sc" horiz-adv-x="536" 
d="M35 0v40h87v414h-87v40h438v-155h-30q-16 72 -27.5 93.5t-48.5 21.5h-179v-183h80q34 0 44.5 12.5t18.5 63.5h31v-189h-31q-7 53 -18 66t-45 13h-80v-197h177q43 0 56 24t29 106h31v-170h-446zM256 583l-106 179h31l92 -108l92 108h31l-106 -179h-34z" />
    <glyph glyph-name="ecircumflex.sc" horiz-adv-x="536" 
d="M35 0v40h87v414h-87v40h438v-155h-30q-16 72 -27.5 93.5t-48.5 21.5h-179v-183h80q34 0 44.5 12.5t18.5 63.5h31v-189h-31q-7 53 -18 66t-45 13h-80v-197h177q43 0 56 24t29 106h31v-170h-446zM150 574l106 179h34l106 -179h-31l-92 108l-92 -108h-31z" />
    <glyph glyph-name="edieresis.sc" horiz-adv-x="536" 
d="M35 0v40h87v414h-87v40h438v-155h-30q-16 72 -27.5 93.5t-48.5 21.5h-179v-183h80q34 0 44.5 12.5t18.5 63.5h31v-189h-31q-7 53 -18 66t-45 13h-80v-197h177q43 0 56 24t29 106h31v-170h-446zM190 596q-19 0 -32 14t-13 34t13 34t32 14t32 -14t13 -34t-13 -34t-32 -14z
M356 596q-19 0 -32 14t-13 34t13 34t32 14t32 -14t13 -34t-13 -34t-32 -14z" />
    <glyph glyph-name="edotaccent.sc" horiz-adv-x="536" 
d="M35 0v40h87v414h-87v40h438v-155h-30q-16 72 -27.5 93.5t-48.5 21.5h-179v-183h80q34 0 44.5 12.5t18.5 63.5h31v-189h-31q-7 53 -18 66t-45 13h-80v-197h177q43 0 56 24t29 106h31v-170h-446zM273 577q-19 0 -33 12.5t-14 34.5q0 20 13.5 34t33.5 14q17 0 31 -13t14 -34
q0 -22 -13.5 -35t-31.5 -13z" />
    <glyph glyph-name="egrave.sc" horiz-adv-x="536" 
d="M35 0v40h87v414h-87v40h438v-155h-30q-16 72 -27.5 93.5t-48.5 21.5h-179v-183h80q34 0 44.5 12.5t18.5 63.5h31v-189h-31q-7 53 -18 66t-45 13h-80v-197h177q43 0 56 24t29 106h31v-170h-446zM280 573l-64 83q-22 28 -33.5 45.5t-11.5 33.5q0 15 9 23.5t21 8.5
q17 0 29 -15.5t27 -52.5l51 -126h-28z" />
    <glyph glyph-name="emacron.sc" horiz-adv-x="536" 
d="M35 0v40h87v414h-87v40h438v-155h-30q-16 72 -27.5 93.5t-48.5 21.5h-179v-183h80q34 0 44.5 12.5t18.5 63.5h31v-189h-31q-7 53 -18 66t-45 13h-80v-197h177q43 0 56 24t29 106h31v-170h-446zM148 592v53h251v-53h-251z" />
    <glyph glyph-name="eogonek.sc" horiz-adv-x="536" 
d="M35 0v40h87v414h-87v40h438v-155h-30q-16 72 -27.5 93.5t-48.5 21.5h-179v-183h80q34 0 44.5 12.5t18.5 63.5h31v-189h-31q-7 53 -18 66t-45 13h-80v-197h177q43 0 56 24t29 106h31v-170h-30l-17 -18q-41 -43 -57 -72t-16 -51q0 -25 15.5 -39t37.5 -14q19 0 34 8t25 15
l16 -22q-18 -17 -40.5 -28.5t-48.5 -11.5q-41 0 -66 23t-25 60q0 34 22.5 65.5t69.5 72.5l14 12h-380z" />
    <glyph glyph-name="gbreve.sc" horiz-adv-x="571" 
d="M277 -12q-53 0 -96.5 20.5t-74 55.5t-47 83t-16.5 102q0 52 18 99t49 82t74 55.5t93 20.5q43 0 80.5 -16t62.5 -44l15 58h40v-182h-35q-25 66 -64.5 104t-99.5 38q-38 0 -68 -16t-50 -44t-30.5 -67t-10.5 -84q0 -103 45 -162t124 -59q53 0 91 40.5t38 112.5v15h-96v40
h233v-40h-71v-205h-37l-23 71q-23 -37 -60.5 -57.5t-83.5 -20.5zM272 580q-52 0 -85.5 38.5t-36.5 104.5h24q12 -41 35.5 -65t62.5 -24t62.5 24t35.5 65h24q-3 -66 -36.5 -104.5t-85.5 -38.5z" />
    </font>
</defs>
</svg>
